<svg width="90" height="60" viewBox="0 0 90 60" fill="none" xmlns="http://www.w3.org/2000/svg">
<path d="M17.5572 47.0062L17.4405 48.5335C17.2719 48.8124 17.0579 49.0621 16.7985 49.2826C16.5455 49.4966 16.244 49.6685 15.8938 49.7982C15.55 49.9214 15.1544 49.983 14.7069 49.983C14.0325 49.9765 13.4326 49.8273 12.9073 49.5355C12.382 49.2437 11.9702 48.8351 11.6718 48.3098C11.38 47.778 11.2341 47.1522 11.2341 46.4323C11.2341 45.7254 11.38 45.1093 11.6718 44.584C11.9637 44.0522 12.3722 43.6404 12.8975 43.3485C13.4293 43.0502 14.0519 42.901 14.7653 42.901C15.2452 42.901 15.6765 42.9659 16.0591 43.0956C16.4483 43.2188 16.7855 43.3745 17.0708 43.5625L17.2654 44.9342H17.1779C17.0352 44.3635 16.7433 43.9322 16.3023 43.6404C15.8613 43.342 15.349 43.1929 14.7653 43.1929C14.1946 43.1929 13.6985 43.3291 13.2769 43.6015C12.8619 43.8673 12.5376 44.2435 12.3041 44.7299C12.0772 45.2098 11.9637 45.774 11.9637 46.4226C11.9637 47.0711 12.0772 47.6386 12.3041 48.125C12.5376 48.6114 12.8586 48.9907 13.2672 49.2631C13.6823 49.5355 14.1622 49.6782 14.7069 49.6912C15.1674 49.6912 15.5922 49.6068 15.9813 49.4382C16.3769 49.2631 16.7077 48.981 16.9736 48.5919C17.2395 48.1963 17.4081 47.6677 17.4794 47.0062H17.5572ZM25.9113 42.901L28.7908 49.7884H27.9639L25.7167 43.8252L25.9113 42.901ZM23.8198 49.1367C23.7744 49.2664 23.7679 49.3766 23.8003 49.4674C23.8327 49.5582 23.8846 49.6295 23.956 49.6814C24.0338 49.7268 24.1116 49.7495 24.1894 49.7495H24.277V49.8468H22.3217V49.7495C22.3217 49.7495 22.3379 49.7495 22.3703 49.7495C22.3962 49.7495 22.4092 49.7495 22.4092 49.7495C22.5584 49.7495 22.7108 49.7041 22.8664 49.6133C23.0286 49.5161 23.1615 49.3572 23.2653 49.1367H23.8198ZM25.9113 42.901L25.9988 43.582L23.5571 49.8176H22.9734L25.4638 43.903C25.4638 43.903 25.48 43.8641 25.5124 43.7863C25.5513 43.702 25.5935 43.6015 25.6389 43.4847C25.6908 43.368 25.7329 43.2545 25.7654 43.1442C25.8043 43.034 25.8237 42.9529 25.8237 42.901H25.9113ZM27.2829 47.1911V47.4829H24.2381V47.1911H27.2829ZM27.7207 49.1367H28.5184C28.6157 49.3572 28.7454 49.5161 28.9075 49.6133C29.0696 49.7041 29.2253 49.7495 29.3744 49.7495C29.3744 49.7495 29.3874 49.7495 29.4133 49.7495C29.4393 49.7495 29.4523 49.7495 29.4523 49.7495V49.8468H27.2635V49.7495H27.351C27.4742 49.7495 27.5845 49.6976 27.6818 49.5939C27.779 49.4836 27.792 49.3312 27.7207 49.1367ZM35.5606 43.0372H36.8447C37.2597 43.0372 37.6164 43.1118 37.9147 43.261C38.2131 43.4101 38.4433 43.6274 38.6054 43.9127C38.7676 44.1916 38.8486 44.5256 38.8486 44.9147C38.8486 45.2131 38.7903 45.4822 38.6735 45.7221C38.5568 45.9556 38.4011 46.1534 38.2066 46.3156C38.012 46.4777 37.7915 46.6009 37.5451 46.6852C37.2986 46.763 37.0425 46.7922 36.7766 46.7728C36.5172 46.7533 36.2642 46.6787 36.0178 46.549V46.4517C36.0178 46.4517 36.0729 46.4615 36.1832 46.4809C36.2934 46.4939 36.4329 46.4971 36.6015 46.4907C36.7766 46.4777 36.9582 46.442 37.1462 46.3836C37.3408 46.3188 37.5191 46.2085 37.6813 46.0529C37.8499 45.8973 37.9764 45.68 38.0607 45.4011C38.0801 45.3298 38.0963 45.2422 38.1093 45.1385C38.1223 45.0282 38.1255 44.9212 38.119 44.8174C38.1125 44.37 37.9958 44.01 37.7688 43.7376C37.5418 43.4653 37.2208 43.3291 36.8058 43.3291H35.6579C35.6579 43.3291 35.6481 43.3064 35.6287 43.261C35.6157 43.2091 35.5995 43.1605 35.58 43.1151C35.5671 43.0632 35.5606 43.0372 35.5606 43.0372ZM35.687 43.0372V49.8468H35.0547V43.0372H35.687ZM35.0839 49.1367V49.8468H34.3057V49.7495C34.3057 49.7495 34.3251 49.7495 34.364 49.7495C34.4094 49.7495 34.4321 49.7495 34.4321 49.7495C34.6008 49.7495 34.7434 49.6912 34.8602 49.5744C34.9834 49.4512 35.0482 49.3053 35.0547 49.1367H35.0839ZM35.0839 43.7474H35.0547C35.0547 43.5788 34.9931 43.4361 34.8699 43.3193C34.7467 43.1961 34.6008 43.1345 34.4321 43.1345C34.4321 43.1345 34.4127 43.1345 34.3738 43.1345C34.3349 43.1345 34.3154 43.1345 34.3154 43.1345L34.3057 43.0372H35.0839V43.7474ZM35.6579 49.1367H35.687C35.6935 49.3053 35.7551 49.4512 35.8719 49.5744C35.9951 49.6912 36.141 49.7495 36.3096 49.7495C36.3096 49.7495 36.3291 49.7495 36.368 49.7495C36.4134 49.7495 36.4361 49.7495 36.4361 49.7495V49.8468H35.6579V49.1367ZM54.7056 43.0664V49.8468H54.0733V43.0664H54.7056ZM57.2057 43.0275V43.3193H51.5732V43.0275H57.2057ZM57.2057 43.2902V44.0781L57.1084 44.0684V43.903C57.1084 43.7409 57.05 43.6047 56.9333 43.4944C56.823 43.3842 56.6901 43.3258 56.5344 43.3193V43.2902H57.2057ZM57.2057 42.8524V43.1345L56.0189 43.0275C56.1615 43.0275 56.3107 43.0178 56.4663 42.9983C56.6285 42.9789 56.7776 42.9562 56.9138 42.9302C57.05 42.9043 57.1473 42.8783 57.2057 42.8524ZM54.1024 49.1367V49.8468H53.3242V49.7495C53.3242 49.7495 53.3437 49.7495 53.3826 49.7495C53.428 49.7495 53.4507 49.7495 53.4507 49.7495C53.6193 49.7495 53.762 49.6912 53.8787 49.5744C54.0019 49.4512 54.0668 49.3053 54.0733 49.1367H54.1024ZM54.6764 49.1367H54.7056C54.7121 49.3053 54.7737 49.4512 54.8904 49.5744C55.0136 49.6912 55.1596 49.7495 55.3282 49.7495C55.3282 49.7495 55.3476 49.7495 55.3865 49.7495C55.4319 49.7495 55.4546 49.7495 55.4546 49.7495V49.8468H54.6764V49.1367ZM52.2444 43.2902V43.3193C52.0823 43.3258 51.9461 43.3842 51.8358 43.4944C51.7256 43.6047 51.6705 43.7409 51.6705 43.903V44.0684L51.5732 44.0781V43.2902H52.2444ZM51.5732 42.8524C51.638 42.8783 51.7353 42.9043 51.865 42.9302C52.0012 42.9562 52.1504 42.9789 52.3125 42.9983C52.4746 43.0178 52.6238 43.0275 52.76 43.0275L51.5732 43.1345V42.8524ZM64.578 42.901L67.4575 49.7884H66.6306L64.3835 43.8252L64.578 42.901ZM62.4865 49.1367C62.4411 49.2664 62.4346 49.3766 62.467 49.4674C62.4995 49.5582 62.5514 49.6295 62.6227 49.6814C62.7005 49.7268 62.7783 49.7495 62.8562 49.7495H62.9437V49.8468H60.9884V49.7495C60.9884 49.7495 61.0046 49.7495 61.037 49.7495C61.063 49.7495 61.076 49.7495 61.076 49.7495C61.2251 49.7495 61.3775 49.7041 61.5332 49.6133C61.6953 49.5161 61.8282 49.3572 61.932 49.1367H62.4865ZM64.578 42.901L64.6656 43.582L62.2238 49.8176H61.6402L64.1305 43.903C64.1305 43.903 64.1467 43.8641 64.1792 43.7863C64.2181 43.702 64.2602 43.6015 64.3056 43.4847C64.3575 43.368 64.3997 43.2545 64.4321 43.1442C64.471 43.034 64.4905 42.9529 64.4905 42.901H64.578ZM65.9497 47.1911V47.4829H62.9048V47.1911H65.9497ZM66.3874 49.1367H67.1851C67.2824 49.3572 67.4121 49.5161 67.5742 49.6133C67.7364 49.7041 67.892 49.7495 68.0412 49.7495C68.0412 49.7495 68.0541 49.7495 68.0801 49.7495C68.106 49.7495 68.119 49.7495 68.119 49.7495V49.8468H65.9302V49.7495H66.0178C66.141 49.7495 66.2512 49.6976 66.3485 49.5939C66.4458 49.4836 66.4588 49.3312 66.3874 49.1367ZM74.3538 43.0372V49.8468H73.7215V43.0372H74.3538ZM76.9803 49.5452V49.8468H74.3246V49.5452H76.9803ZM77.5737 48.2709L77.0095 49.8468H75.3947L75.7449 49.5452C76.0886 49.5452 76.3675 49.4934 76.5815 49.3896C76.802 49.2793 76.9803 49.1269 77.1165 48.9324C77.2527 48.7378 77.3727 48.5173 77.4765 48.2709H77.5737ZM73.7506 49.1367V49.8468H72.9724V49.7495C72.9724 49.7495 72.9919 49.7495 73.0308 49.7495C73.0762 49.7495 73.0989 49.7495 73.0989 49.7495C73.2675 49.7495 73.4102 49.6912 73.5269 49.5744C73.6501 49.4512 73.715 49.3053 73.7215 49.1367H73.7506ZM73.7506 43.7474H73.7215C73.715 43.5788 73.6501 43.4361 73.5269 43.3193C73.4102 43.1961 73.2675 43.1345 73.0989 43.1345C73.0989 43.1345 73.0762 43.1345 73.0308 43.1345C72.9919 43.1345 72.9724 43.1345 72.9724 43.1345V43.0372H73.7506V43.7474ZM74.3246 43.7474V43.0372H75.1028V43.1345C75.0963 43.1345 75.0736 43.1345 75.0347 43.1345C74.9958 43.1345 74.9764 43.1345 74.9764 43.1345C74.8077 43.1345 74.6618 43.1961 74.5386 43.3193C74.4219 43.4361 74.3603 43.5788 74.3538 43.7474H74.3246Z" fill="white"/>
<path d="M45.6791 43.0372V49.8468H45.0468V43.0372H45.6791ZM45.076 49.1367V49.8468H44.2977V49.7495C44.2977 49.7495 44.3172 49.7495 44.3561 49.7495C44.4015 49.7495 44.4242 49.7495 44.4242 49.7495C44.5928 49.7495 44.7355 49.6912 44.8522 49.5744C44.9754 49.4512 45.0403 49.3053 45.0468 49.1367H45.076ZM45.076 43.7474H45.0468C45.0403 43.5788 44.9754 43.4361 44.8522 43.3193C44.7355 43.1961 44.5928 43.1345 44.4242 43.1345C44.4242 43.1345 44.4015 43.1345 44.3561 43.1345C44.3172 43.1345 44.2977 43.1345 44.2977 43.1345V43.0372H45.076V43.7474ZM45.6499 49.1367H45.6791C45.6856 49.3053 45.7472 49.4512 45.8639 49.5744C45.9872 49.6912 46.1331 49.7495 46.3017 49.7495C46.3017 49.7495 46.3211 49.7495 46.3601 49.7495C46.399 49.7495 46.4217 49.7495 46.4282 49.7495V49.8468H45.6499V49.1367ZM45.6499 43.7474V43.0372H46.4282V43.1345C46.4217 43.1345 46.399 43.1345 46.3601 43.1345C46.3211 43.1345 46.3017 43.1345 46.3017 43.1345C46.1331 43.1345 45.9872 43.1961 45.8639 43.3193C45.7472 43.4361 45.6856 43.5788 45.6791 43.7474H45.6499Z" fill="#BC1823"/>
<path d="M34.5904 40.9292V39.6669C35.5319 39.648 36.2855 39.5818 36.8533 39.4704C37.4252 39.3608 37.863 39.1718 38.1665 38.9035C38.4679 38.637 38.6744 38.261 38.7859 37.7772C38.8953 37.2897 38.9511 36.6566 38.9511 35.88V20.3922C38.9511 19.6175 38.9056 18.992 38.8189 18.5177C38.7363 18.0396 38.565 17.6616 38.3069 17.3839C38.0529 17.108 37.6833 16.9209 37.2002 16.8245C36.7212 16.7244 36.0935 16.6507 35.3172 16.6053V15.343H37.8964H38.6255H39.3499H41.0884L41.6204 15.9252L42.2284 15.343H46.1692C49.4397 15.343 51.9793 15.8759 53.7921 16.9379C55.609 18.0018 56.5175 19.4984 56.5175 21.4278C56.5175 22.8904 56.0137 24.0865 55.0062 25.0181C54.0027 25.946 52.415 26.7094 50.2408 27.3084V27.4369C50.9883 27.5031 51.6407 27.5805 52.1982 27.6712C52.7536 27.7619 53.2491 27.8678 53.6847 27.9887C54.1183 28.1096 54.523 28.2589 54.8988 28.4347C55.2787 28.6123 55.6503 28.8107 56.0137 29.0318C58.1651 30.4283 59.2429 32.18 59.2429 34.2851C59.2429 35.4605 58.8837 36.5508 58.1693 37.558C57.459 38.5671 56.4618 39.357 55.1796 39.9314C54.7666 40.1336 54.3413 40.2943 53.9077 40.4152C53.4721 40.5361 52.9621 40.6382 52.3799 40.7175C51.8017 40.7931 51.1286 40.8498 50.3647 40.8838C49.6049 40.9141 48.7047 40.9292 47.6641 40.9292H34.5904ZM47.7714 39.5006C52.1486 39.5006 54.3372 37.7848 54.3372 34.3531C54.3372 31.8493 53.214 30.0976 50.9676 29.0998C50.5753 28.9449 50.1995 28.8107 49.8361 28.6992C49.4728 28.5896 49.0474 28.5065 48.5643 28.4498C48.0853 28.395 47.5113 28.3572 46.8465 28.3364C46.1796 28.3175 45.3619 28.3062 44.3936 28.3062H42.7584V35.7137C42.7584 37.0648 43.1424 38.0342 43.9146 38.6238C44.6909 39.2096 45.9752 39.5006 47.7714 39.5006ZM44.79 26.6433C45.5436 26.6433 46.1734 26.6338 46.6813 26.613C47.1871 26.5885 47.6228 26.5488 47.9862 26.4921C48.3496 26.4373 48.6675 26.3598 48.9442 26.2578C49.225 26.1576 49.5099 26.0197 49.8031 25.842C50.5794 25.3999 51.1286 24.867 51.4549 24.2472C51.779 23.6273 51.9421 22.8186 51.9421 21.8208C51.9421 20.0729 51.4755 18.8181 50.5464 18.0566C49.6152 17.2913 48.1555 16.9077 46.1692 16.9077H43.5964C43.1835 16.9077 42.1165 18.1158 42.2664 18.5177V20.3922L42.3804 26.6433H44.79Z" fill="white"/>
<path d="M32.1608 6.59139C31.8277 6.01783 31.516 5.54758 31.2274 5.18064C30.937 4.81549 30.6431 4.52336 30.3439 4.30427C30.0482 4.08161 29.7347 3.93199 29.4034 3.85539C29.0703 3.77524 28.6713 3.73427 28.2064 3.73427V2.47314H38.673V3.73427C37.5651 3.73427 36.7849 3.81799 36.3289 3.98364C35.8729 4.15108 35.6449 4.44499 35.6449 4.86714C35.6449 5.32849 35.9014 5.99111 36.4144 6.85502L41.5658 15.6615H41.694L45.4489 9.34877C46.1614 8.15177 46.6637 7.21127 46.9594 6.52727C47.2586 5.83971 47.4083 5.28574 47.4083 4.86714C47.4083 4.44499 47.2462 4.15108 46.9238 3.98364C46.6049 3.81799 46.0474 3.73427 45.2494 3.73427V2.47314H52.8589V3.73427C52.3922 3.73427 51.9772 3.80196 51.612 3.93377C51.2504 4.06736 50.871 4.33277 50.472 4.73177C50.073 5.13077 49.633 5.68474 49.1539 6.39189C48.6783 7.10083 48.0958 8.03064 47.4083 9.18489L42.2925 17.8204V21.7819C42.2925 22.8649 42.3299 23.7341 42.4065 24.3896C42.4867 25.0416 42.6523 25.5439 42.9053 25.9001C43.1618 26.2528 43.5269 26.4897 44.0025 26.6126C44.4817 26.7373 45.1211 26.7979 45.9191 26.7979V28.059H35.1461V26.7979C35.9441 26.7979 36.58 26.7373 37.0556 26.6126C37.5348 26.4897 37.9 26.2564 38.1529 25.9144C38.4094 25.5724 38.5804 25.0932 38.6659 24.4751C38.755 23.8535 38.8013 23.0323 38.8013 22.0099V17.9558L32.1608 6.59139Z" fill="white"/>
<path d="M1.7913 57.0996C1.64133 57.0996 1.49791 57.0771 1.36106 57.0322C1.22421 56.9853 1.11642 56.9253 1.03769 56.8522L1.14173 56.6329C1.21672 56.6985 1.31232 56.7528 1.42855 56.7959C1.54478 56.8391 1.6657 56.8606 1.7913 56.8606C1.90565 56.8606 1.99845 56.8475 2.06969 56.8213C2.14092 56.795 2.19341 56.7594 2.22716 56.7144C2.2609 56.6675 2.27777 56.615 2.27777 56.5569C2.27777 56.4894 2.25528 56.4351 2.21028 56.3938C2.16717 56.3526 2.10999 56.3198 2.03875 56.2954C1.96939 56.2692 1.89253 56.2467 1.80817 56.2279C1.72381 56.2092 1.63851 56.1876 1.55228 56.1633C1.46792 56.137 1.39012 56.1042 1.31888 56.0648C1.24952 56.0255 1.19328 55.973 1.15016 55.9074C1.10705 55.8399 1.08549 55.7536 1.08549 55.6487C1.08549 55.5474 1.11173 55.4546 1.16422 55.3703C1.21859 55.284 1.30107 55.2156 1.41168 55.165C1.52416 55.1125 1.66663 55.0863 1.8391 55.0863C1.95346 55.0863 2.06687 55.1013 2.17935 55.1313C2.29183 55.1612 2.38931 55.2044 2.4718 55.2606L2.379 55.4856C2.29464 55.4293 2.2056 55.389 2.11186 55.3646C2.01813 55.3384 1.92721 55.3253 1.8391 55.3253C1.7285 55.3253 1.63758 55.3393 1.56634 55.3675C1.4951 55.3956 1.44261 55.4331 1.40887 55.4799C1.377 55.5268 1.36106 55.5793 1.36106 55.6374C1.36106 55.7068 1.38262 55.7621 1.42574 55.8033C1.47073 55.8446 1.52791 55.8774 1.59727 55.9017C1.66851 55.9261 1.74631 55.9486 1.83067 55.9692C1.91503 55.988 1.99939 56.0095 2.08374 56.0339C2.16998 56.0583 2.24778 56.0901 2.31714 56.1295C2.38838 56.1689 2.44555 56.2214 2.48867 56.287C2.53179 56.3526 2.55335 56.437 2.55335 56.5401C2.55335 56.6394 2.52616 56.7322 2.4718 56.8184C2.41743 56.9028 2.33307 56.9712 2.21872 57.0237C2.10624 57.0743 1.96377 57.0996 1.7913 57.0996ZM5.11814 57.0996C4.96817 57.0996 4.82851 57.0743 4.69916 57.0237C4.57168 56.9731 4.46108 56.9028 4.36734 56.8128C4.27361 56.721 4.2005 56.6141 4.14801 56.4923C4.09552 56.3704 4.06927 56.2373 4.06927 56.093C4.06927 55.9486 4.09552 55.8155 4.14801 55.6937C4.2005 55.5718 4.27361 55.4659 4.36734 55.3759C4.46108 55.284 4.57168 55.2128 4.69916 55.1622C4.82663 55.1116 4.9663 55.0863 5.11814 55.0863C5.26812 55.0863 5.4059 55.1116 5.53151 55.1622C5.65898 55.2109 5.76959 55.2812 5.86332 55.3731C5.95893 55.4631 6.03204 55.569 6.08266 55.6908C6.13515 55.8127 6.16139 55.9467 6.16139 56.093C6.16139 56.2392 6.13515 56.3732 6.08266 56.4951C6.03204 56.6169 5.95893 56.7238 5.86332 56.8156C5.76959 56.9056 5.65898 56.9759 5.53151 57.0265C5.4059 57.0753 5.26812 57.0996 5.11814 57.0996ZM5.11814 56.8494C5.22687 56.8494 5.32717 56.8306 5.41903 56.7931C5.51276 56.7556 5.59337 56.7032 5.66086 56.6357C5.73022 56.5663 5.78365 56.4857 5.82114 56.3938C5.86051 56.302 5.88019 56.2017 5.88019 56.093C5.88019 55.9842 5.86051 55.8839 5.82114 55.7921C5.78365 55.7002 5.73022 55.6205 5.66086 55.5531C5.59337 55.4837 5.51276 55.4303 5.41903 55.3928C5.32717 55.3553 5.22687 55.3365 5.11814 55.3365C5.00754 55.3365 4.90537 55.3553 4.81164 55.3928C4.71978 55.4303 4.63917 55.4837 4.56981 55.5531C4.50044 55.6205 4.44608 55.7002 4.40671 55.7921C4.36922 55.8839 4.35047 55.9842 4.35047 56.093C4.35047 56.2017 4.36922 56.302 4.40671 56.3938C4.44608 56.4857 4.50044 56.5663 4.56981 56.6357C4.63917 56.7032 4.71978 56.7556 4.81164 56.7931C4.90537 56.8306 5.00754 56.8494 5.11814 56.8494ZM8.73673 57.0996C8.58676 57.0996 8.44804 57.0753 8.32056 57.0265C8.19496 56.9759 8.08529 56.9056 7.99156 56.8156C7.8997 56.7238 7.82752 56.6169 7.77503 56.4951C7.72254 56.3732 7.6963 56.2392 7.6963 56.093C7.6963 55.9467 7.72254 55.8127 7.77503 55.6908C7.82752 55.569 7.90064 55.4631 7.99437 55.3731C8.0881 55.2812 8.19777 55.2109 8.32337 55.1622C8.45085 55.1116 8.58957 55.0863 8.73955 55.0863C8.89139 55.0863 9.03105 55.1125 9.15853 55.165C9.28788 55.2156 9.39755 55.2915 9.48753 55.3928L9.30475 55.5699C9.22977 55.4912 9.14541 55.4331 9.05168 55.3956C8.95794 55.3562 8.85765 55.3365 8.75079 55.3365C8.64019 55.3365 8.53708 55.3553 8.44147 55.3928C8.34774 55.4303 8.26619 55.4828 8.19683 55.5502C8.12747 55.6177 8.0731 55.6983 8.03374 55.7921C7.99624 55.8839 7.9775 55.9842 7.9775 56.093C7.9775 56.2017 7.99624 56.3029 8.03374 56.3966C8.0731 56.4885 8.12747 56.5682 8.19683 56.6357C8.26619 56.7032 8.34774 56.7556 8.44147 56.7931C8.53708 56.8306 8.64019 56.8494 8.75079 56.8494C8.85765 56.8494 8.95794 56.8306 9.05168 56.7931C9.14541 56.7538 9.22977 56.6938 9.30475 56.6132L9.48753 56.7903C9.39755 56.8916 9.28788 56.9684 9.15853 57.0209C9.03105 57.0734 8.89046 57.0996 8.73673 57.0996ZM11.1541 57.0771V55.1088H11.4353V57.0771H11.1541ZM13.5459 55.958H14.5582V56.197H13.5459V55.958ZM13.5712 56.8325H14.7185V57.0771H13.29V55.1088H14.6791V55.3534H13.5712V56.8325ZM16.4392 57.0771V55.1088H17.2687C17.4787 55.1088 17.6633 55.15 17.8227 55.2325C17.9839 55.315 18.1086 55.4303 18.1967 55.5784C18.2867 55.7265 18.3317 55.898 18.3317 56.093C18.3317 56.2879 18.2867 56.4594 18.1967 56.6075C18.1086 56.7556 17.9839 56.8709 17.8227 56.9534C17.6633 57.0359 17.4787 57.0771 17.2687 57.0771H16.4392ZM16.7204 56.8325H17.2519C17.4149 56.8325 17.5555 56.8016 17.6736 56.7397C17.7936 56.6778 17.8864 56.5916 17.952 56.481C18.0176 56.3685 18.0505 56.2392 18.0505 56.093C18.0505 55.9449 18.0176 55.8155 17.952 55.7049C17.8864 55.5943 17.7936 55.5081 17.6736 55.4462C17.5555 55.3843 17.4149 55.3534 17.2519 55.3534H16.7204V56.8325ZM19.7022 57.0771L20.5936 55.1088H20.872L21.7662 57.0771H21.471L20.6752 55.2662H20.7877L19.9919 57.0771H19.7022ZM20.0819 56.5851L20.1578 56.3601H21.2657L21.3472 56.5851H20.0819ZM23.3253 57.0771V55.1088H24.1548C24.3648 55.1088 24.5494 55.15 24.7088 55.2325C24.87 55.315 24.9946 55.4303 25.0828 55.5784C25.1727 55.7265 25.2177 55.898 25.2177 56.093C25.2177 56.2879 25.1727 56.4594 25.0828 56.6075C24.9946 56.7556 24.87 56.8709 24.7088 56.9534C24.5494 57.0359 24.3648 57.0771 24.1548 57.0771H23.3253ZM23.6065 56.8325H24.1379C24.301 56.8325 24.4416 56.8016 24.5597 56.7397C24.6797 56.6778 24.7725 56.5916 24.8381 56.481C24.9037 56.3685 24.9365 56.2392 24.9365 56.093C24.9365 55.9449 24.9037 55.8155 24.8381 55.7049C24.7725 55.5943 24.6797 55.5081 24.5597 55.4462C24.4416 55.3843 24.301 55.3534 24.1379 55.3534H23.6065V56.8325ZM29.823 57.0996C29.6712 57.0996 29.5315 57.0753 29.404 57.0265C29.2765 56.9759 29.1659 56.9056 29.0722 56.8156C28.9785 56.7238 28.9054 56.6169 28.8529 56.4951C28.8004 56.3732 28.7741 56.2392 28.7741 56.093C28.7741 55.9467 28.8004 55.8127 28.8529 55.6908C28.9054 55.569 28.9785 55.4631 29.0722 55.3731C29.1678 55.2812 29.2793 55.2109 29.4068 55.1622C29.5343 55.1116 29.6749 55.0863 29.8286 55.0863C29.9842 55.0863 30.1267 55.1116 30.256 55.1622C30.3854 55.2128 30.4951 55.2887 30.585 55.39L30.4107 55.5643C30.3301 55.4856 30.242 55.4284 30.1464 55.3928C30.0526 55.3553 29.9505 55.3365 29.8399 55.3365C29.7274 55.3365 29.6224 55.3553 29.5249 55.3928C29.4293 55.4303 29.3459 55.4828 29.2747 55.5502C29.2053 55.6177 29.1509 55.6983 29.1116 55.7921C29.0741 55.8839 29.0553 55.9842 29.0553 56.093C29.0553 56.1998 29.0741 56.3001 29.1116 56.3938C29.1509 56.4857 29.2053 56.5663 29.2747 56.6357C29.3459 56.7032 29.4293 56.7556 29.5249 56.7931C29.6205 56.8306 29.7246 56.8494 29.8371 56.8494C29.942 56.8494 30.0423 56.8334 30.1379 56.8016C30.2354 56.7678 30.3254 56.7125 30.4079 56.6357L30.5682 56.8494C30.4707 56.9319 30.3563 56.9947 30.2251 57.0378C30.0958 57.079 29.9617 57.0996 29.823 57.0996ZM30.2982 56.8128V56.0817H30.5682V56.8494L30.2982 56.8128ZM32.6278 55.958H33.6402V56.197H32.6278V55.958ZM32.6532 56.8325H33.8004V57.0771H32.372V55.1088H33.7611V55.3534H32.6532V56.8325ZM36.0948 57.0996C35.9448 57.0996 35.8014 57.0771 35.6646 57.0322C35.5277 56.9853 35.4199 56.9253 35.3412 56.8522L35.4452 56.6329C35.5202 56.6985 35.6158 56.7528 35.7321 56.7959C35.8483 56.8391 35.9692 56.8606 36.0948 56.8606C36.2092 56.8606 36.302 56.8475 36.3732 56.8213C36.4444 56.795 36.4969 56.7594 36.5307 56.7144C36.5644 56.6675 36.5813 56.615 36.5813 56.5569C36.5813 56.4894 36.5588 56.4351 36.5138 56.3938C36.4707 56.3526 36.4135 56.3198 36.3423 56.2954C36.2729 56.2692 36.196 56.2467 36.1117 56.2279C36.0273 56.2092 35.942 56.1876 35.8558 56.1633C35.7714 56.137 35.6936 56.1042 35.6224 56.0648C35.553 56.0255 35.4968 55.973 35.4537 55.9074C35.4106 55.8399 35.389 55.7536 35.389 55.6487C35.389 55.5474 35.4152 55.4546 35.4677 55.3703C35.5221 55.284 35.6046 55.2156 35.7152 55.165C35.8277 55.1125 35.9701 55.0863 36.1426 55.0863C36.257 55.0863 36.3704 55.1013 36.4829 55.1313C36.5953 55.1612 36.6928 55.2044 36.7753 55.2606L36.6825 55.4856C36.5982 55.4293 36.5091 55.389 36.4154 55.3646C36.3216 55.3384 36.2307 55.3253 36.1426 55.3253C36.032 55.3253 35.9411 55.3393 35.8698 55.3675C35.7986 55.3956 35.7461 55.4331 35.7124 55.4799C35.6805 55.5268 35.6646 55.5793 35.6646 55.6374C35.6646 55.7068 35.6861 55.7621 35.7292 55.8033C35.7742 55.8446 35.8314 55.8774 35.9008 55.9017C35.972 55.9261 36.0498 55.9486 36.1342 55.9692C36.2185 55.988 36.3029 56.0095 36.3873 56.0339C36.4735 56.0583 36.5513 56.0901 36.6206 56.1295C36.6919 56.1689 36.7491 56.2214 36.7922 56.287C36.8353 56.3526 36.8569 56.437 36.8569 56.5401C36.8569 56.6394 36.8297 56.7322 36.7753 56.8184C36.7209 56.9028 36.6366 56.9712 36.5222 57.0237C36.4097 57.0743 36.2673 57.0996 36.0948 57.0996ZM38.8965 57.0771V55.3534H38.2216V55.1088H39.8497V55.3534H39.1749V57.0771H38.8965ZM42.2825 57.0996C42.1325 57.0996 41.9929 57.0743 41.8635 57.0237C41.7361 56.9731 41.6255 56.9028 41.5317 56.8128C41.438 56.721 41.3649 56.6141 41.3124 56.4923C41.2599 56.3704 41.2337 56.2373 41.2337 56.093C41.2337 55.9486 41.2599 55.8155 41.3124 55.6937C41.3649 55.5718 41.438 55.4659 41.5317 55.3759C41.6255 55.284 41.7361 55.2128 41.8635 55.1622C41.991 55.1116 42.1307 55.0863 42.2825 55.0863C42.4325 55.0863 42.5703 55.1116 42.6959 55.1622C42.8234 55.2109 42.934 55.2812 43.0277 55.3731C43.1233 55.4631 43.1964 55.569 43.247 55.6908C43.2995 55.8127 43.3258 55.9467 43.3258 56.093C43.3258 56.2392 43.2995 56.3732 43.247 56.4951C43.1964 56.6169 43.1233 56.7238 43.0277 56.8156C42.934 56.9056 42.8234 56.9759 42.6959 57.0265C42.5703 57.0753 42.4325 57.0996 42.2825 57.0996ZM42.2825 56.8494C42.3913 56.8494 42.4915 56.8306 42.5834 56.7931C42.6771 56.7556 42.7577 56.7032 42.8252 56.6357C42.8946 56.5663 42.948 56.4857 42.9855 56.3938C43.0249 56.302 43.0446 56.2017 43.0446 56.093C43.0446 55.9842 43.0249 55.8839 42.9855 55.7921C42.948 55.7002 42.8946 55.6205 42.8252 55.5531C42.7577 55.4837 42.6771 55.4303 42.5834 55.3928C42.4915 55.3553 42.3913 55.3365 42.2825 55.3365C42.1719 55.3365 42.0697 55.3553 41.976 55.3928C41.8842 55.4303 41.8035 55.4837 41.7342 55.5531C41.6648 55.6205 41.6105 55.7002 41.5711 55.7921C41.5336 55.8839 41.5148 55.9842 41.5148 56.093C41.5148 56.2017 41.5336 56.302 41.5711 56.3938C41.6105 56.4857 41.6648 56.5663 41.7342 56.6357C41.8035 56.7032 41.8842 56.7556 41.976 56.7931C42.0697 56.8306 42.1719 56.8494 42.2825 56.8494ZM45.021 57.0771V55.1088H45.7886C45.9611 55.1088 46.1083 55.1359 46.2301 55.1903C46.352 55.2447 46.4457 55.3234 46.5113 55.4265C46.5769 55.5296 46.6097 55.6524 46.6097 55.7949C46.6097 55.9374 46.5769 56.0601 46.5113 56.1633C46.4457 56.2645 46.352 56.3423 46.2301 56.3966C46.1083 56.451 45.9611 56.4782 45.7886 56.4782H45.1756L45.3022 56.3488V57.0771H45.021ZM46.337 57.0771L45.8364 56.3629H46.1373L46.6435 57.0771H46.337ZM45.3022 56.377L45.1756 56.2392H45.7802C45.9602 56.2392 46.0961 56.2007 46.1879 56.1239C46.2817 56.0451 46.3285 55.9355 46.3285 55.7949C46.3285 55.6543 46.2817 55.5456 46.1879 55.4687C46.0961 55.3918 45.9602 55.3534 45.7802 55.3534H45.1756L45.3022 55.2128V56.377ZM48.0314 57.0771L48.9228 55.1088H49.2012L50.0954 57.0771H49.8001L49.0043 55.2662H49.1168L48.321 57.0771H48.0314ZM48.411 56.5851L48.4869 56.3601H49.5948L49.6764 56.5851H48.411ZM53.675 57.0771V55.1088H54.5045C54.7145 55.1088 54.8991 55.15 55.0585 55.2325C55.2197 55.315 55.3443 55.4303 55.4325 55.5784C55.5224 55.7265 55.5674 55.898 55.5674 56.093C55.5674 56.2879 55.5224 56.4594 55.4325 56.6075C55.3443 56.7556 55.2197 56.8709 55.0585 56.9534C54.8991 57.0359 54.7145 57.0771 54.5045 57.0771H53.675ZM53.9562 56.8325H54.4876C54.6507 56.8325 54.7913 56.8016 54.9094 56.7397C55.0294 56.6778 55.1222 56.5916 55.1878 56.481C55.2534 56.3685 55.2862 56.2392 55.2862 56.093C55.2862 55.9449 55.2534 55.8155 55.1878 55.7049C55.1222 55.5943 55.0294 55.5081 54.9094 55.4462C54.7913 55.3843 54.6507 55.3534 54.4876 55.3534H53.9562V56.8325ZM57.5194 55.958H58.5318V56.197H57.5194V55.958ZM57.5447 56.8325H58.692V57.0771H57.2635V55.1088H58.6527V55.3534H57.5447V56.8325ZM62.4333 57.0771V55.1088H62.7145V57.0771H62.4333ZM64.5692 57.0771V55.1088H64.7998L66.1018 56.7256H65.9808V55.1088H66.262V57.0771H66.0315L64.7295 55.4603H64.8504V57.0771H64.5692ZM68.6654 57.0771L67.7993 55.1088H68.103L68.8988 56.9253H68.7245L69.5259 55.1088H69.8071L68.9438 57.0771H68.6654ZM71.5794 55.958H72.5917V56.197H71.5794V55.958ZM71.6047 56.8325H72.752V57.0771H71.3235V55.1088H72.7126V55.3534H71.6047V56.8325ZM74.4727 57.0771V55.1088H75.2404C75.4128 55.1088 75.56 55.1359 75.6818 55.1903C75.8037 55.2447 75.8974 55.3234 75.963 55.4265C76.0287 55.5296 76.0615 55.6524 76.0615 55.7949C76.0615 55.9374 76.0287 56.0601 75.963 56.1633C75.8974 56.2645 75.8037 56.3423 75.6818 56.3966C75.56 56.451 75.4128 56.4782 75.2404 56.4782H74.6273L74.7539 56.3488V57.0771H74.4727ZM75.7887 57.0771L75.2882 56.3629H75.589L76.0952 57.0771H75.7887ZM74.7539 56.377L74.6273 56.2392H75.2319C75.4119 56.2392 75.5478 56.2007 75.6397 56.1239C75.7334 56.0451 75.7803 55.9355 75.7803 55.7949C75.7803 55.6543 75.7334 55.5456 75.6397 55.4687C75.5478 55.3918 75.4119 55.3534 75.2319 55.3534H74.6273L74.7539 55.2128V56.377ZM78.3548 57.0996C78.2048 57.0996 78.0614 57.0771 77.9246 57.0322C77.7877 56.9853 77.6799 56.9253 77.6012 56.8522L77.7052 56.6329C77.7802 56.6985 77.8758 56.7528 77.9921 56.7959C78.1083 56.8391 78.2292 56.8606 78.3548 56.8606C78.4692 56.8606 78.562 56.8475 78.6332 56.8213C78.7044 56.795 78.7569 56.7594 78.7907 56.7144C78.8244 56.6675 78.8413 56.615 78.8413 56.5569C78.8413 56.4894 78.8188 56.4351 78.7738 56.3938C78.7307 56.3526 78.6735 56.3198 78.6023 56.2954C78.5329 56.2692 78.456 56.2467 78.3717 56.2279C78.2873 56.2092 78.202 56.1876 78.1158 56.1633C78.0314 56.137 77.9536 56.1042 77.8824 56.0648C77.813 56.0255 77.7568 55.973 77.7137 55.9074C77.6706 55.8399 77.649 55.7536 77.649 55.6487C77.649 55.5474 77.6752 55.4546 77.7277 55.3703C77.7821 55.284 77.8646 55.2156 77.9752 55.165C78.0877 55.1125 78.2301 55.0863 78.4026 55.0863C78.517 55.0863 78.6304 55.1013 78.7429 55.1313C78.8553 55.1612 78.9528 55.2044 79.0353 55.2606L78.9425 55.4856C78.8582 55.4293 78.7691 55.389 78.6754 55.3646C78.5816 55.3384 78.4907 55.3253 78.4026 55.3253C78.292 55.3253 78.2011 55.3393 78.1299 55.3675C78.0586 55.3956 78.0061 55.4331 77.9724 55.4799C77.9405 55.5268 77.9246 55.5793 77.9246 55.6374C77.9246 55.7068 77.9461 55.7621 77.9893 55.8033C78.0342 55.8446 78.0914 55.8774 78.1608 55.9017C78.232 55.9261 78.3098 55.9486 78.3942 55.9692C78.4785 55.988 78.5629 56.0095 78.6473 56.0339C78.7335 56.0583 78.8113 56.0901 78.8807 56.1295C78.9519 56.1689 79.0091 56.2214 79.0522 56.287C79.0953 56.3526 79.1169 56.437 79.1169 56.5401C79.1169 56.6394 79.0897 56.7322 79.0353 56.8184C78.9809 56.9028 78.8966 56.9712 78.7822 57.0237C78.6698 57.0743 78.5273 57.0996 78.3548 57.0996ZM80.7931 57.0771V55.1088H81.0743V57.0771H80.7931ZM83.8176 57.0996C83.6676 57.0996 83.5279 57.0743 83.3986 57.0237C83.2711 56.9731 83.1605 56.9028 83.0668 56.8128C82.973 56.721 82.8999 56.6141 82.8474 56.4923C82.7949 56.3704 82.7687 56.2373 82.7687 56.093C82.7687 55.9486 82.7949 55.8155 82.8474 55.6937C82.8999 55.5718 82.973 55.4659 83.0668 55.3759C83.1605 55.284 83.2711 55.2128 83.3986 55.1622C83.5261 55.1116 83.6657 55.0863 83.8176 55.0863C83.9675 55.0863 84.1053 55.1116 84.2309 55.1622C84.3584 55.2109 84.469 55.2812 84.5627 55.3731C84.6583 55.4631 84.7315 55.569 84.7821 55.6908C84.8346 55.8127 84.8608 55.9467 84.8608 56.093C84.8608 56.2392 84.8346 56.3732 84.7821 56.4951C84.7315 56.6169 84.6583 56.7238 84.5627 56.8156C84.469 56.9056 84.3584 56.9759 84.2309 57.0265C84.1053 57.0753 83.9675 57.0996 83.8176 57.0996ZM83.8176 56.8494C83.9263 56.8494 84.0266 56.8306 84.1184 56.7931C84.2122 56.7556 84.2928 56.7032 84.3603 56.6357C84.4296 56.5663 84.4831 56.4857 84.5206 56.3938C84.5599 56.302 84.5796 56.2017 84.5796 56.093C84.5796 55.9842 84.5599 55.8839 84.5206 55.7921C84.4831 55.7002 84.4296 55.6205 84.3603 55.5531C84.2928 55.4837 84.2122 55.4303 84.1184 55.3928C84.0266 55.3553 83.9263 55.3365 83.8176 55.3365C83.707 55.3365 83.6048 55.3553 83.5111 55.3928C83.4192 55.4303 83.3386 55.4837 83.2692 55.5531C83.1999 55.6205 83.1455 55.7002 83.1061 55.7921C83.0686 55.8839 83.0499 55.9842 83.0499 56.093C83.0499 56.2017 83.0686 56.302 83.1061 56.3938C83.1455 56.4857 83.1999 56.5663 83.2692 56.6357C83.3386 56.7032 83.4192 56.7556 83.5111 56.7931C83.6048 56.8306 83.707 56.8494 83.8176 56.8494ZM83.7754 54.9485L83.303 54.5829H83.646L84.0285 54.9485H83.7754ZM86.556 57.0771V55.1088H86.7866L88.0885 56.7256H87.9676V55.1088H88.2488V57.0771H88.0182L86.7163 55.4603H86.8372V57.0771H86.556Z" fill="white"/>
</svg>
