<svg width="408" height="309" viewBox="0 0 408 309" fill="none" xmlns="http://www.w3.org/2000/svg">
<path d="M167.384 187.42V181.832C171.512 181.748 174.816 181.455 177.306 180.962C179.813 180.476 181.732 179.64 183.063 178.452C184.385 177.272 185.29 175.607 185.779 173.466C186.258 171.307 186.503 168.505 186.503 165.066V96.499C186.503 93.069 186.304 90.2999 185.924 88.2C185.561 86.0835 184.81 84.4103 183.679 83.1805C182.565 81.959 180.945 81.1308 178.826 80.7042C176.726 80.2608 173.974 79.9345 170.571 79.7337V74.1453H181.879H185.076H188.252H195.874L198.206 76.7226L200.872 74.1453H218.15C232.489 74.1453 243.623 76.5045 251.571 81.2061C259.538 85.9161 263.521 92.542 263.521 101.084C263.521 107.559 261.312 112.854 256.894 116.979C252.495 121.087 245.534 124.466 236.001 127.118V127.687C239.278 127.98 242.139 128.323 244.583 128.725C247.018 129.126 249.191 129.595 251.101 130.13C253.002 130.666 254.776 131.326 256.424 132.104C258.089 132.891 259.719 133.769 261.312 134.748C270.744 140.931 275.47 148.686 275.47 158.005C275.47 163.209 273.895 168.036 270.763 172.495C267.648 176.963 263.276 180.46 257.655 183.003C255.844 183.898 253.979 184.609 252.078 185.145C250.168 185.68 247.932 186.132 245.38 186.483C242.845 186.818 239.894 187.069 236.544 187.219C233.213 187.353 229.266 187.42 224.704 187.42H167.384ZM225.175 181.095C244.366 181.095 253.961 173.499 253.961 158.307C253.961 147.222 249.037 139.466 239.188 135.049C237.468 134.363 235.82 133.769 234.227 133.276C232.634 132.79 230.769 132.422 228.651 132.171C226.551 131.929 224.034 131.761 221.119 131.669C218.195 131.586 214.611 131.536 210.365 131.536H203.196V164.33C203.196 170.312 204.879 174.603 208.265 177.214C211.669 179.807 217.299 181.095 225.175 181.095ZM212.103 124.174C215.407 124.174 218.168 124.132 220.395 124.04C222.613 123.931 224.523 123.755 226.116 123.504C227.709 123.262 229.103 122.919 230.316 122.467C231.548 122.024 232.797 121.413 234.082 120.626C237.486 118.669 239.894 116.31 241.324 113.566C242.745 110.822 243.461 107.241 243.461 102.824C243.461 95.0852 241.415 89.5302 237.341 86.1587C233.258 82.7705 226.858 81.0723 218.15 81.0723H206.87C205.059 81.0723 200.381 86.4211 201.039 88.2V96.499L201.538 124.174H212.103Z" fill="black"/>
<path d="M156.737 35.4001C155.277 32.8608 153.91 30.779 152.645 29.1545C151.372 27.5378 150.083 26.2445 148.771 25.2746C147.475 24.2888 146.101 23.6264 144.648 23.2873C143.188 22.9325 141.438 22.7511 139.4 22.7511V17.1678H185.289V22.7511C180.432 22.7511 177.011 23.1217 175.012 23.8551C173.013 24.5964 172.013 25.8976 172.013 27.7665C172.013 29.809 173.138 32.7425 175.387 36.5672L197.972 75.5552H198.535L214.997 47.6075C218.121 42.3082 220.323 38.1444 221.62 35.1162C222.932 32.0722 223.588 29.6197 223.588 27.7665C223.588 25.8976 222.877 24.5964 221.464 23.8551C220.066 23.1217 217.621 22.7511 214.123 22.7511V17.1678H247.485V22.7511C245.439 22.7511 243.62 23.0507 242.019 23.6343C240.433 24.2258 238.77 25.4008 237.02 27.1672C235.271 28.9336 233.342 31.3862 231.241 34.5169C229.156 37.6555 226.602 41.7719 223.588 46.882L201.159 85.113V102.651C201.159 107.446 201.323 111.294 201.658 114.196C202.01 117.083 202.736 119.306 203.845 120.884C204.97 122.445 206.571 123.494 208.656 124.038C210.757 124.59 213.56 124.858 217.059 124.858V130.441H169.826V124.858C173.325 124.858 176.113 124.59 178.198 124.038C180.299 123.494 181.9 122.461 183.009 120.947C184.134 119.433 184.883 117.311 185.258 114.575C185.649 111.823 185.852 108.187 185.852 103.661V85.7123L156.737 35.4001Z" fill="black"/>
<path d="M84.619 250.028L84.0967 256.86C83.3424 258.107 82.385 259.224 81.2245 260.211C80.0931 261.168 78.744 261.937 77.1773 262.517C75.6397 263.069 73.8699 263.344 71.8681 263.344C68.8508 263.315 66.1672 262.648 63.8172 261.342C61.4672 260.037 59.6249 258.209 58.2904 255.859C56.9848 253.48 56.332 250.68 56.332 247.46C56.332 244.298 56.9848 241.541 58.2904 239.191C59.5959 236.812 61.4237 234.97 63.7737 233.665C66.1527 232.33 68.9379 231.663 72.1292 231.663C74.2761 231.663 76.2054 231.953 77.9171 232.533C79.6579 233.084 81.1665 233.781 82.443 234.622L83.3134 240.758H82.9217C82.2835 238.205 80.9779 236.276 79.0051 234.97C77.0323 233.636 74.7403 232.968 72.1292 232.968C69.5761 232.968 67.3567 233.578 65.4709 234.796C63.6141 235.986 62.1635 237.668 61.1191 239.844C60.1036 241.991 59.5959 244.515 59.5959 247.416C59.5959 250.318 60.1036 252.856 61.1191 255.032C62.1635 257.208 63.5996 258.905 65.4274 260.124C67.2842 261.342 69.4311 261.981 71.8681 262.039C73.928 262.039 75.8283 261.661 77.569 260.907C79.3387 260.124 80.8184 258.862 82.0079 257.121C83.1974 255.351 83.9517 252.987 84.2708 250.028H84.619ZM121.991 231.663L134.872 262.474H131.173L121.121 235.797L121.991 231.663ZM112.635 259.558C112.431 260.138 112.402 260.631 112.548 261.038C112.693 261.444 112.925 261.763 113.244 261.995C113.592 262.198 113.94 262.3 114.288 262.3H114.68V262.735H105.933V262.3C105.933 262.3 106.005 262.3 106.15 262.3C106.266 262.3 106.324 262.3 106.324 262.3C106.992 262.3 107.673 262.097 108.37 261.69C109.095 261.255 109.69 260.544 110.154 259.558H112.635ZM121.991 231.663L122.383 234.709L111.46 262.604H108.848L119.989 236.145C119.989 236.145 120.062 235.971 120.207 235.623C120.381 235.246 120.569 234.796 120.772 234.274C121.005 233.752 121.193 233.244 121.338 232.751C121.512 232.258 121.599 231.895 121.599 231.663H121.991ZM128.127 250.854V252.16H114.506V250.854H128.127ZM130.085 259.558H133.654C134.089 260.544 134.669 261.255 135.395 261.69C136.12 262.097 136.816 262.3 137.484 262.3C137.484 262.3 137.542 262.3 137.658 262.3C137.774 262.3 137.832 262.3 137.832 262.3V262.735H128.04V262.3H128.432C128.983 262.3 129.476 262.068 129.911 261.603C130.347 261.11 130.405 260.428 130.085 259.558ZM165.157 232.272H170.902C172.759 232.272 174.354 232.606 175.689 233.273C177.023 233.94 178.053 234.912 178.779 236.189C179.504 237.436 179.867 238.93 179.867 240.671C179.867 242.006 179.606 243.21 179.083 244.283C178.561 245.328 177.865 246.212 176.994 246.938C176.124 247.663 175.138 248.214 174.035 248.591C172.933 248.94 171.787 249.07 170.597 248.983C169.437 248.896 168.305 248.562 167.203 247.982V247.547C167.203 247.547 167.449 247.59 167.943 247.678C168.436 247.736 169.06 247.75 169.814 247.721C170.597 247.663 171.41 247.503 172.251 247.242C173.121 246.952 173.919 246.459 174.644 245.763C175.399 245.066 175.964 244.095 176.342 242.847C176.429 242.528 176.501 242.136 176.559 241.672C176.617 241.179 176.632 240.7 176.603 240.236C176.574 238.234 176.052 236.624 175.036 235.405C174.021 234.187 172.585 233.578 170.728 233.578H165.593C165.593 233.578 165.549 233.476 165.462 233.273C165.404 233.041 165.332 232.823 165.244 232.62C165.186 232.388 165.157 232.272 165.157 232.272ZM165.723 232.272V262.735H162.894V232.272H165.723ZM163.025 259.558V262.735H159.544V262.3C159.544 262.3 159.631 262.3 159.805 262.3C160.008 262.3 160.109 262.3 160.109 262.3C160.864 262.3 161.502 262.039 162.024 261.516C162.575 260.965 162.865 260.312 162.894 259.558H163.025ZM163.025 235.449H162.894C162.894 234.695 162.619 234.056 162.068 233.534C161.516 232.983 160.864 232.707 160.109 232.707C160.109 232.707 160.022 232.707 159.848 232.707C159.674 232.707 159.587 232.707 159.587 232.707L159.544 232.272H163.025V235.449ZM165.593 259.558H165.723C165.752 260.312 166.028 260.965 166.55 261.516C167.101 262.039 167.754 262.3 168.508 262.3C168.508 262.3 168.595 262.3 168.769 262.3C168.973 262.3 169.074 262.3 169.074 262.3V262.735H165.593V259.558ZM250.803 232.403V262.735H247.975V232.403H250.803ZM261.987 232.229V233.534H236.79V232.229H261.987ZM261.987 233.404V236.928L261.552 236.885V236.145C261.552 235.42 261.291 234.811 260.769 234.317C260.276 233.824 259.681 233.563 258.985 233.534V233.404H261.987ZM261.987 231.445V232.707L256.678 232.229C257.316 232.229 257.984 232.185 258.68 232.098C259.405 232.011 260.073 231.909 260.682 231.793C261.291 231.677 261.726 231.561 261.987 231.445ZM248.105 259.558V262.735H244.624V262.3C244.624 262.3 244.711 262.3 244.885 262.3C245.088 262.3 245.189 262.3 245.189 262.3C245.944 262.3 246.582 262.039 247.104 261.516C247.655 260.965 247.946 260.312 247.975 259.558H248.105ZM250.673 259.558H250.803C250.832 260.312 251.108 260.965 251.63 261.516C252.181 262.039 252.834 262.3 253.588 262.3C253.588 262.3 253.675 262.3 253.849 262.3C254.053 262.3 254.154 262.3 254.154 262.3V262.735H250.673V259.558ZM239.793 233.404V233.534C239.068 233.563 238.459 233.824 237.965 234.317C237.472 234.811 237.225 235.42 237.225 236.145V236.885L236.79 236.928V233.404H239.793ZM236.79 231.445C237.08 231.561 237.516 231.677 238.096 231.793C238.705 231.909 239.372 232.011 240.098 232.098C240.823 232.185 241.49 232.229 242.1 232.229L236.79 232.707V231.445ZM294.968 231.663L307.849 262.474H304.15L294.097 235.797L294.968 231.663ZM285.611 259.558C285.408 260.138 285.379 260.631 285.524 261.038C285.669 261.444 285.902 261.763 286.221 261.995C286.569 262.198 286.917 262.3 287.265 262.3H287.657V262.735H278.91V262.3C278.91 262.3 278.982 262.3 279.127 262.3C279.243 262.3 279.301 262.3 279.301 262.3C279.969 262.3 280.65 262.097 281.347 261.69C282.072 261.255 282.667 260.544 283.131 259.558H285.611ZM294.968 231.663L295.36 234.709L284.436 262.604H281.825L292.966 236.145C292.966 236.145 293.039 235.971 293.184 235.623C293.358 235.246 293.546 234.796 293.749 234.274C293.981 233.752 294.17 233.244 294.315 232.751C294.489 232.258 294.576 231.895 294.576 231.663H294.968ZM301.104 250.854V252.16H287.483V250.854H301.104ZM303.062 259.558H306.631C307.066 260.544 307.646 261.255 308.371 261.69C309.097 262.097 309.793 262.3 310.46 262.3C310.46 262.3 310.518 262.3 310.634 262.3C310.75 262.3 310.809 262.3 310.809 262.3V262.735H301.017V262.3H301.409C301.96 262.3 302.453 262.068 302.888 261.603C303.323 261.11 303.381 260.428 303.062 259.558ZM338.7 232.272V262.735H335.871V232.272H338.7ZM350.45 261.386V262.735H338.569V261.386H350.45ZM353.105 255.685L350.581 262.735H343.356L344.923 261.386C346.461 261.386 347.708 261.154 348.666 260.69C349.652 260.196 350.45 259.515 351.059 258.644C351.668 257.774 352.205 256.787 352.669 255.685H353.105ZM336.002 259.558V262.735H332.52V262.3C332.52 262.3 332.607 262.3 332.782 262.3C332.985 262.3 333.086 262.3 333.086 262.3C333.84 262.3 334.479 262.039 335.001 261.516C335.552 260.965 335.842 260.312 335.871 259.558H336.002ZM336.002 235.449H335.871C335.842 234.695 335.552 234.056 335.001 233.534C334.479 232.983 333.84 232.707 333.086 232.707C333.086 232.707 332.985 232.707 332.782 232.707C332.607 232.707 332.52 232.707 332.52 232.707V232.272H336.002V235.449ZM338.569 235.449V232.272H342.051V232.707C342.022 232.707 341.92 232.707 341.746 232.707C341.572 232.707 341.485 232.707 341.485 232.707C340.731 232.707 340.078 232.983 339.527 233.534C339.005 234.056 338.729 234.695 338.7 235.449H338.569Z" fill="black"/>
<path d="M210.423 232.272V262.735H207.594V232.272H210.423ZM207.725 259.558V262.735H204.243V262.3C204.243 262.3 204.33 262.3 204.504 262.3C204.708 262.3 204.809 262.3 204.809 262.3C205.563 262.3 206.202 262.039 206.724 261.516C207.275 260.965 207.565 260.312 207.594 259.558H207.725ZM207.725 235.449H207.594C207.565 234.695 207.275 234.056 206.724 233.534C206.202 232.983 205.563 232.707 204.809 232.707C204.809 232.707 204.708 232.707 204.504 232.707C204.33 232.707 204.243 232.707 204.243 232.707V232.272H207.725V235.449ZM210.292 259.558H210.423C210.452 260.312 210.728 260.965 211.25 261.516C211.801 262.039 212.454 262.3 213.208 262.3C213.208 262.3 213.295 262.3 213.469 262.3C213.643 262.3 213.745 262.3 213.774 262.3V262.735H210.292V259.558ZM210.292 235.449V232.272H213.774V232.707C213.745 232.707 213.643 232.707 213.469 232.707C213.295 232.707 213.208 232.707 213.208 232.707C212.454 232.707 211.801 232.983 211.25 233.534C210.728 234.056 210.452 234.695 210.423 235.449H210.292Z" fill="#82082D"/>
<path d="M14.087 291.604C13.4161 291.604 12.7746 291.503 12.1624 291.302C11.5502 291.092 11.0679 290.824 10.7157 290.497L11.1812 289.516C11.5166 289.809 11.9443 290.053 12.4643 290.245C12.9842 290.438 13.5251 290.535 14.087 290.535C14.5986 290.535 15.0137 290.476 15.3324 290.359C15.6511 290.241 15.8859 290.082 16.0368 289.881C16.1878 289.671 16.2633 289.436 16.2633 289.176C16.2633 288.874 16.1626 288.631 15.9614 288.447C15.7685 288.262 15.5127 288.115 15.194 288.006C14.8837 287.889 14.5399 287.788 14.1625 287.704C13.7851 287.621 13.4035 287.524 13.0178 287.415C12.6404 287.298 12.2923 287.151 11.9737 286.975C11.6634 286.799 11.4118 286.564 11.2189 286.27C11.026 285.968 10.9296 285.583 10.9296 285.113C10.9296 284.66 11.047 284.245 11.2818 283.868C11.525 283.482 11.894 283.176 12.3888 282.949C12.892 282.715 13.5293 282.597 14.3009 282.597C14.8124 282.597 15.3198 282.664 15.823 282.798C16.3262 282.933 16.7623 283.125 17.1313 283.377L16.7161 284.383C16.3388 284.132 15.9404 283.952 15.5211 283.842C15.1018 283.725 14.695 283.666 14.3009 283.666C13.8061 283.666 13.3993 283.729 13.0807 283.855C12.762 283.981 12.5272 284.149 12.3762 284.358C12.2336 284.568 12.1624 284.803 12.1624 285.063C12.1624 285.373 12.2588 285.62 12.4517 285.805C12.653 285.989 12.9087 286.136 13.219 286.245C13.5377 286.354 13.8857 286.455 14.2631 286.547C14.6405 286.631 15.0179 286.727 15.3953 286.836C15.7811 286.945 16.1291 287.088 16.4394 287.264C16.7581 287.44 17.0139 287.675 17.2067 287.969C17.3996 288.262 17.4961 288.639 17.4961 289.101C17.4961 289.545 17.3745 289.96 17.1313 290.346C16.8881 290.723 16.5107 291.03 15.9991 291.264C15.4959 291.491 14.8586 291.604 14.087 291.604ZM28.9698 291.604C28.2989 291.604 27.6741 291.491 27.0954 291.264C26.5251 291.038 26.0303 290.723 25.611 290.321C25.1917 289.91 24.8646 289.432 24.6298 288.887C24.395 288.342 24.2776 287.746 24.2776 287.101C24.2776 286.455 24.395 285.859 24.6298 285.314C24.8646 284.769 25.1917 284.295 25.611 283.893C26.0303 283.482 26.5251 283.163 27.0954 282.937C27.6657 282.71 28.2905 282.597 28.9698 282.597C29.6407 282.597 30.2571 282.71 30.8189 282.937C31.3892 283.155 31.884 283.469 32.3033 283.88C32.731 284.283 33.0581 284.757 33.2845 285.302C33.5194 285.847 33.6368 286.446 33.6368 287.101C33.6368 287.755 33.5194 288.354 33.2845 288.899C33.0581 289.445 32.731 289.923 32.3033 290.334C31.884 290.736 31.3892 291.051 30.8189 291.277C30.2571 291.495 29.6407 291.604 28.9698 291.604ZM28.9698 290.484C29.4562 290.484 29.9048 290.401 30.3158 290.233C30.7351 290.065 31.0957 289.83 31.3976 289.528C31.7079 289.218 31.9469 288.858 32.1146 288.447C32.2908 288.036 32.3788 287.587 32.3788 287.101C32.3788 286.614 32.2908 286.166 32.1146 285.755C31.9469 285.344 31.7079 284.987 31.3976 284.685C31.0957 284.375 30.7351 284.136 30.3158 283.968C29.9048 283.801 29.4562 283.717 28.9698 283.717C28.475 283.717 28.0179 283.801 27.5986 283.968C27.1877 284.136 26.8271 284.375 26.5168 284.685C26.2065 284.987 25.9633 285.344 25.7871 285.755C25.6194 286.166 25.5356 286.614 25.5356 287.101C25.5356 287.587 25.6194 288.036 25.7871 288.447C25.9633 288.858 26.2065 289.218 26.5168 289.528C26.8271 289.83 27.1877 290.065 27.5986 290.233C28.0179 290.401 28.475 290.484 28.9698 290.484ZM45.1576 291.604C44.4867 291.604 43.8661 291.495 43.2959 291.277C42.734 291.051 42.2434 290.736 41.8241 290.334C41.4131 289.923 41.0902 289.445 40.8554 288.899C40.6206 288.354 40.5032 287.755 40.5032 287.101C40.5032 286.446 40.6206 285.847 40.8554 285.302C41.0902 284.757 41.4173 284.283 41.8366 283.88C42.256 283.469 42.7466 283.155 43.3084 282.937C43.8787 282.71 44.4993 282.597 45.1702 282.597C45.8495 282.597 46.4743 282.715 47.0446 282.949C47.6232 283.176 48.1138 283.515 48.5164 283.968L47.6987 284.761C47.3632 284.409 46.9858 284.149 46.5665 283.981C46.1472 283.805 45.6985 283.717 45.2205 283.717C44.7257 283.717 44.2645 283.801 43.8368 283.968C43.4175 284.136 43.0527 284.371 42.7424 284.673C42.4321 284.975 42.1889 285.335 42.0127 285.755C41.845 286.166 41.7612 286.614 41.7612 287.101C41.7612 287.587 41.845 288.04 42.0127 288.459C42.1889 288.87 42.4321 289.227 42.7424 289.528C43.0527 289.83 43.4175 290.065 43.8368 290.233C44.2645 290.401 44.7257 290.484 45.2205 290.484C45.6985 290.484 46.1472 290.401 46.5665 290.233C46.9858 290.057 47.3632 289.788 47.6987 289.428L48.5164 290.22C48.1138 290.673 47.6232 291.017 47.0446 291.252C46.4743 291.487 45.8453 291.604 45.1576 291.604ZM55.9717 291.503V282.698H57.2296V291.503H55.9717ZM66.6714 286.497H71.2001V287.566H66.6714V286.497ZM66.7847 290.409H71.9171V291.503H65.5267V282.698H71.741V283.792H66.7847V290.409ZM79.6148 291.503V282.698H83.3257C84.265 282.698 85.0911 282.882 85.8039 283.251C86.5251 283.62 87.0828 284.136 87.477 284.799C87.8795 285.461 88.0808 286.228 88.0808 287.101C88.0808 287.973 87.8795 288.74 87.477 289.403C87.0828 290.065 86.5251 290.581 85.8039 290.95C85.0911 291.319 84.265 291.503 83.3257 291.503H79.6148ZM80.8727 290.409H83.2502C83.9799 290.409 84.6088 290.271 85.1372 289.994C85.6739 289.717 86.089 289.331 86.3825 288.837C86.6761 288.333 86.8228 287.755 86.8228 287.101C86.8228 286.438 86.6761 285.859 86.3825 285.365C86.089 284.87 85.6739 284.484 85.1372 284.207C84.6088 283.931 83.9799 283.792 83.2502 283.792H80.8727V290.409ZM94.2121 291.503L98.1998 282.698H99.4452L103.445 291.503H102.125L98.5646 283.402H99.0678L95.5078 291.503H94.2121ZM95.9103 289.302L96.25 288.296H101.206L101.571 289.302H95.9103ZM110.42 291.503V282.698H114.131C115.07 282.698 115.896 282.882 116.609 283.251C117.33 283.62 117.888 284.136 118.282 284.799C118.685 285.461 118.886 286.228 118.886 287.101C118.886 287.973 118.685 288.74 118.282 289.403C117.888 290.065 117.33 290.581 116.609 290.95C115.896 291.319 115.07 291.503 114.131 291.503H110.42ZM111.678 290.409H114.055C114.785 290.409 115.414 290.271 115.942 289.994C116.479 289.717 116.894 289.331 117.188 288.837C117.481 288.333 117.628 287.755 117.628 287.101C117.628 286.438 117.481 285.859 117.188 285.365C116.894 284.87 116.479 284.484 115.942 284.207C115.414 283.931 114.785 283.792 114.055 283.792H111.678V290.409ZM139.488 291.604C138.808 291.604 138.184 291.495 137.613 291.277C137.043 291.051 136.548 290.736 136.129 290.334C135.71 289.923 135.383 289.445 135.148 288.899C134.913 288.354 134.795 287.755 134.795 287.101C134.795 286.446 134.913 285.847 135.148 285.302C135.383 284.757 135.71 284.283 136.129 283.88C136.557 283.469 137.056 283.155 137.626 282.937C138.196 282.71 138.825 282.597 139.513 282.597C140.209 282.597 140.846 282.71 141.425 282.937C142.004 283.163 142.494 283.503 142.897 283.956L142.117 284.736C141.756 284.383 141.362 284.128 140.934 283.968C140.515 283.801 140.058 283.717 139.563 283.717C139.06 283.717 138.59 283.801 138.154 283.968C137.727 284.136 137.353 284.371 137.035 284.673C136.724 284.975 136.481 285.335 136.305 285.755C136.137 286.166 136.053 286.614 136.053 287.101C136.053 287.579 136.137 288.027 136.305 288.447C136.481 288.858 136.724 289.218 137.035 289.528C137.353 289.83 137.727 290.065 138.154 290.233C138.582 290.401 139.047 290.484 139.551 290.484C140.02 290.484 140.469 290.413 140.897 290.271C141.333 290.12 141.735 289.872 142.104 289.528L142.821 290.484C142.385 290.853 141.874 291.134 141.287 291.327C140.708 291.512 140.108 291.604 139.488 291.604ZM141.614 290.321V287.05H142.821V290.484L141.614 290.321ZM152.035 286.497H156.564V287.566H152.035V286.497ZM152.148 290.409H157.281V291.503H150.89V282.698H157.105V283.792H152.148V290.409ZM167.545 291.604C166.874 291.604 166.232 291.503 165.62 291.302C165.008 291.092 164.526 290.824 164.173 290.497L164.639 289.516C164.974 289.809 165.402 290.053 165.922 290.245C166.442 290.438 166.983 290.535 167.545 290.535C168.056 290.535 168.471 290.476 168.79 290.359C169.109 290.241 169.344 290.082 169.495 289.881C169.646 289.671 169.721 289.436 169.721 289.176C169.721 288.874 169.62 288.631 169.419 288.447C169.226 288.262 168.97 288.115 168.652 288.006C168.341 287.889 167.998 287.788 167.62 287.704C167.243 287.621 166.861 287.524 166.476 287.415C166.098 287.298 165.75 287.151 165.431 286.975C165.121 286.799 164.87 286.564 164.677 286.27C164.484 285.968 164.387 285.583 164.387 285.113C164.387 284.66 164.505 284.245 164.74 283.868C164.983 283.482 165.352 283.176 165.847 282.949C166.35 282.715 166.987 282.597 167.759 282.597C168.27 282.597 168.778 282.664 169.281 282.798C169.784 282.933 170.22 283.125 170.589 283.377L170.174 284.383C169.797 284.132 169.398 283.952 168.979 283.842C168.56 283.725 168.153 283.666 167.759 283.666C167.264 283.666 166.857 283.729 166.538 283.855C166.22 283.981 165.985 284.149 165.834 284.358C165.691 284.568 165.62 284.803 165.62 285.063C165.62 285.373 165.717 285.62 165.909 285.805C166.111 285.989 166.366 286.136 166.677 286.245C166.995 286.354 167.343 286.455 167.721 286.547C168.098 286.631 168.476 286.727 168.853 286.836C169.239 286.945 169.587 287.088 169.897 287.264C170.216 287.44 170.472 287.675 170.664 287.969C170.857 288.262 170.954 288.639 170.954 289.101C170.954 289.545 170.832 289.96 170.589 290.346C170.346 290.723 169.968 291.03 169.457 291.264C168.954 291.491 168.316 291.604 167.545 291.604ZM180.078 291.503V283.792H177.059V282.698H184.343V283.792H181.323V291.503H180.078ZM195.226 291.604C194.555 291.604 193.93 291.491 193.351 291.264C192.781 291.038 192.286 290.723 191.867 290.321C191.448 289.91 191.121 289.432 190.886 288.887C190.651 288.342 190.534 287.746 190.534 287.101C190.534 286.455 190.651 285.859 190.886 285.314C191.121 284.769 191.448 284.295 191.867 283.893C192.286 283.482 192.781 283.163 193.351 282.937C193.922 282.71 194.546 282.597 195.226 282.597C195.897 282.597 196.513 282.71 197.075 282.937C197.645 283.155 198.14 283.469 198.559 283.88C198.987 284.283 199.314 284.757 199.54 285.302C199.775 285.847 199.893 286.446 199.893 287.101C199.893 287.755 199.775 288.354 199.54 288.899C199.314 289.445 198.987 289.923 198.559 290.334C198.14 290.736 197.645 291.051 197.075 291.277C196.513 291.495 195.897 291.604 195.226 291.604ZM195.226 290.484C195.712 290.484 196.161 290.401 196.572 290.233C196.991 290.065 197.352 289.83 197.654 289.528C197.964 289.218 198.203 288.858 198.371 288.447C198.547 288.036 198.635 287.587 198.635 287.101C198.635 286.614 198.547 286.166 198.371 285.755C198.203 285.344 197.964 284.987 197.654 284.685C197.352 284.375 196.991 284.136 196.572 283.968C196.161 283.801 195.712 283.717 195.226 283.717C194.731 283.717 194.274 283.801 193.855 283.968C193.444 284.136 193.083 284.375 192.773 284.685C192.462 284.987 192.219 285.344 192.043 285.755C191.875 286.166 191.791 286.614 191.791 287.101C191.791 287.587 191.875 288.036 192.043 288.447C192.219 288.858 192.462 289.218 192.773 289.528C193.083 289.83 193.444 290.065 193.855 290.233C194.274 290.401 194.731 290.484 195.226 290.484ZM207.476 291.503V282.698H210.91C211.682 282.698 212.34 282.819 212.885 283.063C213.43 283.306 213.85 283.658 214.143 284.119C214.437 284.58 214.584 285.13 214.584 285.767C214.584 286.405 214.437 286.954 214.143 287.415C213.85 287.868 213.43 288.216 212.885 288.459C212.34 288.702 211.682 288.824 210.91 288.824H208.168L208.734 288.245V291.503H207.476ZM213.363 291.503L211.124 288.308H212.47L214.735 291.503H213.363ZM208.734 288.371L208.168 287.755H210.873C211.678 287.755 212.286 287.583 212.697 287.239C213.116 286.887 213.326 286.396 213.326 285.767C213.326 285.138 213.116 284.652 212.697 284.308C212.286 283.964 211.678 283.792 210.873 283.792H208.168L208.734 283.163V288.371ZM220.943 291.503L224.931 282.698H226.176L230.177 291.503H228.856L225.296 283.402H225.799L222.239 291.503H220.943ZM222.642 289.302L222.981 288.296H227.938L228.302 289.302H222.642ZM246.19 291.503V282.698H249.901C250.84 282.698 251.666 282.882 252.379 283.251C253.1 283.62 253.658 284.136 254.052 284.799C254.455 285.461 254.656 286.228 254.656 287.101C254.656 287.973 254.455 288.74 254.052 289.403C253.658 290.065 253.1 290.581 252.379 290.95C251.666 291.319 250.84 291.503 249.901 291.503H246.19ZM247.448 290.409H249.826C250.555 290.409 251.184 290.271 251.713 289.994C252.249 289.717 252.664 289.331 252.958 288.837C253.251 288.333 253.398 287.755 253.398 287.101C253.398 286.438 253.251 285.859 252.958 285.365C252.664 284.87 252.249 284.484 251.713 284.207C251.184 283.931 250.555 283.792 249.826 283.792H247.448V290.409ZM263.388 286.497H267.917V287.566H263.388V286.497ZM263.502 290.409H268.634V291.503H262.244V282.698H268.458V283.792H263.502V290.409ZM285.371 291.503V282.698H286.629V291.503H285.371ZM294.926 291.503V282.698H295.957L301.782 289.931H301.241V282.698H302.499V291.503H301.467L295.643 284.27H296.184V291.503H294.926ZM313.25 291.503L309.376 282.698H310.734L314.294 290.824H313.514L317.1 282.698H318.358L314.496 291.503H313.25ZM326.286 286.497H330.815V287.566H326.286V286.497ZM326.399 290.409H331.532V291.503H325.141V282.698H331.356V283.792H326.399V290.409ZM339.229 291.503V282.698H342.664C343.435 282.698 344.093 282.819 344.639 283.063C345.184 283.306 345.603 283.658 345.896 284.119C346.19 284.58 346.337 285.13 346.337 285.767C346.337 286.405 346.19 286.954 345.896 287.415C345.603 287.868 345.184 288.216 344.639 288.459C344.093 288.702 343.435 288.824 342.664 288.824H339.921L340.487 288.245V291.503H339.229ZM345.117 291.503L342.877 288.308H344.223L346.488 291.503H345.117ZM340.487 288.371L339.921 287.755H342.626C343.431 287.755 344.039 287.583 344.45 287.239C344.869 286.887 345.079 286.396 345.079 285.767C345.079 285.138 344.869 284.652 344.45 284.308C344.039 283.964 343.431 283.792 342.626 283.792H339.921L340.487 283.163V288.371ZM356.596 291.604C355.925 291.604 355.284 291.503 354.671 291.302C354.059 291.092 353.577 290.824 353.225 290.497L353.69 289.516C354.026 289.809 354.453 290.053 354.973 290.245C355.493 290.438 356.034 290.535 356.596 290.535C357.108 290.535 357.523 290.476 357.842 290.359C358.16 290.241 358.395 290.082 358.546 289.881C358.697 289.671 358.772 289.436 358.772 289.176C358.772 288.874 358.672 288.631 358.47 288.447C358.278 288.262 358.022 288.115 357.703 288.006C357.393 287.889 357.049 287.788 356.672 287.704C356.294 287.621 355.913 287.524 355.527 287.415C355.15 287.298 354.801 287.151 354.483 286.975C354.172 286.799 353.921 286.564 353.728 286.27C353.535 285.968 353.439 285.583 353.439 285.113C353.439 284.66 353.556 284.245 353.791 283.868C354.034 283.482 354.403 283.176 354.898 282.949C355.401 282.715 356.038 282.597 356.81 282.597C357.322 282.597 357.829 282.664 358.332 282.798C358.835 282.933 359.271 283.125 359.64 283.377L359.225 284.383C358.848 284.132 358.45 283.952 358.03 283.842C357.611 283.725 357.204 283.666 356.81 283.666C356.315 283.666 355.908 283.729 355.59 283.855C355.271 283.981 355.036 284.149 354.885 284.358C354.743 284.568 354.671 284.803 354.671 285.063C354.671 285.373 354.768 285.62 354.961 285.805C355.162 285.989 355.418 286.136 355.728 286.245C356.047 286.354 356.395 286.455 356.772 286.547C357.15 286.631 357.527 286.727 357.904 286.836C358.29 286.945 358.638 287.088 358.949 287.264C359.267 287.44 359.523 287.675 359.716 287.969C359.909 288.262 360.005 288.639 360.005 289.101C360.005 289.545 359.884 289.96 359.64 290.346C359.397 290.723 359.02 291.03 358.508 291.264C358.005 291.491 357.368 291.604 356.596 291.604ZM367.504 291.503V282.698H368.762V291.503H367.504ZM381.034 291.604C380.363 291.604 379.738 291.491 379.16 291.264C378.589 291.038 378.094 290.723 377.675 290.321C377.256 289.91 376.929 289.432 376.694 288.887C376.459 288.342 376.342 287.746 376.342 287.101C376.342 286.455 376.459 285.859 376.694 285.314C376.929 284.769 377.256 284.295 377.675 283.893C378.094 283.482 378.589 283.163 379.16 282.937C379.73 282.71 380.355 282.597 381.034 282.597C381.705 282.597 382.321 282.71 382.883 282.937C383.453 283.155 383.948 283.469 384.367 283.88C384.795 284.283 385.122 284.757 385.349 285.302C385.583 285.847 385.701 286.446 385.701 287.101C385.701 287.755 385.583 288.354 385.349 288.899C385.122 289.445 384.795 289.923 384.367 290.334C383.948 290.736 383.453 291.051 382.883 291.277C382.321 291.495 381.705 291.604 381.034 291.604ZM381.034 290.484C381.52 290.484 381.969 290.401 382.38 290.233C382.799 290.065 383.16 289.83 383.462 289.528C383.772 289.218 384.011 288.858 384.179 288.447C384.355 288.036 384.443 287.587 384.443 287.101C384.443 286.614 384.355 286.166 384.179 285.755C384.011 285.344 383.772 284.987 383.462 284.685C383.16 284.375 382.799 284.136 382.38 283.968C381.969 283.801 381.52 283.717 381.034 283.717C380.539 283.717 380.082 283.801 379.663 283.968C379.252 284.136 378.891 284.375 378.581 284.685C378.271 284.987 378.027 285.344 377.851 285.755C377.684 286.166 377.6 286.614 377.6 287.101C377.6 287.587 377.684 288.036 377.851 288.447C378.027 288.858 378.271 289.218 378.581 289.528C378.891 289.83 379.252 290.065 379.663 290.233C380.082 290.401 380.539 290.484 381.034 290.484ZM380.09 281.981L381.801 280.345H383.336L381.223 281.981H380.09ZM393.284 291.503V282.698H394.316L400.14 289.931H399.599V282.698H400.857V291.503H399.826L394.001 284.27H394.542V291.503H393.284Z" fill="black"/>
</svg>
