<svg xmlns="http://www.w3.org/2000/svg" xmlns:xlink="http://www.w3.org/1999/xlink" width="300" zoomAndPan="magnify" viewBox="0 0 224.87999 149.999998" height="200" preserveAspectRatio="xMidYMid meet" version="1.0"><defs><g/><clipPath id="d7b0323d68"><path d="M 0 0.0390625 L 224.761719 0.0390625 L 224.761719 149.960938 L 0 149.960938 Z M 0 0.0390625 " clip-rule="nonzero"/></clipPath></defs><g clip-path="url(#d7b0323d68)"><path fill="#ffffff" d="M 0 0.0390625 L 224.878906 0.0390625 L 224.878906 157.457031 L 0 157.457031 Z M 0 0.0390625 " fill-opacity="1" fill-rule="nonzero"/><path fill="#ffffff" d="M 0 0.0390625 L 224.878906 0.0390625 L 224.878906 149.960938 L 0 149.960938 Z M 0 0.0390625 " fill-opacity="1" fill-rule="nonzero"/><path fill="#ffffff" d="M 0 0.0390625 L 224.878906 0.0390625 L 224.878906 149.960938 L 0 149.960938 Z M 0 0.0390625 " fill-opacity="1" fill-rule="nonzero"/></g><g fill="#000000" fill-opacity="1"><g transform="translate(34.314642, 127.529788)"><g><path d="M 12 0.40625 C 8.96875 0.382812 6.5 -0.582031 4.59375 -2.5 C 2.6875 -4.414062 1.734375 -6.941406 1.734375 -10.078125 C 1.734375 -13.222656 2.6875 -15.753906 4.59375 -17.671875 C 6.5 -19.585938 9.023438 -20.546875 12.171875 -20.546875 C 14.742188 -20.546875 17.019531 -19.894531 19 -18.59375 L 19.578125 -14.53125 L 19.3125 -14.53125 C 18.882812 -16.1875 18.03125 -17.457031 16.75 -18.34375 C 15.46875 -19.238281 13.941406 -19.6875 12.171875 -19.6875 C 9.660156 -19.6875 7.648438 -18.8125 6.140625 -17.0625 C 4.640625 -15.320312 3.890625 -13.007812 3.890625 -10.125 C 3.890625 -7.25 4.628906 -4.929688 6.109375 -3.171875 C 7.597656 -1.421875 9.5625 -0.515625 12 -0.453125 C 14.144531 -0.453125 15.941406 -1.039062 17.390625 -2.21875 C 18.941406 -3.476562 19.878906 -5.539062 20.203125 -8.40625 L 20.4375 -8.40625 L 20.09375 -3.890625 C 18.34375 -1.023438 15.644531 0.40625 12 0.40625 Z M 12 0.40625 "/></g></g></g><g fill="#000000" fill-opacity="1"><g transform="translate(61.785567, 127.529788)"><g><path d="M 20.609375 -0.28125 L 20.84375 -0.28125 L 20.84375 0 L 14.359375 0 L 14.359375 -0.28125 L 14.625 -0.28125 C 15.03125 -0.28125 15.332031 -0.410156 15.53125 -0.671875 C 15.726562 -0.929688 15.828125 -1.175781 15.828125 -1.40625 C 15.828125 -1.632812 15.789062 -1.863281 15.71875 -2.09375 L 13.875 -7 L 6.109375 -7 L 4.171875 -2.078125 C 4.097656 -1.847656 4.0625 -1.617188 4.0625 -1.390625 C 4.0625 -1.171875 4.160156 -0.929688 4.359375 -0.671875 C 4.566406 -0.410156 4.867188 -0.28125 5.265625 -0.28125 L 5.53125 -0.28125 L 5.53125 0 L -0.25 0 L -0.25 -0.28125 L 0 -0.28125 C 0.476562 -0.28125 0.945312 -0.429688 1.40625 -0.734375 C 1.875 -1.046875 2.25 -1.5 2.53125 -2.09375 L 9.046875 -17.578125 C 9.753906 -19.140625 10.109375 -20.128906 10.109375 -20.546875 L 10.359375 -20.546875 L 18.078125 -2.09375 C 18.347656 -1.5 18.710938 -1.046875 19.171875 -0.734375 C 19.628906 -0.429688 20.109375 -0.28125 20.609375 -0.28125 Z M 6.453125 -7.859375 L 13.53125 -7.859375 L 10.078125 -17.09375 Z M 6.453125 -7.859375 "/></g></g></g><g fill="#000000" fill-opacity="1"><g transform="translate(87.876152, 127.529788)"><g><path d="M 15.171875 -14.59375 C 15.171875 -13.75 15 -12.960938 14.65625 -12.234375 C 14.019531 -10.867188 12.90625 -9.914062 11.3125 -9.375 C 10.75 -9.1875 10.269531 -9.09375 9.875 -9.09375 C 8.6875 -9.09375 7.660156 -9.3125 6.796875 -9.75 L 6.796875 -10.046875 C 8.191406 -9.734375 9.484375 -9.882812 10.671875 -10.5 C 11.734375 -11.039062 12.457031 -11.925781 12.84375 -13.15625 C 12.957031 -13.539062 13.015625 -13.90625 13.015625 -14.25 C 13.015625 -14.59375 13.015625 -14.800781 13.015625 -14.875 C 12.972656 -16.21875 12.613281 -17.285156 11.9375 -18.078125 C 11.269531 -18.878906 10.332031 -19.28125 9.125 -19.28125 L 5.8125 -19.28125 L 5.8125 -2.09375 C 5.832031 -1.601562 6.019531 -1.175781 6.375 -0.8125 C 6.726562 -0.457031 7.15625 -0.28125 7.65625 -0.28125 L 8.03125 -0.28125 L 8.03125 0 L 1.734375 0 L 1.734375 -0.28125 L 2.09375 -0.28125 C 2.59375 -0.28125 3.019531 -0.457031 3.375 -0.8125 C 3.738281 -1.175781 3.925781 -1.601562 3.9375 -2.09375 L 3.9375 -18.1875 C 3.882812 -18.664062 3.6875 -19.0625 3.34375 -19.375 C 3 -19.695312 2.582031 -19.859375 2.09375 -19.859375 L 1.75 -19.859375 L 1.734375 -20.140625 L 9.234375 -20.140625 C 11.078125 -20.140625 12.523438 -19.644531 13.578125 -18.65625 C 14.640625 -17.675781 15.171875 -16.320312 15.171875 -14.59375 Z M 15.171875 -14.59375 "/></g></g></g><g fill="#bc1823" fill-opacity="1"><g transform="translate(110.073122, 127.529788)"><g><path d="M 2.09375 -0.28125 C 2.59375 -0.28125 3.019531 -0.457031 3.375 -0.8125 C 3.738281 -1.175781 3.925781 -1.601562 3.9375 -2.09375 L 3.9375 -18.078125 C 3.925781 -18.578125 3.738281 -19 3.375 -19.34375 C 3.019531 -19.6875 2.59375 -19.859375 2.09375 -19.859375 L 1.734375 -19.859375 L 1.734375 -20.140625 L 8.03125 -20.140625 L 8.03125 -19.859375 L 7.65625 -19.859375 C 7.15625 -19.859375 6.726562 -19.6875 6.375 -19.34375 C 6.019531 -19 5.832031 -18.578125 5.8125 -18.078125 L 5.8125 -2.09375 C 5.8125 -1.601562 5.992188 -1.175781 6.359375 -0.8125 C 6.722656 -0.457031 7.15625 -0.28125 7.65625 -0.28125 L 8.03125 -0.28125 L 8.03125 0 L 1.734375 0 L 1.734375 -0.28125 Z M 2.09375 -0.28125 "/></g></g></g><g fill="#000000" fill-opacity="1"><g transform="translate(125.401158, 127.529788)"><g><path d="M 16.953125 -17.578125 C 16.953125 -18.046875 16.785156 -18.445312 16.453125 -18.78125 C 16.128906 -19.113281 15.75 -19.289062 15.3125 -19.3125 L 9.84375 -19.3125 L 9.84375 -2.078125 C 9.863281 -1.578125 10.050781 -1.148438 10.40625 -0.796875 C 10.757812 -0.453125 11.1875 -0.28125 11.6875 -0.28125 L 12.0625 -0.28125 L 12.0625 0 L 5.75 0 L 5.75 -0.28125 L 6.125 -0.28125 C 6.625 -0.28125 7.050781 -0.453125 7.40625 -0.796875 C 7.757812 -1.148438 7.945312 -1.566406 7.96875 -2.046875 L 7.96875 -19.3125 L 2.5 -19.3125 C 2.039062 -19.289062 1.648438 -19.113281 1.328125 -18.78125 C 1.015625 -18.445312 0.859375 -18.046875 0.859375 -17.578125 L 0.859375 -17.09375 L 0.578125 -17.0625 L 0.578125 -20.6875 C 0.859375 -20.570312 1.351562 -20.457031 2.0625 -20.34375 C 2.78125 -20.226562 3.4375 -20.171875 4.03125 -20.171875 L 13.75 -20.171875 C 14.695312 -20.171875 15.476562 -20.242188 16.09375 -20.390625 C 16.71875 -20.535156 17.097656 -20.632812 17.234375 -20.6875 L 17.234375 -17.0625 L 16.953125 -17.09375 Z M 16.953125 -17.578125 "/></g></g></g><g fill="#000000" fill-opacity="1"><g transform="translate(148.788552, 127.529788)"><g><path d="M 20.609375 -0.28125 L 20.84375 -0.28125 L 20.84375 0 L 14.359375 0 L 14.359375 -0.28125 L 14.625 -0.28125 C 15.03125 -0.28125 15.332031 -0.410156 15.53125 -0.671875 C 15.726562 -0.929688 15.828125 -1.175781 15.828125 -1.40625 C 15.828125 -1.632812 15.789062 -1.863281 15.71875 -2.09375 L 13.875 -7 L 6.109375 -7 L 4.171875 -2.078125 C 4.097656 -1.847656 4.0625 -1.617188 4.0625 -1.390625 C 4.0625 -1.171875 4.160156 -0.929688 4.359375 -0.671875 C 4.566406 -0.410156 4.867188 -0.28125 5.265625 -0.28125 L 5.53125 -0.28125 L 5.53125 0 L -0.25 0 L -0.25 -0.28125 L 0 -0.28125 C 0.476562 -0.28125 0.945312 -0.429688 1.40625 -0.734375 C 1.875 -1.046875 2.25 -1.5 2.53125 -2.09375 L 9.046875 -17.578125 C 9.753906 -19.140625 10.109375 -20.128906 10.109375 -20.546875 L 10.359375 -20.546875 L 18.078125 -2.09375 C 18.347656 -1.5 18.710938 -1.046875 19.171875 -0.734375 C 19.628906 -0.429688 20.109375 -0.28125 20.609375 -0.28125 Z M 6.453125 -7.859375 L 13.53125 -7.859375 L 10.078125 -17.09375 Z M 6.453125 -7.859375 "/></g></g></g><g fill="#000000" fill-opacity="1"><g transform="translate(174.879136, 127.529788)"><g><path d="M 2.09375 -0.28125 C 2.59375 -0.28125 3.019531 -0.457031 3.375 -0.8125 C 3.738281 -1.175781 3.925781 -1.601562 3.9375 -2.09375 L 3.9375 -18.046875 C 3.925781 -18.546875 3.738281 -18.972656 3.375 -19.328125 C 3.019531 -19.679688 2.59375 -19.859375 2.09375 -19.859375 L 1.734375 -19.859375 L 1.734375 -20.140625 L 8.03125 -20.140625 L 8.03125 -19.859375 L 7.65625 -19.859375 C 6.96875 -19.859375 6.441406 -19.5625 6.078125 -18.96875 C 5.898438 -18.675781 5.8125 -18.367188 5.8125 -18.046875 L 5.8125 -0.890625 L 9.921875 -0.890625 C 11.347656 -0.890625 12.429688 -1.207031 13.171875 -1.84375 C 13.921875 -2.476562 14.546875 -3.414062 15.046875 -4.65625 L 15.34375 -4.65625 L 13.671875 0 L 1.734375 0 L 1.734375 -0.28125 Z M 2.09375 -0.28125 "/></g></g></g><g fill="#000000" fill-opacity="1"><g transform="translate(27.415669, 148.282339)"><g><path d="M 1.6875 0.03125 C 1.40625 0.03125 1.128906 -0.015625 0.859375 -0.109375 C 0.597656 -0.203125 0.398438 -0.320312 0.265625 -0.46875 L 0.421875 -0.78125 C 0.554688 -0.644531 0.738281 -0.53125 0.96875 -0.4375 C 1.207031 -0.351562 1.445312 -0.3125 1.6875 -0.3125 C 2.039062 -0.3125 2.300781 -0.375 2.46875 -0.5 C 2.644531 -0.625 2.734375 -0.789062 2.734375 -1 C 2.734375 -1.15625 2.6875 -1.273438 2.59375 -1.359375 C 2.5 -1.453125 2.382812 -1.523438 2.25 -1.578125 C 2.113281 -1.628906 1.921875 -1.6875 1.671875 -1.75 C 1.378906 -1.820312 1.144531 -1.890625 0.96875 -1.953125 C 0.800781 -2.023438 0.65625 -2.128906 0.53125 -2.265625 C 0.414062 -2.398438 0.359375 -2.585938 0.359375 -2.828125 C 0.359375 -3.023438 0.40625 -3.203125 0.5 -3.359375 C 0.601562 -3.523438 0.757812 -3.65625 0.96875 -3.75 C 1.1875 -3.84375 1.457031 -3.890625 1.78125 -3.890625 C 2 -3.890625 2.210938 -3.859375 2.421875 -3.796875 C 2.628906 -3.742188 2.8125 -3.660156 2.96875 -3.546875 L 2.828125 -3.234375 C 2.671875 -3.335938 2.5 -3.414062 2.3125 -3.46875 C 2.132812 -3.519531 1.957031 -3.546875 1.78125 -3.546875 C 1.4375 -3.546875 1.175781 -3.476562 1 -3.34375 C 0.832031 -3.21875 0.75 -3.050781 0.75 -2.84375 C 0.75 -2.6875 0.796875 -2.5625 0.890625 -2.46875 C 0.984375 -2.375 1.101562 -2.300781 1.25 -2.25 C 1.394531 -2.207031 1.582031 -2.15625 1.8125 -2.09375 C 2.101562 -2.019531 2.332031 -1.945312 2.5 -1.875 C 2.675781 -1.8125 2.828125 -1.710938 2.953125 -1.578125 C 3.078125 -1.441406 3.140625 -1.253906 3.140625 -1.015625 C 3.140625 -0.828125 3.082031 -0.648438 2.96875 -0.484375 C 2.863281 -0.328125 2.703125 -0.203125 2.484375 -0.109375 C 2.273438 -0.015625 2.007812 0.03125 1.6875 0.03125 Z M 1.6875 0.03125 "/></g></g></g><g fill="#000000" fill-opacity="1"><g transform="translate(33.258105, 148.282339)"><g><path d="M 2.3125 0.03125 C 1.9375 0.03125 1.59375 -0.0507812 1.28125 -0.21875 C 0.96875 -0.394531 0.722656 -0.628906 0.546875 -0.921875 C 0.367188 -1.222656 0.28125 -1.5625 0.28125 -1.9375 C 0.28125 -2.300781 0.367188 -2.628906 0.546875 -2.921875 C 0.722656 -3.222656 0.96875 -3.457031 1.28125 -3.625 C 1.59375 -3.800781 1.9375 -3.890625 2.3125 -3.890625 C 2.695312 -3.890625 3.039062 -3.804688 3.34375 -3.640625 C 3.65625 -3.472656 3.898438 -3.238281 4.078125 -2.9375 C 4.253906 -2.632812 4.34375 -2.300781 4.34375 -1.9375 C 4.34375 -1.5625 4.253906 -1.222656 4.078125 -0.921875 C 3.898438 -0.617188 3.65625 -0.382812 3.34375 -0.21875 C 3.039062 -0.0507812 2.695312 0.03125 2.3125 0.03125 Z M 2.3125 -0.328125 C 2.625 -0.328125 2.898438 -0.394531 3.140625 -0.53125 C 3.390625 -0.675781 3.582031 -0.867188 3.71875 -1.109375 C 3.863281 -1.359375 3.9375 -1.632812 3.9375 -1.9375 C 3.9375 -2.226562 3.863281 -2.492188 3.71875 -2.734375 C 3.582031 -2.984375 3.390625 -3.175781 3.140625 -3.3125 C 2.898438 -3.457031 2.625 -3.53125 2.3125 -3.53125 C 2.007812 -3.53125 1.734375 -3.457031 1.484375 -3.3125 C 1.234375 -3.175781 1.035156 -2.984375 0.890625 -2.734375 C 0.753906 -2.492188 0.6875 -2.226562 0.6875 -1.9375 C 0.6875 -1.632812 0.753906 -1.359375 0.890625 -1.109375 C 1.035156 -0.867188 1.234375 -0.675781 1.484375 -0.53125 C 1.734375 -0.394531 2.007812 -0.328125 2.3125 -0.328125 Z M 2.3125 -0.328125 "/></g></g></g><g fill="#000000" fill-opacity="1"><g transform="translate(40.336974, 148.282339)"><g><path d="M 2.3125 0.03125 C 1.925781 0.03125 1.578125 -0.0507812 1.265625 -0.21875 C 0.960938 -0.382812 0.722656 -0.617188 0.546875 -0.921875 C 0.367188 -1.222656 0.28125 -1.5625 0.28125 -1.9375 C 0.28125 -2.300781 0.367188 -2.632812 0.546875 -2.9375 C 0.722656 -3.238281 0.960938 -3.472656 1.265625 -3.640625 C 1.578125 -3.804688 1.925781 -3.890625 2.3125 -3.890625 C 2.59375 -3.890625 2.851562 -3.84375 3.09375 -3.75 C 3.34375 -3.65625 3.550781 -3.515625 3.71875 -3.328125 L 3.46875 -3.078125 C 3.164062 -3.378906 2.785156 -3.53125 2.328125 -3.53125 C 2.015625 -3.53125 1.734375 -3.457031 1.484375 -3.3125 C 1.234375 -3.175781 1.035156 -2.984375 0.890625 -2.734375 C 0.753906 -2.492188 0.6875 -2.226562 0.6875 -1.9375 C 0.6875 -1.632812 0.753906 -1.359375 0.890625 -1.109375 C 1.035156 -0.867188 1.234375 -0.675781 1.484375 -0.53125 C 1.734375 -0.394531 2.015625 -0.328125 2.328125 -0.328125 C 2.785156 -0.328125 3.164062 -0.484375 3.46875 -0.796875 L 3.71875 -0.53125 C 3.550781 -0.351562 3.34375 -0.210938 3.09375 -0.109375 C 2.851562 -0.015625 2.59375 0.03125 2.3125 0.03125 Z M 2.3125 0.03125 "/></g></g></g><g fill="#000000" fill-opacity="1"><g transform="translate(46.753465, 148.282339)"><g><path d="M 0.625 -3.859375 L 1.03125 -3.859375 L 1.03125 0 L 0.625 0 Z M 0.625 -3.859375 "/></g></g></g><g fill="#000000" fill-opacity="1"><g transform="translate(50.868204, 148.282339)"><g><path d="M 3.359375 -0.359375 L 3.359375 0 L 0.625 0 L 0.625 -3.859375 L 3.28125 -3.859375 L 3.28125 -3.515625 L 1.03125 -3.515625 L 1.03125 -2.140625 L 3.03125 -2.140625 L 3.03125 -1.78125 L 1.03125 -1.78125 L 1.03125 -0.359375 Z M 3.359375 -0.359375 "/></g></g></g><g fill="#000000" fill-opacity="1"><g transform="translate(57.008703, 148.282339)"><g><path d="M 0.625 -3.859375 L 2.203125 -3.859375 C 2.609375 -3.859375 2.96875 -3.773438 3.28125 -3.609375 C 3.59375 -3.453125 3.832031 -3.226562 4 -2.9375 C 4.175781 -2.644531 4.265625 -2.3125 4.265625 -1.9375 C 4.265625 -1.5625 4.175781 -1.222656 4 -0.921875 C 3.832031 -0.628906 3.59375 -0.398438 3.28125 -0.234375 C 2.96875 -0.078125 2.609375 0 2.203125 0 L 0.625 0 Z M 2.171875 -0.359375 C 2.515625 -0.359375 2.8125 -0.421875 3.0625 -0.546875 C 3.320312 -0.679688 3.519531 -0.867188 3.65625 -1.109375 C 3.789062 -1.347656 3.859375 -1.625 3.859375 -1.9375 C 3.859375 -2.238281 3.789062 -2.507812 3.65625 -2.75 C 3.519531 -2.988281 3.320312 -3.175781 3.0625 -3.3125 C 2.8125 -3.445312 2.515625 -3.515625 2.171875 -3.515625 L 1.03125 -3.515625 L 1.03125 -0.359375 Z M 2.171875 -0.359375 "/></g></g></g><g fill="#000000" fill-opacity="1"><g transform="translate(64.015813, 148.282339)"><g><path d="M 3.046875 -1.03125 L 0.90625 -1.03125 L 0.4375 0 L 0.015625 0 L 1.78125 -3.859375 L 2.171875 -3.859375 L 3.9375 0 L 3.515625 0 Z M 2.90625 -1.359375 L 1.96875 -3.4375 L 1.046875 -1.359375 Z M 2.90625 -1.359375 "/></g></g></g><g fill="#000000" fill-opacity="1"><g transform="translate(70.421264, 148.282339)"><g><path d="M 0.625 -3.859375 L 2.203125 -3.859375 C 2.609375 -3.859375 2.96875 -3.773438 3.28125 -3.609375 C 3.59375 -3.453125 3.832031 -3.226562 4 -2.9375 C 4.175781 -2.644531 4.265625 -2.3125 4.265625 -1.9375 C 4.265625 -1.5625 4.175781 -1.222656 4 -0.921875 C 3.832031 -0.628906 3.59375 -0.398438 3.28125 -0.234375 C 2.96875 -0.078125 2.609375 0 2.203125 0 L 0.625 0 Z M 2.171875 -0.359375 C 2.515625 -0.359375 2.8125 -0.421875 3.0625 -0.546875 C 3.320312 -0.679688 3.519531 -0.867188 3.65625 -1.109375 C 3.789062 -1.347656 3.859375 -1.625 3.859375 -1.9375 C 3.859375 -2.238281 3.789062 -2.507812 3.65625 -2.75 C 3.519531 -2.988281 3.320312 -3.175781 3.0625 -3.3125 C 2.8125 -3.445312 2.515625 -3.515625 2.171875 -3.515625 L 1.03125 -3.515625 L 1.03125 -0.359375 Z M 2.171875 -0.359375 "/></g></g></g><g fill="#000000" fill-opacity="1"><g transform="translate(77.428375, 148.282339)"><g/></g></g><g fill="#000000" fill-opacity="1"><g transform="translate(81.322317, 148.282339)"><g><path d="M 3.34375 -1.9375 L 3.734375 -1.9375 L 3.734375 -0.453125 C 3.554688 -0.296875 3.34375 -0.175781 3.09375 -0.09375 C 2.851562 -0.0078125 2.597656 0.03125 2.328125 0.03125 C 1.941406 0.03125 1.59375 -0.0507812 1.28125 -0.21875 C 0.96875 -0.382812 0.722656 -0.617188 0.546875 -0.921875 C 0.367188 -1.222656 0.28125 -1.5625 0.28125 -1.9375 C 0.28125 -2.300781 0.367188 -2.632812 0.546875 -2.9375 C 0.722656 -3.238281 0.96875 -3.472656 1.28125 -3.640625 C 1.59375 -3.804688 1.941406 -3.890625 2.328125 -3.890625 C 2.617188 -3.890625 2.890625 -3.84375 3.140625 -3.75 C 3.390625 -3.65625 3.597656 -3.519531 3.765625 -3.34375 L 3.515625 -3.078125 C 3.203125 -3.378906 2.8125 -3.53125 2.34375 -3.53125 C 2.03125 -3.53125 1.75 -3.457031 1.5 -3.3125 C 1.25 -3.175781 1.050781 -2.984375 0.90625 -2.734375 C 0.757812 -2.492188 0.6875 -2.226562 0.6875 -1.9375 C 0.6875 -1.632812 0.757812 -1.359375 0.90625 -1.109375 C 1.050781 -0.867188 1.25 -0.675781 1.5 -0.53125 C 1.75 -0.394531 2.03125 -0.328125 2.34375 -0.328125 C 2.738281 -0.328125 3.070312 -0.425781 3.34375 -0.625 Z M 3.34375 -1.9375 "/></g></g></g><g fill="#000000" fill-opacity="1"><g transform="translate(88.036877, 148.282339)"><g><path d="M 3.359375 -0.359375 L 3.359375 0 L 0.625 0 L 0.625 -3.859375 L 3.28125 -3.859375 L 3.28125 -3.515625 L 1.03125 -3.515625 L 1.03125 -2.140625 L 3.03125 -2.140625 L 3.03125 -1.78125 L 1.03125 -1.78125 L 1.03125 -0.359375 Z M 3.359375 -0.359375 "/></g></g></g><g fill="#000000" fill-opacity="1"><g transform="translate(94.177376, 148.282339)"><g><path d="M 1.6875 0.03125 C 1.40625 0.03125 1.128906 -0.015625 0.859375 -0.109375 C 0.597656 -0.203125 0.398438 -0.320312 0.265625 -0.46875 L 0.421875 -0.78125 C 0.554688 -0.644531 0.738281 -0.53125 0.96875 -0.4375 C 1.207031 -0.351562 1.445312 -0.3125 1.6875 -0.3125 C 2.039062 -0.3125 2.300781 -0.375 2.46875 -0.5 C 2.644531 -0.625 2.734375 -0.789062 2.734375 -1 C 2.734375 -1.15625 2.6875 -1.273438 2.59375 -1.359375 C 2.5 -1.453125 2.382812 -1.523438 2.25 -1.578125 C 2.113281 -1.628906 1.921875 -1.6875 1.671875 -1.75 C 1.378906 -1.820312 1.144531 -1.890625 0.96875 -1.953125 C 0.800781 -2.023438 0.65625 -2.128906 0.53125 -2.265625 C 0.414062 -2.398438 0.359375 -2.585938 0.359375 -2.828125 C 0.359375 -3.023438 0.40625 -3.203125 0.5 -3.359375 C 0.601562 -3.523438 0.757812 -3.65625 0.96875 -3.75 C 1.1875 -3.84375 1.457031 -3.890625 1.78125 -3.890625 C 2 -3.890625 2.210938 -3.859375 2.421875 -3.796875 C 2.628906 -3.742188 2.8125 -3.660156 2.96875 -3.546875 L 2.828125 -3.234375 C 2.671875 -3.335938 2.5 -3.414062 2.3125 -3.46875 C 2.132812 -3.519531 1.957031 -3.546875 1.78125 -3.546875 C 1.4375 -3.546875 1.175781 -3.476562 1 -3.34375 C 0.832031 -3.21875 0.75 -3.050781 0.75 -2.84375 C 0.75 -2.6875 0.796875 -2.5625 0.890625 -2.46875 C 0.984375 -2.375 1.101562 -2.300781 1.25 -2.25 C 1.394531 -2.207031 1.582031 -2.15625 1.8125 -2.09375 C 2.101562 -2.019531 2.332031 -1.945312 2.5 -1.875 C 2.675781 -1.8125 2.828125 -1.710938 2.953125 -1.578125 C 3.078125 -1.441406 3.140625 -1.253906 3.140625 -1.015625 C 3.140625 -0.828125 3.082031 -0.648438 2.96875 -0.484375 C 2.863281 -0.328125 2.703125 -0.203125 2.484375 -0.109375 C 2.273438 -0.015625 2.007812 0.03125 1.6875 0.03125 Z M 1.6875 0.03125 "/></g></g></g><g fill="#000000" fill-opacity="1"><g transform="translate(100.019811, 148.282339)"><g><path d="M 1.375 -3.515625 L 0.015625 -3.515625 L 0.015625 -3.859375 L 3.140625 -3.859375 L 3.140625 -3.515625 L 1.78125 -3.515625 L 1.78125 0 L 1.375 0 Z M 1.375 -3.515625 "/></g></g></g><g fill="#000000" fill-opacity="1"><g transform="translate(105.635932, 148.282339)"><g><path d="M 2.3125 0.03125 C 1.9375 0.03125 1.59375 -0.0507812 1.28125 -0.21875 C 0.96875 -0.394531 0.722656 -0.628906 0.546875 -0.921875 C 0.367188 -1.222656 0.28125 -1.5625 0.28125 -1.9375 C 0.28125 -2.300781 0.367188 -2.628906 0.546875 -2.921875 C 0.722656 -3.222656 0.96875 -3.457031 1.28125 -3.625 C 1.59375 -3.800781 1.9375 -3.890625 2.3125 -3.890625 C 2.695312 -3.890625 3.039062 -3.804688 3.34375 -3.640625 C 3.65625 -3.472656 3.898438 -3.238281 4.078125 -2.9375 C 4.253906 -2.632812 4.34375 -2.300781 4.34375 -1.9375 C 4.34375 -1.5625 4.253906 -1.222656 4.078125 -0.921875 C 3.898438 -0.617188 3.65625 -0.382812 3.34375 -0.21875 C 3.039062 -0.0507812 2.695312 0.03125 2.3125 0.03125 Z M 2.3125 -0.328125 C 2.625 -0.328125 2.898438 -0.394531 3.140625 -0.53125 C 3.390625 -0.675781 3.582031 -0.867188 3.71875 -1.109375 C 3.863281 -1.359375 3.9375 -1.632812 3.9375 -1.9375 C 3.9375 -2.226562 3.863281 -2.492188 3.71875 -2.734375 C 3.582031 -2.984375 3.390625 -3.175781 3.140625 -3.3125 C 2.898438 -3.457031 2.625 -3.53125 2.3125 -3.53125 C 2.007812 -3.53125 1.734375 -3.457031 1.484375 -3.3125 C 1.234375 -3.175781 1.035156 -2.984375 0.890625 -2.734375 C 0.753906 -2.492188 0.6875 -2.226562 0.6875 -1.9375 C 0.6875 -1.632812 0.753906 -1.359375 0.890625 -1.109375 C 1.035156 -0.867188 1.234375 -0.675781 1.484375 -0.53125 C 1.734375 -0.394531 2.007812 -0.328125 2.3125 -0.328125 Z M 2.3125 -0.328125 "/></g></g></g><g fill="#000000" fill-opacity="1"><g transform="translate(112.714798, 148.282339)"><g><path d="M 3.265625 0 L 2.375 -1.234375 C 2.28125 -1.222656 2.179688 -1.21875 2.078125 -1.21875 L 1.03125 -1.21875 L 1.03125 0 L 0.625 0 L 0.625 -3.859375 L 2.078125 -3.859375 C 2.566406 -3.859375 2.953125 -3.738281 3.234375 -3.5 C 3.515625 -3.269531 3.65625 -2.945312 3.65625 -2.53125 C 3.65625 -2.226562 3.578125 -1.972656 3.421875 -1.765625 C 3.265625 -1.566406 3.046875 -1.421875 2.765625 -1.328125 L 3.71875 0 Z M 2.0625 -1.578125 C 2.445312 -1.578125 2.738281 -1.660156 2.9375 -1.828125 C 3.144531 -1.992188 3.25 -2.226562 3.25 -2.53125 C 3.25 -2.84375 3.144531 -3.082031 2.9375 -3.25 C 2.738281 -3.425781 2.445312 -3.515625 2.0625 -3.515625 L 1.03125 -3.515625 L 1.03125 -1.578125 Z M 2.0625 -1.578125 "/></g></g></g><g fill="#000000" fill-opacity="1"><g transform="translate(119.153367, 148.282339)"><g><path d="M 3.046875 -1.03125 L 0.90625 -1.03125 L 0.4375 0 L 0.015625 0 L 1.78125 -3.859375 L 2.171875 -3.859375 L 3.9375 0 L 3.515625 0 Z M 2.90625 -1.359375 L 1.96875 -3.4375 L 1.046875 -1.359375 Z M 2.90625 -1.359375 "/></g></g></g><g fill="#000000" fill-opacity="1"><g transform="translate(125.558818, 148.282339)"><g/></g></g><g fill="#000000" fill-opacity="1"><g transform="translate(129.45276, 148.282339)"><g><path d="M 0.625 -3.859375 L 2.203125 -3.859375 C 2.609375 -3.859375 2.96875 -3.773438 3.28125 -3.609375 C 3.59375 -3.453125 3.832031 -3.226562 4 -2.9375 C 4.175781 -2.644531 4.265625 -2.3125 4.265625 -1.9375 C 4.265625 -1.5625 4.175781 -1.222656 4 -0.921875 C 3.832031 -0.628906 3.59375 -0.398438 3.28125 -0.234375 C 2.96875 -0.078125 2.609375 0 2.203125 0 L 0.625 0 Z M 2.171875 -0.359375 C 2.515625 -0.359375 2.8125 -0.421875 3.0625 -0.546875 C 3.320312 -0.679688 3.519531 -0.867188 3.65625 -1.109375 C 3.789062 -1.347656 3.859375 -1.625 3.859375 -1.9375 C 3.859375 -2.238281 3.789062 -2.507812 3.65625 -2.75 C 3.519531 -2.988281 3.320312 -3.175781 3.0625 -3.3125 C 2.8125 -3.445312 2.515625 -3.515625 2.171875 -3.515625 L 1.03125 -3.515625 L 1.03125 -0.359375 Z M 2.171875 -0.359375 "/></g></g></g><g fill="#000000" fill-opacity="1"><g transform="translate(136.459871, 148.282339)"><g><path d="M 3.359375 -0.359375 L 3.359375 0 L 0.625 0 L 0.625 -3.859375 L 3.28125 -3.859375 L 3.28125 -3.515625 L 1.03125 -3.515625 L 1.03125 -2.140625 L 3.03125 -2.140625 L 3.03125 -1.78125 L 1.03125 -1.78125 L 1.03125 -0.359375 Z M 3.359375 -0.359375 "/></g></g></g><g fill="#000000" fill-opacity="1"><g transform="translate(142.600376, 148.282339)"><g/></g></g><g fill="#000000" fill-opacity="1"><g transform="translate(146.494326, 148.282339)"><g><path d="M 0.625 -3.859375 L 1.03125 -3.859375 L 1.03125 0 L 0.625 0 Z M 0.625 -3.859375 "/></g></g></g><g fill="#000000" fill-opacity="1"><g transform="translate(150.609063, 148.282339)"><g><path d="M 3.859375 -3.859375 L 3.859375 0 L 3.515625 0 L 1.03125 -3.140625 L 1.03125 0 L 0.625 0 L 0.625 -3.859375 L 0.96875 -3.859375 L 3.453125 -0.734375 L 3.453125 -3.859375 Z M 3.859375 -3.859375 "/></g></g></g><g fill="#000000" fill-opacity="1"><g transform="translate(157.544424, 148.282339)"><g><path d="M 3.84375 -3.859375 L 2.125 0 L 1.71875 0 L 0.015625 -3.859375 L 0.453125 -3.859375 L 1.9375 -0.5 L 3.421875 -3.859375 Z M 3.84375 -3.859375 "/></g></g></g><g fill="#000000" fill-opacity="1"><g transform="translate(163.845001, 148.282339)"><g><path d="M 3.359375 -0.359375 L 3.359375 0 L 0.625 0 L 0.625 -3.859375 L 3.28125 -3.859375 L 3.28125 -3.515625 L 1.03125 -3.515625 L 1.03125 -2.140625 L 3.03125 -2.140625 L 3.03125 -1.78125 L 1.03125 -1.78125 L 1.03125 -0.359375 Z M 3.359375 -0.359375 "/></g></g></g><g fill="#000000" fill-opacity="1"><g transform="translate(169.985499, 148.282339)"><g><path d="M 3.265625 0 L 2.375 -1.234375 C 2.28125 -1.222656 2.179688 -1.21875 2.078125 -1.21875 L 1.03125 -1.21875 L 1.03125 0 L 0.625 0 L 0.625 -3.859375 L 2.078125 -3.859375 C 2.566406 -3.859375 2.953125 -3.738281 3.234375 -3.5 C 3.515625 -3.269531 3.65625 -2.945312 3.65625 -2.53125 C 3.65625 -2.226562 3.578125 -1.972656 3.421875 -1.765625 C 3.265625 -1.566406 3.046875 -1.421875 2.765625 -1.328125 L 3.71875 0 Z M 2.0625 -1.578125 C 2.445312 -1.578125 2.738281 -1.660156 2.9375 -1.828125 C 3.144531 -1.992188 3.25 -2.226562 3.25 -2.53125 C 3.25 -2.84375 3.144531 -3.082031 2.9375 -3.25 C 2.738281 -3.425781 2.445312 -3.515625 2.0625 -3.515625 L 1.03125 -3.515625 L 1.03125 -1.578125 Z M 2.0625 -1.578125 "/></g></g></g><g fill="#000000" fill-opacity="1"><g transform="translate(176.424074, 148.282339)"><g><path d="M 1.6875 0.03125 C 1.40625 0.03125 1.128906 -0.015625 0.859375 -0.109375 C 0.597656 -0.203125 0.398438 -0.320312 0.265625 -0.46875 L 0.421875 -0.78125 C 0.554688 -0.644531 0.738281 -0.53125 0.96875 -0.4375 C 1.207031 -0.351562 1.445312 -0.3125 1.6875 -0.3125 C 2.039062 -0.3125 2.300781 -0.375 2.46875 -0.5 C 2.644531 -0.625 2.734375 -0.789062 2.734375 -1 C 2.734375 -1.15625 2.6875 -1.273438 2.59375 -1.359375 C 2.5 -1.453125 2.382812 -1.523438 2.25 -1.578125 C 2.113281 -1.628906 1.921875 -1.6875 1.671875 -1.75 C 1.378906 -1.820312 1.144531 -1.890625 0.96875 -1.953125 C 0.800781 -2.023438 0.65625 -2.128906 0.53125 -2.265625 C 0.414062 -2.398438 0.359375 -2.585938 0.359375 -2.828125 C 0.359375 -3.023438 0.40625 -3.203125 0.5 -3.359375 C 0.601562 -3.523438 0.757812 -3.65625 0.96875 -3.75 C 1.1875 -3.84375 1.457031 -3.890625 1.78125 -3.890625 C 2 -3.890625 2.210938 -3.859375 2.421875 -3.796875 C 2.628906 -3.742188 2.8125 -3.660156 2.96875 -3.546875 L 2.828125 -3.234375 C 2.671875 -3.335938 2.5 -3.414062 2.3125 -3.46875 C 2.132812 -3.519531 1.957031 -3.546875 1.78125 -3.546875 C 1.4375 -3.546875 1.175781 -3.476562 1 -3.34375 C 0.832031 -3.21875 0.75 -3.050781 0.75 -2.84375 C 0.75 -2.6875 0.796875 -2.5625 0.890625 -2.46875 C 0.984375 -2.375 1.101562 -2.300781 1.25 -2.25 C 1.394531 -2.207031 1.582031 -2.15625 1.8125 -2.09375 C 2.101562 -2.019531 2.332031 -1.945312 2.5 -1.875 C 2.675781 -1.8125 2.828125 -1.710938 2.953125 -1.578125 C 3.078125 -1.441406 3.140625 -1.253906 3.140625 -1.015625 C 3.140625 -0.828125 3.082031 -0.648438 2.96875 -0.484375 C 2.863281 -0.328125 2.703125 -0.203125 2.484375 -0.109375 C 2.273438 -0.015625 2.007812 0.03125 1.6875 0.03125 Z M 1.6875 0.03125 "/></g></g></g><g fill="#000000" fill-opacity="1"><g transform="translate(182.26651, 148.282339)"><g><path d="M 0.625 -3.859375 L 1.03125 -3.859375 L 1.03125 0 L 0.625 0 Z M 0.625 -3.859375 "/></g></g></g><g fill="#000000" fill-opacity="1"><g transform="translate(186.381247, 148.282339)"><g><path d="M 2.3125 0.03125 C 1.9375 0.03125 1.59375 -0.0507812 1.28125 -0.21875 C 0.96875 -0.394531 0.722656 -0.628906 0.546875 -0.921875 C 0.367188 -1.222656 0.28125 -1.5625 0.28125 -1.9375 C 0.28125 -2.300781 0.367188 -2.628906 0.546875 -2.921875 C 0.722656 -3.222656 0.96875 -3.457031 1.28125 -3.625 C 1.59375 -3.800781 1.9375 -3.890625 2.3125 -3.890625 C 2.695312 -3.890625 3.039062 -3.804688 3.34375 -3.640625 C 3.65625 -3.472656 3.898438 -3.238281 4.078125 -2.9375 C 4.253906 -2.632812 4.34375 -2.300781 4.34375 -1.9375 C 4.34375 -1.5625 4.253906 -1.222656 4.078125 -0.921875 C 3.898438 -0.617188 3.65625 -0.382812 3.34375 -0.21875 C 3.039062 -0.0507812 2.695312 0.03125 2.3125 0.03125 Z M 2.3125 -0.328125 C 2.625 -0.328125 2.898438 -0.394531 3.140625 -0.53125 C 3.390625 -0.675781 3.582031 -0.867188 3.71875 -1.109375 C 3.863281 -1.359375 3.9375 -1.632812 3.9375 -1.9375 C 3.9375 -2.226562 3.863281 -2.492188 3.71875 -2.734375 C 3.582031 -2.984375 3.390625 -3.175781 3.140625 -3.3125 C 2.898438 -3.457031 2.625 -3.53125 2.3125 -3.53125 C 2.007812 -3.53125 1.734375 -3.457031 1.484375 -3.3125 C 1.234375 -3.175781 1.035156 -2.984375 0.890625 -2.734375 C 0.753906 -2.492188 0.6875 -2.226562 0.6875 -1.9375 C 0.6875 -1.632812 0.753906 -1.359375 0.890625 -1.109375 C 1.035156 -0.867188 1.234375 -0.675781 1.484375 -0.53125 C 1.734375 -0.394531 2.007812 -0.328125 2.3125 -0.328125 Z M 2.71875 -4.859375 L 3.234375 -4.859375 L 2.34375 -4.171875 L 1.953125 -4.171875 Z M 2.71875 -4.859375 "/></g></g></g><g fill="#000000" fill-opacity="1"><g transform="translate(193.46012, 148.282339)"><g><path d="M 3.859375 -3.859375 L 3.859375 0 L 3.515625 0 L 1.03125 -3.140625 L 1.03125 0 L 0.625 0 L 0.625 -3.859375 L 0.96875 -3.859375 L 3.453125 -0.734375 L 3.453125 -3.859375 Z M 3.859375 -3.859375 "/></g></g></g><g fill="#000000" fill-opacity="1"><g transform="translate(68.089998, 66.753821)"><g><path d="M 8.3125 -47.078125 C 7.582031 -48.335938 6.898438 -49.367188 6.265625 -50.171875 C 5.628906 -50.972656 4.984375 -51.613281 4.328125 -52.09375 C 3.679688 -52.582031 2.992188 -52.910156 2.265625 -53.078125 C 1.535156 -53.253906 0.660156 -53.34375 -0.359375 -53.34375 L -0.359375 -56.109375 L 22.59375 -56.109375 L 22.59375 -53.34375 C 20.164062 -53.34375 18.453125 -53.160156 17.453125 -52.796875 C 16.453125 -52.429688 15.953125 -51.785156 15.953125 -50.859375 C 15.953125 -49.847656 16.515625 -48.394531 17.640625 -46.5 L 28.9375 -27.1875 L 29.21875 -27.1875 L 37.453125 -41.03125 C 39.015625 -43.65625 40.117188 -45.71875 40.765625 -47.21875 C 41.421875 -48.726562 41.75 -49.941406 41.75 -50.859375 C 41.75 -51.785156 41.394531 -52.429688 40.6875 -52.796875 C 39.988281 -53.160156 38.765625 -53.34375 37.015625 -53.34375 L 37.015625 -56.109375 L 53.703125 -56.109375 L 53.703125 -53.34375 C 52.679688 -53.34375 51.769531 -53.195312 50.96875 -52.90625 C 50.175781 -52.613281 49.34375 -52.03125 48.46875 -51.15625 C 47.59375 -50.28125 46.628906 -49.066406 45.578125 -47.515625 C 44.535156 -45.960938 43.257812 -43.921875 41.75 -41.390625 L 30.53125 -22.453125 L 30.53125 -13.765625 C 30.53125 -11.390625 30.613281 -9.484375 30.78125 -8.046875 C 30.957031 -6.617188 31.320312 -5.515625 31.875 -4.734375 C 32.4375 -3.960938 33.238281 -3.441406 34.28125 -3.171875 C 35.332031 -2.898438 36.734375 -2.765625 38.484375 -2.765625 L 38.484375 0 L 14.859375 0 L 14.859375 -2.765625 C 16.609375 -2.765625 18.003906 -2.898438 19.046875 -3.171875 C 20.097656 -3.441406 20.898438 -3.953125 21.453125 -4.703125 C 22.015625 -5.453125 22.390625 -6.503906 22.578125 -7.859375 C 22.773438 -9.222656 22.875 -11.023438 22.875 -13.265625 L 22.875 -22.15625 Z M 8.3125 -47.078125 "/></g></g></g><g fill="#000000" fill-opacity="1"><g transform="translate(86.465371, 94.22358)"><g><path d="M 2.609375 0 L 2.609375 -2.609375 C 4.390625 -2.648438 5.816406 -2.785156 6.890625 -3.015625 C 7.972656 -3.242188 8.800781 -3.632812 9.375 -4.1875 C 9.945312 -4.738281 10.335938 -5.515625 10.546875 -6.515625 C 10.753906 -7.523438 10.859375 -8.832031 10.859375 -10.4375 L 10.859375 -42.453125 C 10.859375 -44.054688 10.773438 -45.347656 10.609375 -46.328125 C 10.453125 -47.316406 10.128906 -48.097656 9.640625 -48.671875 C 9.160156 -49.242188 8.460938 -49.628906 7.546875 -49.828125 C 6.640625 -50.035156 5.453125 -50.1875 3.984375 -50.28125 L 3.984375 -52.890625 L 24.515625 -52.890625 C 30.703125 -52.890625 35.507812 -51.789062 38.9375 -49.59375 C 42.375 -47.394531 44.09375 -44.300781 44.09375 -40.3125 C 44.09375 -37.289062 43.140625 -34.816406 41.234375 -32.890625 C 39.335938 -30.972656 36.332031 -29.394531 32.21875 -28.15625 L 32.21875 -27.890625 C 33.632812 -27.753906 34.867188 -27.59375 35.921875 -27.40625 C 36.972656 -27.21875 37.910156 -27 38.734375 -26.75 C 39.554688 -26.5 40.320312 -26.191406 41.03125 -25.828125 C 41.75 -25.460938 42.453125 -25.050781 43.140625 -24.59375 C 47.210938 -21.707031 49.25 -18.085938 49.25 -13.734375 C 49.25 -11.304688 48.570312 -9.050781 47.21875 -6.96875 C 45.875 -4.882812 43.988281 -3.25 41.5625 -2.0625 C 40.78125 -1.644531 39.976562 -1.3125 39.15625 -1.0625 C 38.332031 -0.8125 37.367188 -0.601562 36.265625 -0.4375 C 35.171875 -0.28125 33.898438 -0.164062 32.453125 -0.09375 C 31.015625 -0.03125 29.3125 0 27.34375 0 Z M 27.546875 -2.953125 C 35.828125 -2.953125 39.96875 -6.5 39.96875 -13.59375 C 39.96875 -18.769531 37.84375 -22.390625 33.59375 -24.453125 C 32.851562 -24.773438 32.140625 -25.050781 31.453125 -25.28125 C 30.765625 -25.507812 29.960938 -25.679688 29.046875 -25.796875 C 28.140625 -25.910156 27.054688 -25.988281 25.796875 -26.03125 C 24.535156 -26.070312 22.988281 -26.09375 21.15625 -26.09375 L 18.0625 -26.09375 L 18.0625 -10.78125 C 18.0625 -7.988281 18.789062 -5.984375 20.25 -4.765625 C 21.71875 -3.554688 24.148438 -2.953125 27.546875 -2.953125 Z M 21.90625 -29.53125 C 23.332031 -29.53125 24.523438 -29.550781 25.484375 -29.59375 C 26.441406 -29.644531 27.265625 -29.726562 27.953125 -29.84375 C 28.640625 -29.957031 29.242188 -30.117188 29.765625 -30.328125 C 30.296875 -30.535156 30.835938 -30.820312 31.390625 -31.1875 C 32.859375 -32.101562 33.898438 -33.203125 34.515625 -34.484375 C 35.128906 -35.765625 35.4375 -37.4375 35.4375 -39.5 C 35.4375 -43.113281 34.554688 -45.707031 32.796875 -47.28125 C 31.035156 -48.863281 28.273438 -49.65625 24.515625 -49.65625 L 19.234375 -49.65625 C 18.453125 -49.65625 18.0625 -49.269531 18.0625 -48.5 L 18.0625 -29.53125 Z M 21.90625 -29.53125 "/></g></g></g></svg>