<svg width="90" height="60" viewBox="0 0 90 60" fill="none" xmlns="http://www.w3.org/2000/svg">
<path d="M34.5555 53.0591V51.5508C35.6806 51.5282 36.5812 51.4492 37.2597 51.3159C37.9432 51.185 38.4662 50.9592 38.8289 50.6385C39.1891 50.3202 39.4359 49.8708 39.5691 49.2928C39.6999 48.7102 39.7665 47.9538 39.7665 47.0258V28.5192C39.7665 27.5934 39.7122 26.846 39.6086 26.2793C39.5099 25.708 39.3051 25.2564 38.9967 24.9245C38.6932 24.5948 38.2516 24.3713 37.6742 24.2561C37.1018 24.1364 36.3517 24.0484 35.424 23.9942V22.4858H38.5062H39.3775H40.2431H42.3206L42.9564 23.1815L43.6829 22.4858H48.3922C52.3004 22.4858 55.3352 23.1226 57.5015 24.3916C59.6727 25.6628 60.7583 27.4512 60.7583 29.7566C60.7583 31.5043 60.1563 32.9336 58.9523 34.0468C57.7532 35.1555 55.8558 36.0677 53.2577 36.7835V36.937C54.1509 37.0161 54.9306 37.1086 55.5967 37.217C56.2604 37.3254 56.8526 37.4518 57.3732 37.5964C57.8913 37.7409 58.3749 37.9192 58.824 38.1292C59.278 38.3415 59.7221 38.5786 60.1563 38.8428C62.7273 40.5114 64.0152 42.6046 64.0152 45.12C64.0152 46.5245 63.5859 47.8273 62.7322 49.0309C61.8834 50.2366 60.6917 51.1805 59.1595 51.8669C58.6661 52.1085 58.1578 52.3004 57.6397 52.4449C57.1191 52.5895 56.5096 52.7114 55.8139 52.8062C55.123 52.8965 54.3187 52.9643 53.4058 53.0049C52.4978 53.0411 51.4221 53.0591 50.1785 53.0591H34.5555ZM50.3068 51.3521C55.5375 51.3521 58.1529 49.3018 58.1529 45.2013C58.1529 42.2094 56.8107 40.1163 54.1262 38.9241C53.6574 38.7389 53.2084 38.5786 52.7741 38.4454C52.3399 38.3144 51.8316 38.215 51.2543 38.1473C50.6819 38.0818 49.996 38.0367 49.2015 38.0118C48.4045 37.9892 47.4275 37.9757 46.2703 37.9757H44.3162V46.827C44.3162 48.4415 44.7751 49.5999 45.6979 50.3044C46.6256 51.0043 48.1603 51.3521 50.3068 51.3521ZM46.744 35.9887C47.6446 35.9887 48.3971 35.9774 49.0041 35.9525C49.6086 35.9232 50.1292 35.8758 50.5634 35.808C50.9977 35.7425 51.3776 35.65 51.7083 35.528C52.0438 35.4084 52.3843 35.2435 52.7347 35.0313C53.6624 34.5029 54.3187 33.8661 54.7085 33.1255C55.0959 32.3849 55.2908 31.4185 55.2908 30.2263C55.2908 28.1376 54.7332 26.6383 53.6229 25.7283C52.5101 24.8138 50.7658 24.3555 48.3922 24.3555H45.3177C44.8242 24.3555 43.5491 25.7991 43.7283 26.2793V28.5192L43.8646 35.9887H46.744Z" fill="white"/>
<path d="M31.6547 12.0284C31.2566 11.3431 30.8841 10.7812 30.5393 10.3427C30.1923 9.90638 29.8411 9.55732 29.4835 9.29552C29.1302 9.02947 28.7555 8.85068 28.3596 8.75915C27.9616 8.66337 27.4848 8.61442 26.9292 8.61442V7.10748H39.4368V8.61442C38.1128 8.61442 37.1805 8.71446 36.6356 8.9124C36.0906 9.11248 35.8182 9.46367 35.8182 9.96811C35.8182 10.5194 36.1247 11.3112 36.7377 12.3435L42.8936 22.8665H43.0469L47.5339 15.3233C48.3854 13.893 48.9856 12.7691 49.339 11.9518C49.6966 11.1302 49.8754 10.4683 49.8754 9.96811C49.8754 9.46367 49.6817 9.11248 49.2964 8.9124C48.9154 8.71446 48.2491 8.61442 47.2955 8.61442V7.10748H56.3888V8.61442C55.8312 8.61442 55.3352 8.6953 54.8988 8.85281C54.4667 9.01244 54.0133 9.32958 53.5365 9.80635C53.0597 10.2831 52.534 10.9451 51.9614 11.7901C51.3931 12.6372 50.697 13.7482 49.8754 15.1275L43.7621 25.4461V30.1798C43.7621 31.4739 43.8068 32.5126 43.8983 33.2958C43.9941 34.0748 44.192 34.6751 44.4943 35.1008C44.8008 35.5222 45.2372 35.8053 45.8055 35.9521C46.3781 36.1011 47.1423 36.1735 48.0959 36.1735V37.6804H35.2222V36.1735C36.1758 36.1735 36.9357 36.1011 37.504 35.9521C38.0766 35.8053 38.513 35.5264 38.8152 35.1178C39.1217 34.7091 39.3261 34.1366 39.4283 33.398C39.5347 32.6552 39.59 31.674 39.59 30.4522V25.6079L31.6547 12.0284Z" fill="white"/>
</svg>
