<svg width="408" height="306" viewBox="0 0 408 306" fill="none" xmlns="http://www.w3.org/2000/svg">
<path d="M167.384 185.6V180.066C171.512 179.983 174.816 179.693 177.306 179.204C179.813 178.724 181.732 177.895 183.063 176.719C184.385 175.551 185.29 173.902 185.779 171.781C186.258 169.644 186.503 166.868 186.503 163.463V95.5617C186.503 92.1649 186.304 89.4227 185.924 87.3432C185.561 85.2472 184.81 83.5903 183.679 82.3724C182.565 81.1628 180.945 80.3427 178.826 79.9201C176.726 79.4811 173.974 79.1579 170.571 78.9591V73.4249H181.879H185.076H188.252H195.874L198.206 75.9772L200.872 73.4249H218.15C232.489 73.4249 243.623 75.7612 251.571 80.4172C259.538 85.0815 263.521 91.643 263.521 100.102C263.521 106.514 261.312 111.758 256.894 115.843C252.495 119.91 245.534 123.257 236.001 125.884V126.447C239.278 126.737 242.139 127.077 244.583 127.474C247.018 127.872 249.191 128.336 251.101 128.866C253.002 129.396 254.776 130.051 256.424 130.821C258.089 131.6 259.719 132.47 261.312 133.439C270.744 139.562 275.47 147.242 275.47 156.471C275.47 161.624 273.895 166.404 270.763 170.82C267.648 175.244 263.276 178.707 257.655 181.226C255.844 182.112 253.979 182.816 252.078 183.347C250.168 183.877 247.932 184.324 245.38 184.672C242.845 185.003 239.894 185.252 236.544 185.401C233.213 185.534 229.266 185.6 224.704 185.6H167.384ZM225.175 179.337C244.366 179.337 253.961 171.814 253.961 156.769C253.961 145.792 249.037 138.112 239.188 133.738C237.468 133.058 235.82 132.47 234.227 131.981C232.634 131.501 230.769 131.136 228.651 130.888C226.551 130.647 224.034 130.482 221.119 130.391C218.195 130.308 214.611 130.258 210.365 130.258H203.196V162.734C203.196 168.658 204.879 172.908 208.265 175.493C211.669 178.061 217.299 179.337 225.175 179.337ZM212.103 122.968C215.407 122.968 218.168 122.926 220.395 122.835C222.613 122.727 224.523 122.553 226.116 122.305C227.709 122.064 229.103 121.725 230.316 121.277C231.548 120.838 232.797 120.234 234.082 119.455C237.486 117.516 239.894 115.18 241.324 112.462C242.745 109.745 243.461 106.199 243.461 101.825C243.461 94.1616 241.415 88.6605 237.341 85.3218C233.258 81.9665 226.858 80.2847 218.15 80.2847H206.87C205.059 80.2847 200.381 85.5815 201.039 87.3432V95.5617L201.538 122.968H212.103Z" fill="black"/>
<path d="M156.737 35.0561C155.277 32.5415 153.91 30.4798 152.645 28.8711C151.372 27.2702 150.083 25.9894 148.771 25.0289C147.475 24.0527 146.101 23.3967 144.648 23.0609C143.188 22.7095 141.438 22.5299 139.4 22.5299V17.0009H185.289V22.5299C180.432 22.5299 177.011 22.8969 175.012 23.6232C173.013 24.3573 172.013 25.6458 172.013 27.4966C172.013 29.5193 173.138 32.4243 175.387 36.2119L197.972 74.8214H198.534L214.997 47.145C218.121 41.8971 220.323 37.7738 221.62 34.775C222.932 31.7606 223.588 29.3318 223.588 27.4966C223.588 25.6458 222.877 24.3573 221.464 23.6232C220.066 22.8969 217.621 22.5299 214.123 22.5299V17.0009H247.485V22.5299C245.439 22.5299 243.62 22.8266 242.019 23.4045C240.433 23.9902 238.77 25.1538 237.02 26.9031C235.271 28.6524 233.342 31.0811 231.241 34.1815C229.156 37.2896 226.602 41.3661 223.588 46.4265L201.159 84.2863V101.654C201.159 106.402 201.323 110.213 201.658 113.087C202.01 115.945 202.736 118.148 203.845 119.71C204.97 121.256 206.571 122.295 208.656 122.833C210.757 123.38 213.56 123.646 217.059 123.646V129.175H169.826V123.646C173.325 123.646 176.113 123.38 178.198 122.833C180.299 122.295 181.9 121.271 183.009 119.772C184.134 118.273 184.883 116.172 185.258 113.462C185.649 110.737 185.852 107.137 185.852 102.654V84.8798L156.737 35.0561Z" fill="black"/>
<path d="M84.6191 247.893L84.0969 254.726C83.3425 255.973 82.3851 257.09 81.2247 258.077C80.0932 259.034 78.7441 259.803 77.1774 260.383C75.6398 260.934 73.8701 261.21 71.8682 261.21C68.8509 261.181 66.1673 260.514 63.8173 259.208C61.4673 257.903 59.6251 256.075 58.2905 253.725C56.9849 251.346 56.3322 248.546 56.3322 245.326C56.3322 242.164 56.9849 239.407 58.2905 237.057C59.596 234.678 61.4238 232.836 63.7738 231.531C66.1528 230.196 68.938 229.529 72.1293 229.529C74.2762 229.529 76.2055 229.819 77.9173 230.399C79.658 230.95 81.1666 231.647 82.4432 232.488L83.3135 238.624H82.9219C82.2836 236.071 80.978 234.142 79.0052 232.836C77.0324 231.502 74.7404 230.834 72.1293 230.834C69.5762 230.834 67.3568 231.444 65.471 232.662C63.6142 233.852 62.1636 235.534 61.1192 237.71C60.1038 239.857 59.596 242.381 59.596 245.282C59.596 248.184 60.1038 250.722 61.1192 252.898C62.1636 255.074 63.5997 256.771 65.4275 257.99C67.2843 259.208 69.4312 259.847 71.8682 259.905C73.9281 259.905 75.8284 259.527 77.5691 258.773C79.3389 257.99 80.8185 256.728 82.008 254.987C83.1975 253.217 83.9518 250.853 84.2709 247.893H84.6191ZM121.991 229.529L134.873 260.34H131.173L121.121 233.663L121.991 229.529ZM112.635 257.424C112.432 258.004 112.403 258.497 112.548 258.904C112.693 259.31 112.925 259.629 113.244 259.861C113.592 260.064 113.94 260.166 114.288 260.166H114.68V260.601H105.933V260.166C105.933 260.166 106.005 260.166 106.15 260.166C106.266 260.166 106.325 260.166 106.325 260.166C106.992 260.166 107.674 259.963 108.37 259.556C109.095 259.121 109.69 258.41 110.154 257.424H112.635ZM121.991 229.529L122.383 232.575L111.46 260.47H108.849L119.989 234.011C119.989 234.011 120.062 233.837 120.207 233.489C120.381 233.112 120.57 232.662 120.773 232.14C121.005 231.618 121.193 231.11 121.338 230.617C121.512 230.123 121.599 229.761 121.599 229.529H121.991ZM128.127 248.72V250.026H114.506V248.72H128.127ZM130.086 257.424H133.654C134.089 258.41 134.669 259.121 135.395 259.556C136.12 259.963 136.816 260.166 137.484 260.166C137.484 260.166 137.542 260.166 137.658 260.166C137.774 260.166 137.832 260.166 137.832 260.166V260.601H128.04V260.166H128.432C128.983 260.166 129.476 259.934 129.911 259.469C130.347 258.976 130.405 258.294 130.086 257.424ZM165.158 230.138H170.902C172.759 230.138 174.354 230.472 175.689 231.139C177.024 231.806 178.053 232.778 178.779 234.055C179.504 235.302 179.867 236.796 179.867 238.537C179.867 239.872 179.606 241.076 179.083 242.149C178.561 243.193 177.865 244.078 176.995 244.804C176.124 245.529 175.138 246.08 174.035 246.457C172.933 246.806 171.787 246.936 170.597 246.849C169.437 246.762 168.305 246.428 167.203 245.848V245.413C167.203 245.413 167.45 245.456 167.943 245.543C168.436 245.602 169.06 245.616 169.814 245.587C170.597 245.529 171.41 245.369 172.251 245.108C173.121 244.818 173.919 244.325 174.645 243.629C175.399 242.932 175.965 241.96 176.342 240.713C176.429 240.394 176.501 240.002 176.559 239.538C176.617 239.045 176.632 238.566 176.603 238.102C176.574 236.1 176.052 234.49 175.036 233.271C174.021 232.053 172.585 231.444 170.728 231.444H165.593C165.593 231.444 165.549 231.342 165.462 231.139C165.404 230.907 165.332 230.689 165.245 230.486C165.187 230.254 165.158 230.138 165.158 230.138ZM165.723 230.138V260.601H162.895V230.138H165.723ZM163.025 257.424V260.601H159.544V260.166C159.544 260.166 159.631 260.166 159.805 260.166C160.008 260.166 160.109 260.166 160.109 260.166C160.864 260.166 161.502 259.905 162.024 259.382C162.575 258.831 162.866 258.178 162.895 257.424H163.025ZM163.025 233.315H162.895C162.895 232.561 162.619 231.922 162.068 231.4C161.517 230.849 160.864 230.573 160.109 230.573C160.109 230.573 160.022 230.573 159.848 230.573C159.674 230.573 159.587 230.573 159.587 230.573L159.544 230.138H163.025V233.315ZM165.593 257.424H165.723C165.752 258.178 166.028 258.831 166.55 259.382C167.101 259.905 167.754 260.166 168.508 260.166C168.508 260.166 168.596 260.166 168.77 260.166C168.973 260.166 169.074 260.166 169.074 260.166V260.601H165.593V257.424ZM250.803 230.269V260.601H247.975V230.269H250.803ZM261.988 230.094V231.4H236.79V230.094H261.988ZM261.988 231.269V234.794L261.552 234.751V234.011C261.552 233.286 261.291 232.677 260.769 232.183C260.276 231.69 259.681 231.429 258.985 231.4V231.269H261.988ZM261.988 229.311V230.573L256.678 230.094C257.317 230.094 257.984 230.051 258.68 229.964C259.405 229.877 260.073 229.775 260.682 229.659C261.291 229.543 261.726 229.427 261.988 229.311ZM248.105 257.424V260.601H244.624V260.166C244.624 260.166 244.711 260.166 244.885 260.166C245.088 260.166 245.189 260.166 245.189 260.166C245.944 260.166 246.582 259.905 247.104 259.382C247.656 258.831 247.946 258.178 247.975 257.424H248.105ZM250.673 257.424H250.803C250.832 258.178 251.108 258.831 251.63 259.382C252.181 259.905 252.834 260.166 253.589 260.166C253.589 260.166 253.676 260.166 253.85 260.166C254.053 260.166 254.154 260.166 254.154 260.166V260.601H250.673V257.424ZM239.793 231.269V231.4C239.068 231.429 238.459 231.69 237.965 232.183C237.472 232.677 237.226 233.286 237.226 234.011V234.751L236.79 234.794V231.269H239.793ZM236.79 229.311C237.081 229.427 237.516 229.543 238.096 229.659C238.705 229.775 239.373 229.877 240.098 229.964C240.823 230.051 241.49 230.094 242.1 230.094L236.79 230.573V229.311ZM294.968 229.529L307.849 260.34H304.15L294.098 233.663L294.968 229.529ZM285.612 257.424C285.408 258.004 285.379 258.497 285.524 258.904C285.67 259.31 285.902 259.629 286.221 259.861C286.569 260.064 286.917 260.166 287.265 260.166H287.657V260.601H278.91V260.166C278.91 260.166 278.982 260.166 279.127 260.166C279.243 260.166 279.301 260.166 279.301 260.166C279.969 260.166 280.65 259.963 281.347 259.556C282.072 259.121 282.667 258.41 283.131 257.424H285.612ZM294.968 229.529L295.36 232.575L284.437 260.47H281.825L292.966 234.011C292.966 234.011 293.039 233.837 293.184 233.489C293.358 233.112 293.546 232.662 293.749 232.14C293.982 231.618 294.17 231.11 294.315 230.617C294.489 230.123 294.576 229.761 294.576 229.529H294.968ZM301.104 248.72V250.026H287.483V248.72H301.104ZM303.062 257.424H306.631C307.066 258.41 307.646 259.121 308.372 259.556C309.097 259.963 309.793 260.166 310.46 260.166C310.46 260.166 310.519 260.166 310.635 260.166C310.751 260.166 310.809 260.166 310.809 260.166V260.601H301.017V260.166H301.409C301.96 260.166 302.453 259.934 302.888 259.469C303.323 258.976 303.382 258.294 303.062 257.424ZM338.7 230.138V260.601H335.871V230.138H338.7ZM350.45 259.252V260.601H338.57V259.252H350.45ZM353.105 253.551L350.581 260.601H343.357L344.923 259.252C346.461 259.252 347.708 259.02 348.666 258.555C349.652 258.062 350.45 257.38 351.059 256.51C351.669 255.64 352.205 254.653 352.67 253.551H353.105ZM336.002 257.424V260.601H332.521V260.166C332.521 260.166 332.608 260.166 332.782 260.166C332.985 260.166 333.086 260.166 333.086 260.166C333.841 260.166 334.479 259.905 335.001 259.382C335.552 258.831 335.842 258.178 335.871 257.424H336.002ZM336.002 233.315H335.871C335.842 232.561 335.552 231.922 335.001 231.4C334.479 230.849 333.841 230.573 333.086 230.573C333.086 230.573 332.985 230.573 332.782 230.573C332.608 230.573 332.521 230.573 332.521 230.573V230.138H336.002V233.315ZM338.57 233.315V230.138H342.051V230.573C342.022 230.573 341.921 230.573 341.746 230.573C341.572 230.573 341.485 230.573 341.485 230.573C340.731 230.573 340.078 230.849 339.527 231.4C339.005 231.922 338.729 232.561 338.7 233.315H338.57Z" fill="black"/>
<path d="M210.423 230.138V260.601H207.594V230.138H210.423ZM207.725 257.424V260.601H204.243V260.166C204.243 260.166 204.331 260.166 204.505 260.166C204.708 260.166 204.809 260.166 204.809 260.166C205.564 260.166 206.202 259.905 206.724 259.382C207.275 258.831 207.565 258.178 207.594 257.424H207.725ZM207.725 233.315H207.594C207.565 232.561 207.275 231.922 206.724 231.4C206.202 230.849 205.564 230.573 204.809 230.573C204.809 230.573 204.708 230.573 204.505 230.573C204.331 230.573 204.243 230.573 204.243 230.573V230.138H207.725V233.315ZM210.293 257.424H210.423C210.452 258.178 210.728 258.831 211.25 259.382C211.801 259.905 212.454 260.166 213.208 260.166C213.208 260.166 213.295 260.166 213.469 260.166C213.643 260.166 213.745 260.166 213.774 260.166V260.601H210.293V257.424ZM210.293 233.315V230.138H213.774V230.573C213.745 230.573 213.643 230.573 213.469 230.573C213.295 230.573 213.208 230.573 213.208 230.573C212.454 230.573 211.801 230.849 211.25 231.4C210.728 231.922 210.452 232.561 210.423 233.315H210.293Z" fill="#BC1823"/>
<path d="M14.087 288.89C13.4161 288.89 12.7746 288.789 12.1624 288.588C11.5502 288.378 11.0679 288.11 10.7157 287.783L11.1812 286.802C11.5166 287.095 11.9443 287.338 12.4643 287.531C12.9842 287.724 13.5251 287.821 14.087 287.821C14.5986 287.821 15.0137 287.762 15.3324 287.645C15.6511 287.527 15.8859 287.368 16.0368 287.167C16.1878 286.957 16.2633 286.722 16.2633 286.462C16.2633 286.16 16.1626 285.917 15.9614 285.732C15.7685 285.548 15.5127 285.401 15.194 285.292C14.8837 285.175 14.5399 285.074 14.1625 284.99C13.7851 284.906 13.4035 284.81 13.0178 284.701C12.6404 284.584 12.2923 284.437 11.9737 284.261C11.6634 284.085 11.4118 283.85 11.2189 283.556C11.026 283.254 10.9296 282.869 10.9296 282.399C10.9296 281.946 11.047 281.531 11.2818 281.154C11.525 280.768 11.894 280.462 12.3888 280.235C12.892 280 13.5293 279.883 14.3009 279.883C14.8124 279.883 15.3198 279.95 15.823 280.084C16.3262 280.218 16.7623 280.411 17.1313 280.663L16.7161 281.669C16.3388 281.418 15.9404 281.237 15.5211 281.128C15.1018 281.011 14.695 280.952 14.3009 280.952C13.8061 280.952 13.3993 281.015 13.0807 281.141C12.762 281.267 12.5272 281.434 12.3762 281.644C12.2336 281.854 12.1624 282.089 12.1624 282.349C12.1624 282.659 12.2588 282.906 12.4517 283.091C12.653 283.275 12.9087 283.422 13.219 283.531C13.5377 283.64 13.8857 283.741 14.2631 283.833C14.6405 283.917 15.0179 284.013 15.3953 284.122C15.7811 284.231 16.1291 284.374 16.4394 284.55C16.7581 284.726 17.0139 284.961 17.2067 285.254C17.3996 285.548 17.4961 285.925 17.4961 286.387C17.4961 286.831 17.3745 287.246 17.1313 287.632C16.8881 288.009 16.5107 288.315 15.9991 288.55C15.4959 288.777 14.8586 288.89 14.087 288.89ZM28.9698 288.89C28.2989 288.89 27.6741 288.777 27.0954 288.55C26.5251 288.324 26.0303 288.009 25.611 287.607C25.1917 287.196 24.8646 286.718 24.6298 286.173C24.395 285.628 24.2776 285.032 24.2776 284.386C24.2776 283.741 24.395 283.145 24.6298 282.6C24.8646 282.055 25.1917 281.581 25.611 281.179C26.0303 280.768 26.5251 280.449 27.0954 280.223C27.6657 279.996 28.2905 279.883 28.9698 279.883C29.6407 279.883 30.2571 279.996 30.8189 280.223C31.3892 280.441 31.884 280.755 32.3033 281.166C32.731 281.569 33.0581 282.042 33.2845 282.588C33.5194 283.133 33.6368 283.732 33.6368 284.386C33.6368 285.041 33.5194 285.64 33.2845 286.185C33.0581 286.73 32.731 287.208 32.3033 287.619C31.884 288.022 31.3892 288.336 30.8189 288.563C30.2571 288.781 29.6407 288.89 28.9698 288.89ZM28.9698 287.77C29.4562 287.77 29.9048 287.687 30.3158 287.519C30.7351 287.351 31.0957 287.116 31.3976 286.814C31.7079 286.504 31.9469 286.143 32.1146 285.732C32.2908 285.322 32.3788 284.873 32.3788 284.386C32.3788 283.9 32.2908 283.451 32.1146 283.04C31.9469 282.63 31.7079 282.273 31.3976 281.971C31.0957 281.661 30.7351 281.422 30.3158 281.254C29.9048 281.086 29.4562 281.003 28.9698 281.003C28.475 281.003 28.0179 281.086 27.5986 281.254C27.1877 281.422 26.8271 281.661 26.5168 281.971C26.2065 282.273 25.9633 282.63 25.7871 283.04C25.6194 283.451 25.5356 283.9 25.5356 284.386C25.5356 284.873 25.6194 285.322 25.7871 285.732C25.9633 286.143 26.2065 286.504 26.5168 286.814C26.8271 287.116 27.1877 287.351 27.5986 287.519C28.0179 287.687 28.475 287.77 28.9698 287.77ZM45.1576 288.89C44.4867 288.89 43.8661 288.781 43.2959 288.563C42.734 288.336 42.2434 288.022 41.8241 287.619C41.4131 287.208 41.0902 286.73 40.8554 286.185C40.6206 285.64 40.5032 285.041 40.5032 284.386C40.5032 283.732 40.6206 283.133 40.8554 282.588C41.0902 282.042 41.4173 281.569 41.8366 281.166C42.256 280.755 42.7466 280.441 43.3084 280.223C43.8787 279.996 44.4993 279.883 45.1702 279.883C45.8495 279.883 46.4743 280 47.0446 280.235C47.6232 280.462 48.1138 280.801 48.5164 281.254L47.6987 282.047C47.3632 281.694 46.9858 281.434 46.5665 281.267C46.1472 281.091 45.6985 281.003 45.2205 281.003C44.7257 281.003 44.2645 281.086 43.8368 281.254C43.4175 281.422 43.0527 281.657 42.7424 281.959C42.4321 282.261 42.1889 282.621 42.0127 283.04C41.845 283.451 41.7612 283.9 41.7612 284.386C41.7612 284.873 41.845 285.326 42.0127 285.745C42.1889 286.156 42.4321 286.512 42.7424 286.814C43.0527 287.116 43.4175 287.351 43.8368 287.519C44.2645 287.687 44.7257 287.77 45.2205 287.77C45.6985 287.77 46.1472 287.687 46.5665 287.519C46.9858 287.343 47.3632 287.074 47.6987 286.714L48.5164 287.506C48.1138 287.959 47.6232 288.303 47.0446 288.538C46.4743 288.773 45.8453 288.89 45.1576 288.89ZM55.9717 288.789V279.984H57.2296V288.789H55.9717ZM66.6714 283.783H71.2001V284.852H66.6714V283.783ZM66.7847 287.695H71.9171V288.789H65.5267V279.984H71.741V281.078H66.7847V287.695ZM79.6148 288.789V279.984H83.3257C84.265 279.984 85.0911 280.168 85.8039 280.537C86.5251 280.906 87.0828 281.422 87.477 282.084C87.8795 282.747 88.0808 283.514 88.0808 284.386C88.0808 285.259 87.8795 286.026 87.477 286.689C87.0828 287.351 86.5251 287.867 85.8039 288.236C85.0911 288.605 84.265 288.789 83.3257 288.789H79.6148ZM80.8727 287.695H83.2502C83.9799 287.695 84.6088 287.557 85.1372 287.28C85.6739 287.003 86.089 286.617 86.3825 286.122C86.6761 285.619 86.8228 285.041 86.8228 284.386C86.8228 283.724 86.6761 283.145 86.3825 282.651C86.089 282.156 85.6739 281.77 85.1372 281.493C84.6088 281.216 83.9799 281.078 83.2502 281.078H80.8727V287.695ZM94.2121 288.789L98.1998 279.984H99.4452L103.445 288.789H102.125L98.5646 280.688H99.0678L95.5078 288.789H94.2121ZM95.9103 286.588L96.25 285.582H101.206L101.571 286.588H95.9103ZM110.42 288.789V279.984H114.131C115.07 279.984 115.896 280.168 116.609 280.537C117.33 280.906 117.888 281.422 118.282 282.084C118.685 282.747 118.886 283.514 118.886 284.386C118.886 285.259 118.685 286.026 118.282 286.689C117.888 287.351 117.33 287.867 116.609 288.236C115.896 288.605 115.07 288.789 114.131 288.789H110.42ZM111.678 287.695H114.055C114.785 287.695 115.414 287.557 115.942 287.28C116.479 287.003 116.894 286.617 117.188 286.122C117.481 285.619 117.628 285.041 117.628 284.386C117.628 283.724 117.481 283.145 117.188 282.651C116.894 282.156 116.479 281.77 115.942 281.493C115.414 281.216 114.785 281.078 114.055 281.078H111.678V287.695ZM139.488 288.89C138.808 288.89 138.184 288.781 137.613 288.563C137.043 288.336 136.548 288.022 136.129 287.619C135.71 287.208 135.383 286.73 135.148 286.185C134.913 285.64 134.795 285.041 134.795 284.386C134.795 283.732 134.913 283.133 135.148 282.588C135.383 282.042 135.71 281.569 136.129 281.166C136.557 280.755 137.056 280.441 137.626 280.223C138.196 279.996 138.825 279.883 139.513 279.883C140.209 279.883 140.846 279.996 141.425 280.223C142.004 280.449 142.494 280.789 142.897 281.242L142.117 282.022C141.756 281.669 141.362 281.414 140.934 281.254C140.515 281.086 140.058 281.003 139.563 281.003C139.06 281.003 138.59 281.086 138.154 281.254C137.727 281.422 137.353 281.657 137.035 281.959C136.724 282.261 136.481 282.621 136.305 283.04C136.137 283.451 136.053 283.9 136.053 284.386C136.053 284.864 136.137 285.313 136.305 285.732C136.481 286.143 136.724 286.504 137.035 286.814C137.353 287.116 137.727 287.351 138.154 287.519C138.582 287.687 139.047 287.77 139.551 287.77C140.02 287.77 140.469 287.699 140.897 287.557C141.333 287.406 141.735 287.158 142.104 286.814L142.821 287.77C142.385 288.139 141.874 288.42 141.287 288.613C140.708 288.798 140.108 288.89 139.488 288.89ZM141.614 287.607V284.336H142.821V287.77L141.614 287.607ZM152.035 283.783H156.564V284.852H152.035V283.783ZM152.148 287.695H157.281V288.789H150.89V279.984H157.105V281.078H152.148V287.695ZM167.545 288.89C166.874 288.89 166.232 288.789 165.62 288.588C165.008 288.378 164.526 288.11 164.173 287.783L164.639 286.802C164.974 287.095 165.402 287.338 165.922 287.531C166.442 287.724 166.983 287.821 167.545 287.821C168.056 287.821 168.471 287.762 168.79 287.645C169.109 287.527 169.344 287.368 169.495 287.167C169.646 286.957 169.721 286.722 169.721 286.462C169.721 286.16 169.62 285.917 169.419 285.732C169.226 285.548 168.97 285.401 168.652 285.292C168.341 285.175 167.998 285.074 167.62 284.99C167.243 284.906 166.861 284.81 166.476 284.701C166.098 284.584 165.75 284.437 165.431 284.261C165.121 284.085 164.87 283.85 164.677 283.556C164.484 283.254 164.387 282.869 164.387 282.399C164.387 281.946 164.505 281.531 164.74 281.154C164.983 280.768 165.352 280.462 165.847 280.235C166.35 280 166.987 279.883 167.759 279.883C168.27 279.883 168.778 279.95 169.281 280.084C169.784 280.218 170.22 280.411 170.589 280.663L170.174 281.669C169.797 281.418 169.398 281.237 168.979 281.128C168.56 281.011 168.153 280.952 167.759 280.952C167.264 280.952 166.857 281.015 166.538 281.141C166.22 281.267 165.985 281.434 165.834 281.644C165.691 281.854 165.62 282.089 165.62 282.349C165.62 282.659 165.717 282.906 165.909 283.091C166.111 283.275 166.366 283.422 166.677 283.531C166.995 283.64 167.343 283.741 167.721 283.833C168.098 283.917 168.476 284.013 168.853 284.122C169.239 284.231 169.587 284.374 169.897 284.55C170.216 284.726 170.472 284.961 170.664 285.254C170.857 285.548 170.954 285.925 170.954 286.387C170.954 286.831 170.832 287.246 170.589 287.632C170.346 288.009 169.968 288.315 169.457 288.55C168.954 288.777 168.316 288.89 167.545 288.89ZM180.078 288.789V281.078H177.059V279.984H184.343V281.078H181.323V288.789H180.078ZM195.226 288.89C194.555 288.89 193.93 288.777 193.351 288.55C192.781 288.324 192.286 288.009 191.867 287.607C191.448 287.196 191.121 286.718 190.886 286.173C190.651 285.628 190.534 285.032 190.534 284.386C190.534 283.741 190.651 283.145 190.886 282.6C191.121 282.055 191.448 281.581 191.867 281.179C192.286 280.768 192.781 280.449 193.351 280.223C193.922 279.996 194.546 279.883 195.226 279.883C195.897 279.883 196.513 279.996 197.075 280.223C197.645 280.441 198.14 280.755 198.559 281.166C198.987 281.569 199.314 282.042 199.54 282.588C199.775 283.133 199.893 283.732 199.893 284.386C199.893 285.041 199.775 285.64 199.54 286.185C199.314 286.73 198.987 287.208 198.559 287.619C198.14 288.022 197.645 288.336 197.075 288.563C196.513 288.781 195.897 288.89 195.226 288.89ZM195.226 287.77C195.712 287.77 196.161 287.687 196.572 287.519C196.991 287.351 197.352 287.116 197.654 286.814C197.964 286.504 198.203 286.143 198.371 285.732C198.547 285.322 198.635 284.873 198.635 284.386C198.635 283.9 198.547 283.451 198.371 283.04C198.203 282.63 197.964 282.273 197.654 281.971C197.352 281.661 196.991 281.422 196.572 281.254C196.161 281.086 195.712 281.003 195.226 281.003C194.731 281.003 194.274 281.086 193.855 281.254C193.444 281.422 193.083 281.661 192.773 281.971C192.462 282.273 192.219 282.63 192.043 283.04C191.875 283.451 191.791 283.9 191.791 284.386C191.791 284.873 191.875 285.322 192.043 285.732C192.219 286.143 192.462 286.504 192.773 286.814C193.083 287.116 193.444 287.351 193.855 287.519C194.274 287.687 194.731 287.77 195.226 287.77ZM207.476 288.789V279.984H210.91C211.682 279.984 212.34 280.105 212.885 280.348C213.43 280.592 213.85 280.944 214.143 281.405C214.437 281.866 214.584 282.416 214.584 283.053C214.584 283.69 214.437 284.24 214.143 284.701C213.85 285.154 213.43 285.502 212.885 285.745C212.34 285.988 211.682 286.11 210.91 286.11H208.168L208.734 285.531V288.789H207.476ZM213.363 288.789L211.124 285.594H212.47L214.735 288.789H213.363ZM208.734 285.657L208.168 285.041H210.873C211.678 285.041 212.286 284.869 212.697 284.525C213.116 284.173 213.326 283.682 213.326 283.053C213.326 282.424 213.116 281.938 212.697 281.594C212.286 281.25 211.678 281.078 210.873 281.078H208.168L208.734 280.449V285.657ZM220.943 288.789L224.931 279.984H226.176L230.177 288.789H228.856L225.296 280.688H225.799L222.239 288.789H220.943ZM222.642 286.588L222.981 285.582H227.938L228.302 286.588H222.642ZM246.19 288.789V279.984H249.901C250.84 279.984 251.666 280.168 252.379 280.537C253.1 280.906 253.658 281.422 254.052 282.084C254.455 282.747 254.656 283.514 254.656 284.386C254.656 285.259 254.455 286.026 254.052 286.689C253.658 287.351 253.1 287.867 252.379 288.236C251.666 288.605 250.84 288.789 249.901 288.789H246.19ZM247.448 287.695H249.826C250.555 287.695 251.184 287.557 251.713 287.28C252.249 287.003 252.664 286.617 252.958 286.122C253.251 285.619 253.398 285.041 253.398 284.386C253.398 283.724 253.251 283.145 252.958 282.651C252.664 282.156 252.249 281.77 251.713 281.493C251.184 281.216 250.555 281.078 249.826 281.078H247.448V287.695ZM263.388 283.783H267.917V284.852H263.388V283.783ZM263.502 287.695H268.634V288.789H262.244V279.984H268.458V281.078H263.502V287.695ZM285.371 288.789V279.984H286.629V288.789H285.371ZM294.926 288.789V279.984H295.957L301.782 287.217H301.241V279.984H302.499V288.789H301.467L295.643 281.556H296.184V288.789H294.926ZM313.25 288.789L309.376 279.984H310.734L314.294 288.11H313.514L317.1 279.984H318.358L314.496 288.789H313.25ZM326.286 283.783H330.815V284.852H326.286V283.783ZM326.399 287.695H331.532V288.789H325.141V279.984H331.356V281.078H326.399V287.695ZM339.229 288.789V279.984H342.664C343.435 279.984 344.093 280.105 344.639 280.348C345.184 280.592 345.603 280.944 345.896 281.405C346.19 281.866 346.337 282.416 346.337 283.053C346.337 283.69 346.19 284.24 345.896 284.701C345.603 285.154 345.184 285.502 344.639 285.745C344.093 285.988 343.435 286.11 342.664 286.11H339.921L340.487 285.531V288.789H339.229ZM345.117 288.789L342.877 285.594H344.223L346.488 288.789H345.117ZM340.487 285.657L339.921 285.041H342.626C343.431 285.041 344.039 284.869 344.45 284.525C344.869 284.173 345.079 283.682 345.079 283.053C345.079 282.424 344.869 281.938 344.45 281.594C344.039 281.25 343.431 281.078 342.626 281.078H339.921L340.487 280.449V285.657ZM356.596 288.89C355.925 288.89 355.284 288.789 354.671 288.588C354.059 288.378 353.577 288.11 353.225 287.783L353.69 286.802C354.026 287.095 354.453 287.338 354.973 287.531C355.493 287.724 356.034 287.821 356.596 287.821C357.108 287.821 357.523 287.762 357.842 287.645C358.16 287.527 358.395 287.368 358.546 287.167C358.697 286.957 358.772 286.722 358.772 286.462C358.772 286.16 358.672 285.917 358.47 285.732C358.278 285.548 358.022 285.401 357.703 285.292C357.393 285.175 357.049 285.074 356.672 284.99C356.294 284.906 355.913 284.81 355.527 284.701C355.15 284.584 354.801 284.437 354.483 284.261C354.172 284.085 353.921 283.85 353.728 283.556C353.535 283.254 353.439 282.869 353.439 282.399C353.439 281.946 353.556 281.531 353.791 281.154C354.034 280.768 354.403 280.462 354.898 280.235C355.401 280 356.038 279.883 356.81 279.883C357.322 279.883 357.829 279.95 358.332 280.084C358.835 280.218 359.271 280.411 359.64 280.663L359.225 281.669C358.848 281.418 358.45 281.237 358.03 281.128C357.611 281.011 357.204 280.952 356.81 280.952C356.315 280.952 355.908 281.015 355.59 281.141C355.271 281.267 355.036 281.434 354.885 281.644C354.743 281.854 354.671 282.089 354.671 282.349C354.671 282.659 354.768 282.906 354.961 283.091C355.162 283.275 355.418 283.422 355.728 283.531C356.047 283.64 356.395 283.741 356.772 283.833C357.15 283.917 357.527 284.013 357.904 284.122C358.29 284.231 358.638 284.374 358.949 284.55C359.267 284.726 359.523 284.961 359.716 285.254C359.909 285.548 360.005 285.925 360.005 286.387C360.005 286.831 359.884 287.246 359.64 287.632C359.397 288.009 359.02 288.315 358.508 288.55C358.005 288.777 357.368 288.89 356.596 288.89ZM367.504 288.789V279.984H368.762V288.789H367.504ZM381.034 288.89C380.363 288.89 379.738 288.777 379.16 288.55C378.589 288.324 378.094 288.009 377.675 287.607C377.256 287.196 376.929 286.718 376.694 286.173C376.459 285.628 376.342 285.032 376.342 284.386C376.342 283.741 376.459 283.145 376.694 282.6C376.929 282.055 377.256 281.581 377.675 281.179C378.094 280.768 378.589 280.449 379.16 280.223C379.73 279.996 380.355 279.883 381.034 279.883C381.705 279.883 382.321 279.996 382.883 280.223C383.453 280.441 383.948 280.755 384.367 281.166C384.795 281.569 385.122 282.042 385.349 282.588C385.583 283.133 385.701 283.732 385.701 284.386C385.701 285.041 385.583 285.64 385.349 286.185C385.122 286.73 384.795 287.208 384.367 287.619C383.948 288.022 383.453 288.336 382.883 288.563C382.321 288.781 381.705 288.89 381.034 288.89ZM381.034 287.77C381.52 287.77 381.969 287.687 382.38 287.519C382.799 287.351 383.16 287.116 383.462 286.814C383.772 286.504 384.011 286.143 384.179 285.732C384.355 285.322 384.443 284.873 384.443 284.386C384.443 283.9 384.355 283.451 384.179 283.04C384.011 282.63 383.772 282.273 383.462 281.971C383.16 281.661 382.799 281.422 382.38 281.254C381.969 281.086 381.52 281.003 381.034 281.003C380.539 281.003 380.082 281.086 379.663 281.254C379.252 281.422 378.891 281.661 378.581 281.971C378.271 282.273 378.027 282.63 377.851 283.04C377.684 283.451 377.6 283.9 377.6 284.386C377.6 284.873 377.684 285.322 377.851 285.732C378.027 286.143 378.271 286.504 378.581 286.814C378.891 287.116 379.252 287.351 379.663 287.519C380.082 287.687 380.539 287.77 381.034 287.77ZM380.845 279.267L378.732 277.631H380.267L381.977 279.267H380.845ZM393.284 288.789V279.984H394.316L400.14 287.217H399.599V279.984H400.857V288.789H399.826L394.001 281.556H394.542V288.789H393.284Z" fill="black"/>
</svg>
