<svg width="300" height="200" viewBox="0 0 300 200" fill="none" xmlns="http://www.w3.org/2000/svg">
<path d="M61.2275 158.97L60.8399 164.041C60.2801 164.966 59.5696 165.795 58.7084 166.527C57.8686 167.238 56.8674 167.809 55.7048 168.239C54.5636 168.648 53.2502 168.853 51.7646 168.853C49.5253 168.831 47.5337 168.336 45.7897 167.367C44.0456 166.398 42.6784 165.042 41.688 163.298C40.7191 161.532 40.2346 159.454 40.2346 157.064C40.2346 154.718 40.7191 152.672 41.688 150.928C42.6569 149.163 44.0133 147.795 45.7574 146.826C47.5229 145.836 49.5899 145.341 51.9583 145.341C53.5516 145.341 54.9835 145.556 56.2538 145.987C57.5457 146.396 58.6653 146.913 59.6127 147.537L60.2586 152.091H59.9679C59.4942 150.196 58.5253 148.764 57.0612 147.795C55.5971 146.805 53.8961 146.31 51.9583 146.31C50.0636 146.31 48.4165 146.762 47.0169 147.666C45.6389 148.549 44.5624 149.798 43.7873 151.413C43.0337 153.006 42.6569 154.879 42.6569 157.032C42.6569 159.185 43.0337 161.069 43.7873 162.684C44.5624 164.299 45.6282 165.559 46.9846 166.463C48.3626 167.367 49.9559 167.841 51.7646 167.884C53.2933 167.884 54.7036 167.604 55.9954 167.044C57.3088 166.463 58.4069 165.526 59.2897 164.234C60.1725 162.921 60.7323 161.166 60.9691 158.97H61.2275ZM88.9628 145.341L98.5227 168.207H95.7774L88.3169 148.409L88.9628 145.341ZM82.019 166.043C81.8683 166.474 81.8468 166.84 81.9544 167.141C82.0621 167.442 82.2343 167.679 82.4712 167.852C82.7296 168.002 82.9879 168.078 83.2463 168.078H83.537V168.401H77.0453V168.078C77.0453 168.078 77.0992 168.078 77.2068 168.078C77.2929 168.078 77.336 168.078 77.336 168.078C77.8312 168.078 78.3372 167.927 78.8539 167.626C79.3922 167.303 79.8336 166.775 80.1781 166.043H82.019ZM88.9628 145.341L89.2535 147.602L81.147 168.304H79.2092L87.4772 148.667C87.4772 148.667 87.531 148.538 87.6387 148.28C87.7678 148 87.9078 147.666 88.0585 147.279C88.2308 146.891 88.3707 146.514 88.4784 146.148C88.6076 145.782 88.6722 145.513 88.6722 145.341H88.9628ZM93.5167 159.584V160.553H83.4078V159.584H93.5167ZM94.97 166.043H97.6184C97.9413 166.775 98.3719 167.303 98.9102 167.626C99.4485 167.927 99.9652 168.078 100.46 168.078C100.46 168.078 100.504 168.078 100.59 168.078C100.676 168.078 100.719 168.078 100.719 168.078V168.401H93.4521V168.078H93.7427C94.1518 168.078 94.5179 167.905 94.8408 167.561C95.1638 167.195 95.2069 166.689 94.97 166.043ZM120.998 145.793H125.262C126.64 145.793 127.824 146.041 128.814 146.536C129.805 147.031 130.569 147.752 131.107 148.7C131.646 149.625 131.915 150.734 131.915 152.026C131.915 153.017 131.721 153.91 131.333 154.707C130.946 155.482 130.429 156.139 129.783 156.677C129.137 157.215 128.405 157.624 127.587 157.904C126.769 158.163 125.918 158.259 125.036 158.195C124.174 158.13 123.335 157.883 122.516 157.452V157.129C122.516 157.129 122.699 157.161 123.065 157.226C123.431 157.269 123.894 157.28 124.454 157.258C125.036 157.215 125.638 157.097 126.263 156.903C126.909 156.688 127.501 156.322 128.039 155.805C128.599 155.288 129.019 154.567 129.299 153.641C129.363 153.404 129.417 153.114 129.46 152.769C129.503 152.403 129.514 152.048 129.492 151.703C129.471 150.218 129.083 149.023 128.33 148.118C127.576 147.214 126.51 146.762 125.132 146.762H121.321C121.321 146.762 121.289 146.686 121.224 146.536C121.181 146.363 121.128 146.202 121.063 146.051C121.02 145.879 120.998 145.793 120.998 145.793ZM121.418 145.793V168.401H119.319V145.793H121.418ZM119.416 166.043V168.401H116.832V168.078C116.832 168.078 116.897 168.078 117.026 168.078C117.177 168.078 117.252 168.078 117.252 168.078C117.812 168.078 118.285 167.884 118.673 167.496C119.082 167.087 119.297 166.603 119.319 166.043H119.416ZM119.416 148.151H119.319C119.319 147.591 119.114 147.117 118.705 146.73C118.296 146.32 117.812 146.116 117.252 146.116C117.252 146.116 117.187 146.116 117.058 146.116C116.929 146.116 116.864 146.116 116.864 146.116L116.832 145.793H119.416V148.151ZM121.321 166.043H121.418C121.44 166.603 121.644 167.087 122.032 167.496C122.441 167.884 122.925 168.078 123.485 168.078C123.485 168.078 123.55 168.078 123.679 168.078C123.83 168.078 123.905 168.078 123.905 168.078V168.401H121.321V166.043ZM184.56 145.89V168.401H182.46V145.89H184.56ZM192.86 145.761V146.73H174.16V145.761H192.86ZM192.86 146.633V149.249L192.537 149.216V148.667C192.537 148.129 192.343 147.677 191.956 147.311C191.59 146.945 191.148 146.751 190.631 146.73V146.633H192.86ZM192.86 145.179V146.116L188.92 145.761C189.393 145.761 189.889 145.728 190.405 145.664C190.944 145.599 191.439 145.524 191.891 145.438C192.343 145.352 192.666 145.265 192.86 145.179ZM182.557 166.043V168.401H179.974V168.078C179.974 168.078 180.038 168.078 180.167 168.078C180.318 168.078 180.393 168.078 180.393 168.078C180.953 168.078 181.427 167.884 181.814 167.496C182.224 167.087 182.439 166.603 182.46 166.043H182.557ZM184.463 166.043H184.56C184.581 166.603 184.786 167.087 185.173 167.496C185.582 167.884 186.067 168.078 186.627 168.078C186.627 168.078 186.691 168.078 186.82 168.078C186.971 168.078 187.047 168.078 187.047 168.078V168.401H184.463V166.043ZM176.389 146.633V146.73C175.85 146.751 175.398 146.945 175.032 147.311C174.666 147.677 174.483 148.129 174.483 148.667V149.216L174.16 149.249V146.633H176.389ZM174.16 145.179C174.375 145.265 174.698 145.352 175.129 145.438C175.581 145.524 176.076 145.599 176.615 145.664C177.153 145.728 177.648 145.761 178.1 145.761L174.16 146.116V145.179ZM217.336 145.341L226.896 168.207H224.151L216.69 148.409L217.336 145.341ZM210.392 166.043C210.242 166.474 210.22 166.84 210.328 167.141C210.435 167.442 210.608 167.679 210.844 167.852C211.103 168.002 211.361 168.078 211.62 168.078H211.91V168.401H205.419V168.078C205.419 168.078 205.472 168.078 205.58 168.078C205.666 168.078 205.709 168.078 205.709 168.078C206.204 168.078 206.71 167.927 207.227 167.626C207.765 167.303 208.207 166.775 208.551 166.043H210.392ZM217.336 145.341L217.627 147.602L209.52 168.304H207.582L215.85 148.667C215.85 148.667 215.904 148.538 216.012 148.28C216.141 148 216.281 147.666 216.432 147.279C216.604 146.891 216.744 146.514 216.852 146.148C216.981 145.782 217.045 145.513 217.045 145.341H217.336ZM221.89 159.584V160.553H211.781V159.584H221.89ZM223.343 166.043H225.992C226.315 166.775 226.745 167.303 227.283 167.626C227.822 167.927 228.338 168.078 228.834 168.078C228.834 168.078 228.877 168.078 228.963 168.078C229.049 168.078 229.092 168.078 229.092 168.078V168.401H221.825V168.078H222.116C222.525 168.078 222.891 167.905 223.214 167.561C223.537 167.195 223.58 166.689 223.343 166.043ZM249.792 145.793V168.401H247.692V145.793H249.792ZM258.512 167.399V168.401H249.695V167.399H258.512ZM260.482 163.169L258.609 168.401H253.247L254.41 167.399C255.551 167.399 256.477 167.227 257.187 166.883C257.92 166.517 258.512 166.011 258.964 165.365C259.416 164.719 259.814 163.987 260.159 163.169H260.482ZM247.789 166.043V168.401H245.205V168.078C245.205 168.078 245.27 168.078 245.399 168.078C245.55 168.078 245.625 168.078 245.625 168.078C246.185 168.078 246.659 167.884 247.046 167.496C247.455 167.087 247.671 166.603 247.692 166.043H247.789ZM247.789 148.151H247.692C247.671 147.591 247.455 147.117 247.046 146.73C246.659 146.32 246.185 146.116 245.625 146.116C245.625 146.116 245.55 146.116 245.399 146.116C245.27 146.116 245.205 146.116 245.205 146.116V145.793H247.789V148.151ZM249.695 148.151V145.793H252.278V146.116C252.257 146.116 252.181 146.116 252.052 146.116C251.923 146.116 251.858 146.116 251.858 146.116C251.299 146.116 250.814 146.32 250.405 146.73C250.018 147.117 249.813 147.591 249.792 148.151H249.695Z" fill="white"/>
<path d="M154.592 145.793V168.401H152.493V145.793H154.592ZM152.589 166.043V168.401H150.006V168.078C150.006 168.078 150.07 168.078 150.199 168.078C150.35 168.078 150.426 168.078 150.426 168.078C150.985 168.078 151.459 167.884 151.847 167.496C152.256 167.087 152.471 166.603 152.493 166.043H152.589ZM152.589 148.151H152.493C152.471 147.591 152.256 147.117 151.847 146.73C151.459 146.32 150.985 146.116 150.426 146.116C150.426 146.116 150.35 146.116 150.199 146.116C150.07 146.116 150.006 146.116 150.006 146.116V145.793H152.589V148.151ZM154.495 166.043H154.592C154.613 166.603 154.818 167.087 155.205 167.496C155.615 167.884 156.099 168.078 156.659 168.078C156.659 168.078 156.723 168.078 156.853 168.078C156.982 168.078 157.057 168.078 157.079 168.078V168.401H154.495V166.043ZM154.495 148.151V145.793H157.079V146.116C157.057 146.116 156.982 146.116 156.853 146.116C156.723 146.116 156.659 146.116 156.659 146.116C156.099 146.116 155.615 146.32 155.205 146.73C154.818 147.117 154.613 147.591 154.592 148.151H154.495Z" fill="#BC1823"/>
<path d="M117.778 136.674V132.483C120.904 132.42 123.406 132.201 125.291 131.831C127.189 131.467 128.643 130.839 129.65 129.949C130.651 129.064 131.337 127.815 131.707 126.209C132.07 124.591 132.255 122.489 132.255 119.911V68.4913C132.255 65.919 132.104 63.8424 131.816 62.2677C131.542 60.6805 130.973 59.4257 130.116 58.5035C129.273 57.5875 128.046 56.9665 126.442 56.6465C124.852 56.314 122.768 56.0693 120.191 55.9187V51.7279H128.754H131.174H133.579H139.351L141.117 53.6607L143.136 51.7279H156.219C167.077 51.7279 175.509 53.4971 181.527 57.0229C187.56 60.555 190.576 65.5238 190.576 71.9293C190.576 76.7851 188.903 80.7564 185.558 83.8493C182.227 86.9297 176.955 89.4643 169.737 91.453V91.8797C172.219 92.0992 174.385 92.3565 176.236 92.6576C178.079 92.9587 179.725 93.3101 181.171 93.7116C182.61 94.1131 183.954 94.6087 185.202 95.1922C186.463 95.7819 187.697 96.4406 188.903 97.1747C196.046 101.811 199.624 107.627 199.624 114.616C199.624 118.518 198.431 122.138 196.06 125.482C193.702 128.832 190.391 131.454 186.134 133.361C184.763 134.033 183.351 134.566 181.911 134.967C180.465 135.369 178.772 135.708 176.839 135.971C174.919 136.222 172.685 136.41 170.148 136.523C167.626 136.624 164.637 136.674 161.182 136.674H117.778ZM161.539 131.931C176.071 131.931 183.337 126.234 183.337 114.841C183.337 106.529 179.608 100.713 172.15 97.4005C170.848 96.8861 169.6 96.4406 168.394 96.0705C167.187 95.7066 165.775 95.4306 164.171 95.2424C162.581 95.0604 160.675 94.9349 158.468 94.8659C156.254 94.8032 153.539 94.7656 150.324 94.7656H144.895V119.358C144.895 123.844 146.17 127.063 148.734 129.02C151.311 130.965 155.575 131.931 161.539 131.931ZM151.64 89.2447C154.142 89.2447 156.233 89.2133 157.919 89.1443C159.599 89.0628 161.045 88.931 162.252 88.7428C163.458 88.5609 164.514 88.3036 165.432 87.9649C166.365 87.6324 167.311 87.1744 168.284 86.5846C170.861 85.1166 172.685 83.3474 173.768 81.2896C174.844 79.2319 175.386 76.5467 175.386 73.2342C175.386 67.431 173.836 63.2653 170.752 60.737C167.66 58.1961 162.814 56.9225 156.219 56.9225H147.678C146.307 56.9225 142.764 60.9337 143.262 62.2677V68.4913L143.641 89.2447H151.64Z" fill="white"/>
<path d="M109.711 22.6726C108.605 20.7684 107.57 19.2071 106.612 17.9889C105.648 16.7766 104.673 15.8067 103.679 15.0793C102.698 14.3401 101.657 13.8434 100.557 13.5891C99.4509 13.3229 98.1262 13.1869 96.5827 13.1869V9H131.332V13.1869C127.654 13.1869 125.063 13.4649 123.549 14.0149C122.035 14.5707 121.279 15.5465 121.279 16.9481C121.279 18.4797 122.13 20.6797 123.833 23.5478L140.936 52.7854H141.362L153.828 31.8271C156.193 27.853 157.861 24.7306 158.843 22.4597C159.836 20.177 160.333 18.3378 160.333 16.9481C160.333 15.5465 159.795 14.5707 158.724 14.0149C157.666 13.4649 155.815 13.1869 153.165 13.1869V9H178.429V13.1869C176.88 13.1869 175.502 13.4117 174.289 13.8493C173.089 14.2928 171.829 15.174 170.505 16.4986C169.18 17.8233 167.719 19.6625 166.128 22.0102C164.549 24.3639 162.616 27.4509 160.333 31.283L143.349 59.9529V73.105C143.349 76.7006 143.473 79.5865 143.727 81.7628C143.993 83.9272 144.543 85.5949 145.383 86.7776C146.235 87.9485 147.447 88.7351 149.026 89.1431C150.617 89.5571 152.74 89.7581 155.389 89.7581V93.9451H119.623V89.7581C122.272 89.7581 124.383 89.5571 125.962 89.1431C127.553 88.7351 128.765 87.9604 129.605 86.8249C130.457 85.6895 131.024 84.0987 131.308 82.0466C131.604 79.9827 131.758 77.2565 131.758 73.862V60.4023L109.711 22.6726Z" fill="white"/>
<path d="M8.88469 189.4C8.38678 189.4 7.91066 189.325 7.45632 189.176C7.00198 189.02 6.64411 188.821 6.38271 188.578L6.72813 187.85C6.97708 188.068 7.2945 188.248 7.68038 188.391C8.06626 188.535 8.46769 188.606 8.88469 188.606C9.26435 188.606 9.57243 188.563 9.80893 188.475C10.0454 188.388 10.2197 188.27 10.3317 188.121C10.4438 187.965 10.4998 187.791 10.4998 187.598C10.4998 187.374 10.4251 187.193 10.2757 187.056C10.1326 186.919 9.94274 186.811 9.70624 186.73C9.47596 186.642 9.22078 186.568 8.94071 186.506C8.66063 186.443 8.37745 186.372 8.09115 186.291C7.81108 186.204 7.55279 186.095 7.31628 185.964C7.086 185.833 6.89928 185.659 6.75614 185.441C6.61299 185.217 6.54141 184.931 6.54141 184.582C6.54141 184.246 6.62855 183.938 6.80281 183.658C6.98331 183.372 7.25716 183.145 7.62436 182.977C7.99779 182.802 8.47081 182.715 9.0434 182.715C9.42305 182.715 9.7996 182.765 10.173 182.865C10.5465 182.964 10.8701 183.107 11.1439 183.294L10.8359 184.041C10.5558 183.854 10.2602 183.72 9.94897 183.639C9.63778 183.552 9.33592 183.509 9.0434 183.509C8.67619 183.509 8.37434 183.555 8.13783 183.649C7.90132 183.742 7.72706 183.867 7.61503 184.022C7.50922 184.178 7.45632 184.352 7.45632 184.545C7.45632 184.775 7.52789 184.959 7.67104 185.096C7.82041 185.233 8.01024 185.342 8.24052 185.423C8.47703 185.504 8.73532 185.578 9.01539 185.647C9.29546 185.709 9.57554 185.78 9.85561 185.861C10.1419 185.942 10.4002 186.048 10.6305 186.179C10.867 186.309 11.0568 186.484 11.2 186.702C11.3431 186.919 11.4147 187.2 11.4147 187.542C11.4147 187.872 11.3244 188.18 11.1439 188.466C10.9635 188.746 10.6834 188.973 10.3037 189.148C9.9303 189.316 9.45728 189.4 8.88469 189.4ZM19.9298 189.4C19.4319 189.4 18.9682 189.316 18.5387 189.148C18.1155 188.98 17.7483 188.746 17.4371 188.447C17.1259 188.142 16.8832 187.788 16.7089 187.383C16.5347 186.979 16.4475 186.537 16.4475 186.057C16.4475 185.578 16.5347 185.136 16.7089 184.732C16.8832 184.327 17.1259 183.976 17.4371 183.677C17.7483 183.372 18.1155 183.135 18.5387 182.967C18.962 182.799 19.4256 182.715 19.9298 182.715C20.4277 182.715 20.8851 182.799 21.3021 182.967C21.7254 183.129 22.0926 183.363 22.4038 183.667C22.7212 183.966 22.9639 184.318 23.1319 184.722C23.3062 185.127 23.3933 185.572 23.3933 186.057C23.3933 186.543 23.3062 186.988 23.1319 187.392C22.9639 187.797 22.7212 188.152 22.4038 188.457C22.0926 188.755 21.7254 188.989 21.3021 189.157C20.8851 189.319 20.4277 189.4 19.9298 189.4ZM19.9298 188.569C20.2908 188.569 20.6237 188.507 20.9287 188.382C21.2399 188.258 21.5075 188.083 21.7316 187.859C21.9619 187.629 22.1392 187.361 22.2637 187.056C22.3944 186.751 22.4598 186.418 22.4598 186.057C22.4598 185.696 22.3944 185.363 22.2637 185.059C22.1392 184.754 21.9619 184.489 21.7316 184.265C21.5075 184.035 21.2399 183.857 20.9287 183.733C20.6237 183.608 20.2908 183.546 19.9298 183.546C19.5626 183.546 19.2234 183.608 18.9122 183.733C18.6072 183.857 18.3396 184.035 18.1093 184.265C17.879 184.489 17.6985 184.754 17.5678 185.059C17.4434 185.363 17.3811 185.696 17.3811 186.057C17.3811 186.418 17.4434 186.751 17.5678 187.056C17.6985 187.361 17.879 187.629 18.1093 187.859C18.3396 188.083 18.6072 188.258 18.9122 188.382C19.2234 188.507 19.5626 188.569 19.9298 188.569ZM31.9435 189.4C31.4455 189.4 30.985 189.319 30.5618 189.157C30.1448 188.989 29.7807 188.755 29.4695 188.457C29.1645 188.152 28.9249 187.797 28.7506 187.392C28.5764 186.988 28.4892 186.543 28.4892 186.057C28.4892 185.572 28.5764 185.127 28.7506 184.722C28.9249 184.318 29.1676 183.966 29.4788 183.667C29.79 183.363 30.1541 183.129 30.5711 182.967C30.9943 182.799 31.4549 182.715 31.9528 182.715C32.4569 182.715 32.9206 182.802 33.3438 182.977C33.7733 183.145 34.1374 183.397 34.4361 183.733L33.8293 184.321C33.5803 184.06 33.3003 183.867 32.9891 183.742C32.6779 183.611 32.3449 183.546 31.9901 183.546C31.6229 183.546 31.2806 183.608 30.9632 183.733C30.652 183.857 30.3813 184.032 30.151 184.256C29.9207 184.48 29.7402 184.747 29.6095 185.059C29.485 185.363 29.4228 185.696 29.4228 186.057C29.4228 186.418 29.485 186.755 29.6095 187.066C29.7402 187.371 29.9207 187.635 30.151 187.859C30.3813 188.083 30.652 188.258 30.9632 188.382C31.2806 188.507 31.6229 188.569 31.9901 188.569C32.3449 188.569 32.6779 188.507 32.9891 188.382C33.3003 188.251 33.5803 188.052 33.8293 187.785L34.4361 188.373C34.1374 188.709 33.7733 188.964 33.3438 189.138C32.9206 189.313 32.4538 189.4 31.9435 189.4ZM39.969 189.325V182.79H40.9026V189.325H39.969ZM47.9097 185.609H51.2706V186.403H47.9097V185.609ZM47.9938 188.513H51.8027V189.325H47.0602V182.79H51.672V183.602H47.9938V188.513ZM57.5155 189.325V182.79H60.2696C60.9666 182.79 61.5797 182.927 62.1087 183.201C62.644 183.475 63.0578 183.857 63.3504 184.349C63.6491 184.841 63.7985 185.41 63.7985 186.057C63.7985 186.705 63.6491 187.274 63.3504 187.766C63.0578 188.258 62.644 188.64 62.1087 188.914C61.5797 189.188 60.9666 189.325 60.2696 189.325H57.5155ZM58.4491 188.513H60.2135C60.755 188.513 61.2218 188.41 61.6139 188.205C62.0122 187.999 62.3203 187.713 62.5381 187.346C62.756 186.972 62.8649 186.543 62.8649 186.057C62.8649 185.566 62.756 185.136 62.5381 184.769C62.3203 184.402 62.0122 184.116 61.6139 183.91C61.2218 183.705 60.755 183.602 60.2135 183.602H58.4491V188.513ZM68.3488 189.325L71.3082 182.79H72.2325L75.2012 189.325H74.221L71.579 183.313H71.9524L69.3104 189.325H68.3488ZM69.6091 187.691L69.8612 186.944H73.5395L73.8102 187.691H69.6091ZM80.3772 189.325V182.79H83.1312C83.8283 182.79 84.4414 182.927 84.9704 183.201C85.5056 183.475 85.9195 183.857 86.212 184.349C86.5108 184.841 86.6602 185.41 86.6602 186.057C86.6602 186.705 86.5108 187.274 86.212 187.766C85.9195 188.258 85.5056 188.64 84.9704 188.914C84.4414 189.188 83.8283 189.325 83.1312 189.325H80.3772ZM81.3108 188.513H83.0752C83.6167 188.513 84.0835 188.41 84.4756 188.205C84.8739 187.999 85.182 187.713 85.3998 187.346C85.6177 186.972 85.7266 186.543 85.7266 186.057C85.7266 185.566 85.6177 185.136 85.3998 184.769C85.182 184.402 84.8739 184.116 84.4756 183.91C84.0835 183.705 83.6167 183.602 83.0752 183.602H81.3108V188.513ZM101.95 189.4C101.445 189.4 100.982 189.319 100.559 189.157C100.135 188.989 99.7681 188.755 99.4569 188.457C99.1458 188.152 98.903 187.797 98.7288 187.392C98.5545 186.988 98.4674 186.543 98.4674 186.057C98.4674 185.572 98.5545 185.127 98.7288 184.722C98.903 184.318 99.1458 183.966 99.4569 183.667C99.7744 183.363 100.145 183.129 100.568 182.967C100.991 182.799 101.458 182.715 101.968 182.715C102.485 182.715 102.958 182.799 103.387 182.967C103.817 183.135 104.181 183.387 104.48 183.723L103.901 184.302C103.633 184.041 103.341 183.851 103.023 183.733C102.712 183.608 102.373 183.546 102.006 183.546C101.632 183.546 101.284 183.608 100.96 183.733C100.643 183.857 100.366 184.032 100.129 184.256C99.8988 184.48 99.7184 184.747 99.5877 185.059C99.4632 185.363 99.4009 185.696 99.4009 186.057C99.4009 186.412 99.4632 186.745 99.5877 187.056C99.7184 187.361 99.8988 187.629 100.129 187.859C100.366 188.083 100.643 188.258 100.96 188.382C101.277 188.507 101.623 188.569 101.996 188.569C102.345 188.569 102.678 188.516 102.995 188.41C103.319 188.298 103.618 188.114 103.891 187.859L104.424 188.569C104.1 188.843 103.72 189.051 103.285 189.194C102.855 189.331 102.41 189.4 101.95 189.4ZM103.527 188.447V186.02H104.424V188.569L103.527 188.447ZM111.262 185.609H114.623V186.403H111.262V185.609ZM111.346 188.513H115.155V189.325H110.412V182.79H115.024V183.602H111.346V188.513ZM122.772 189.4C122.274 189.4 121.798 189.325 121.344 189.176C120.889 189.02 120.531 188.821 120.27 188.578L120.615 187.85C120.864 188.068 121.182 188.248 121.568 188.391C121.953 188.535 122.355 188.606 122.772 188.606C123.152 188.606 123.46 188.563 123.696 188.475C123.933 188.388 124.107 188.27 124.219 188.121C124.331 187.965 124.387 187.791 124.387 187.598C124.387 187.374 124.312 187.193 124.163 187.056C124.02 186.919 123.83 186.811 123.593 186.73C123.363 186.642 123.108 186.568 122.828 186.506C122.548 186.443 122.265 186.372 121.978 186.291C121.698 186.204 121.44 186.095 121.204 185.964C120.973 185.833 120.787 185.659 120.643 185.441C120.5 185.217 120.429 184.931 120.429 184.582C120.429 184.246 120.516 183.938 120.69 183.658C120.871 183.372 121.144 183.145 121.512 182.977C121.885 182.802 122.358 182.715 122.931 182.715C123.31 182.715 123.687 182.765 124.06 182.865C124.434 182.964 124.757 183.107 125.031 183.294L124.723 184.041C124.443 183.854 124.147 183.72 123.836 183.639C123.525 183.552 123.223 183.509 122.931 183.509C122.563 183.509 122.262 183.555 122.025 183.649C121.789 183.742 121.614 183.867 121.502 184.022C121.396 184.178 121.344 184.352 121.344 184.545C121.344 184.775 121.415 184.959 121.558 185.096C121.708 185.233 121.897 185.342 122.128 185.423C122.364 185.504 122.623 185.578 122.903 185.647C123.183 185.709 123.463 185.78 123.743 185.861C124.029 185.942 124.287 186.048 124.518 186.179C124.754 186.309 124.944 186.484 125.087 186.702C125.23 186.919 125.302 187.2 125.302 187.542C125.302 187.872 125.212 188.18 125.031 188.466C124.851 188.746 124.571 188.973 124.191 189.148C123.818 189.316 123.345 189.4 122.772 189.4ZM132.073 189.325V183.602H129.833V182.79H135.238V183.602H132.998V189.325H132.073ZM143.315 189.4C142.817 189.4 142.353 189.316 141.924 189.148C141.501 188.98 141.134 188.746 140.822 188.447C140.511 188.142 140.268 187.788 140.094 187.383C139.92 186.979 139.833 186.537 139.833 186.057C139.833 185.578 139.92 185.136 140.094 184.732C140.268 184.327 140.511 183.976 140.822 183.677C141.134 183.372 141.501 183.135 141.924 182.967C142.347 182.799 142.811 182.715 143.315 182.715C143.813 182.715 144.27 182.799 144.687 182.967C145.111 183.129 145.478 183.363 145.789 183.667C146.106 183.966 146.349 184.318 146.517 184.722C146.691 185.127 146.779 185.572 146.779 186.057C146.779 186.543 146.691 186.988 146.517 187.392C146.349 187.797 146.106 188.152 145.789 188.457C145.478 188.755 145.111 188.989 144.687 189.157C144.27 189.319 143.813 189.4 143.315 189.4ZM143.315 188.569C143.676 188.569 144.009 188.507 144.314 188.382C144.625 188.258 144.893 188.083 145.117 187.859C145.347 187.629 145.525 187.361 145.649 187.056C145.78 186.751 145.845 186.418 145.845 186.057C145.845 185.696 145.78 185.363 145.649 185.059C145.525 184.754 145.347 184.489 145.117 184.265C144.893 184.035 144.625 183.857 144.314 183.733C144.009 183.608 143.676 183.546 143.315 183.546C142.948 183.546 142.609 183.608 142.297 183.733C141.992 183.857 141.725 184.035 141.495 184.265C141.264 184.489 141.084 184.754 140.953 185.059C140.829 185.363 140.766 185.696 140.766 186.057C140.766 186.418 140.829 186.751 140.953 187.056C141.084 187.361 141.264 187.629 141.495 187.859C141.725 188.083 141.992 188.258 142.297 188.382C142.609 188.507 142.948 188.569 143.315 188.569ZM152.407 189.325V182.79H154.955C155.528 182.79 156.016 182.88 156.421 183.061C156.826 183.241 157.137 183.503 157.355 183.845C157.572 184.187 157.681 184.595 157.681 185.068C157.681 185.541 157.572 185.949 157.355 186.291C157.137 186.627 156.826 186.885 156.421 187.066C156.016 187.246 155.528 187.336 154.955 187.336H152.92L153.34 186.907V189.325H152.407ZM156.776 189.325L155.114 186.954H156.113L157.793 189.325H156.776ZM153.34 187L152.92 186.543H154.927C155.525 186.543 155.976 186.415 156.281 186.16C156.592 185.899 156.748 185.535 156.748 185.068C156.748 184.601 156.592 184.24 156.281 183.985C155.976 183.73 155.525 183.602 154.927 183.602H152.92L153.34 183.135V187ZM162.401 189.325L165.361 182.79H166.285L169.254 189.325H168.273L165.631 183.313H166.005L163.363 189.325H162.401ZM163.661 187.691L163.914 186.944H167.592L167.863 187.691H163.661ZM181.138 189.325V182.79H183.892C184.589 182.79 185.202 182.927 185.731 183.201C186.266 183.475 186.68 183.857 186.973 184.349C187.271 184.841 187.421 185.41 187.421 186.057C187.421 186.705 187.271 187.274 186.973 187.766C186.68 188.258 186.266 188.64 185.731 188.914C185.202 189.188 184.589 189.325 183.892 189.325H181.138ZM182.071 188.513H183.836C184.377 188.513 184.844 188.41 185.236 188.205C185.635 187.999 185.943 187.713 186.16 187.346C186.378 186.972 186.487 186.543 186.487 186.057C186.487 185.566 186.378 185.136 186.16 184.769C185.943 184.402 185.635 184.116 185.236 183.91C184.844 183.705 184.377 183.602 183.836 183.602H182.071V188.513ZM193.901 185.609H197.262V186.403H193.901V185.609ZM193.985 188.513H197.794V189.325H193.052V182.79H197.664V183.602H193.985V188.513ZM210.215 189.325V182.79H211.149V189.325H210.215ZM217.307 189.325V182.79H218.072L222.395 188.158H221.993V182.79H222.927V189.325H222.161L217.839 183.957H218.24V189.325H217.307ZM230.906 189.325L228.031 182.79H229.039L231.681 188.821H231.102L233.763 182.79H234.696L231.83 189.325H230.906ZM240.58 185.609H243.941V186.403H240.58V185.609ZM240.664 188.513H244.473V189.325H239.731V182.79H244.343V183.602H240.664V188.513ZM250.186 189.325V182.79H252.735C253.307 182.79 253.796 182.88 254.2 183.061C254.605 183.241 254.916 183.503 255.134 183.845C255.352 184.187 255.461 184.595 255.461 185.068C255.461 185.541 255.352 185.949 255.134 186.291C254.916 186.627 254.605 186.885 254.2 187.066C253.796 187.246 253.307 187.336 252.735 187.336H250.7L251.12 186.907V189.325H250.186ZM254.555 189.325L252.893 186.954H253.892L255.573 189.325H254.555ZM251.12 187L250.7 186.543H252.707C253.304 186.543 253.755 186.415 254.06 186.16C254.372 185.899 254.527 185.535 254.527 185.068C254.527 184.601 254.372 184.24 254.06 183.985C253.755 183.73 253.304 183.602 252.707 183.602H250.7L251.12 183.135V187ZM263.075 189.4C262.577 189.4 262.101 189.325 261.646 189.176C261.192 189.02 260.834 188.821 260.573 188.578L260.918 187.85C261.167 188.068 261.484 188.248 261.87 188.391C262.256 188.535 262.658 188.606 263.075 188.606C263.454 188.606 263.762 188.563 263.999 188.475C264.235 188.388 264.41 188.27 264.522 188.121C264.634 187.965 264.69 187.791 264.69 187.598C264.69 187.374 264.615 187.193 264.466 187.056C264.323 186.919 264.133 186.811 263.896 186.73C263.666 186.642 263.411 186.568 263.131 186.506C262.851 186.443 262.567 186.372 262.281 186.291C262.001 186.204 261.743 186.095 261.506 185.964C261.276 185.833 261.089 185.659 260.946 185.441C260.803 185.217 260.731 184.931 260.731 184.582C260.731 184.246 260.819 183.938 260.993 183.658C261.173 183.372 261.447 183.145 261.814 182.977C262.188 182.802 262.661 182.715 263.233 182.715C263.613 182.715 263.99 182.765 264.363 182.865C264.736 182.964 265.06 183.107 265.334 183.294L265.026 184.041C264.746 183.854 264.45 183.72 264.139 183.639C263.828 183.552 263.526 183.509 263.233 183.509C262.866 183.509 262.564 183.555 262.328 183.649C262.091 183.742 261.917 183.867 261.805 184.022C261.699 184.178 261.646 184.352 261.646 184.545C261.646 184.775 261.718 184.959 261.861 185.096C262.01 185.233 262.2 185.342 262.43 185.423C262.667 185.504 262.925 185.578 263.205 185.647C263.485 185.709 263.765 185.78 264.046 185.861C264.332 185.942 264.59 186.048 264.82 186.179C265.057 186.309 265.247 186.484 265.39 186.702C265.533 186.919 265.605 187.2 265.605 187.542C265.605 187.872 265.514 188.18 265.334 188.466C265.153 188.746 264.873 188.973 264.494 189.148C264.12 189.316 263.647 189.4 263.075 189.4ZM271.17 189.325V182.79H272.103V189.325H271.17ZM281.211 189.4C280.713 189.4 280.249 189.316 279.82 189.148C279.397 188.98 279.029 188.746 278.718 188.447C278.407 188.142 278.164 187.788 277.99 187.383C277.816 186.979 277.729 186.537 277.729 186.057C277.729 185.578 277.816 185.136 277.99 184.732C278.164 184.327 278.407 183.976 278.718 183.677C279.029 183.372 279.397 183.135 279.82 182.967C280.243 182.799 280.707 182.715 281.211 182.715C281.709 182.715 282.166 182.799 282.583 182.967C283.006 183.129 283.374 183.363 283.685 183.667C284.002 183.966 284.245 184.318 284.413 184.722C284.587 185.127 284.674 185.572 284.674 186.057C284.674 186.543 284.587 186.988 284.413 187.392C284.245 187.797 284.002 188.152 283.685 188.457C283.374 188.755 283.006 188.989 282.583 189.157C282.166 189.319 281.709 189.4 281.211 189.4ZM281.211 188.569C281.572 188.569 281.905 188.507 282.21 188.382C282.521 188.258 282.789 188.083 283.013 187.859C283.243 187.629 283.42 187.361 283.545 187.056C283.676 186.751 283.741 186.418 283.741 186.057C283.741 185.696 283.676 185.363 283.545 185.059C283.42 184.754 283.243 184.489 283.013 184.265C282.789 184.035 282.521 183.857 282.21 183.733C281.905 183.608 281.572 183.546 281.211 183.546C280.844 183.546 280.504 183.608 280.193 183.733C279.888 183.857 279.621 184.035 279.39 184.265C279.16 184.489 278.98 184.754 278.849 185.059C278.724 185.363 278.662 185.696 278.662 186.057C278.662 186.418 278.724 186.751 278.849 187.056C278.98 187.361 279.16 187.629 279.39 187.859C279.621 188.083 279.888 188.258 280.193 188.382C280.504 188.507 280.844 188.569 281.211 188.569ZM281.071 182.258L279.502 181.044H280.641L281.911 182.258H281.071ZM290.302 189.325V182.79H291.068L295.39 188.158H294.989V182.79H295.923V189.325H295.157L290.835 183.957H291.236V189.325H290.302Z" fill="white"/>
</svg>
