<svg width="120" height="90" viewBox="0 0 120 90" fill="none" xmlns="http://www.w3.org/2000/svg">
<path d="M23.8879 67.7541L23.7343 69.7637C23.5124 70.1306 23.2308 70.4592 22.8895 70.7493C22.5567 71.0309 22.1599 71.257 21.6991 71.4277C21.2468 71.5898 20.7263 71.6709 20.1375 71.6709C19.2501 71.6624 18.4607 71.4661 17.7695 71.0821C17.0783 70.6981 16.5365 70.1605 16.1439 69.4693C15.7599 68.7696 15.5679 67.9461 15.5679 66.9989C15.5679 66.0688 15.7599 65.2581 16.1439 64.5669C16.5279 63.8672 17.0655 63.3253 17.7567 62.9413C18.4565 62.5488 19.2757 62.3525 20.2143 62.3525C20.8458 62.3525 21.4132 62.4378 21.9167 62.6085C22.4287 62.7706 22.8724 62.9754 23.2479 63.2229L23.5039 65.0277H23.3887C23.201 64.2768 22.817 63.7093 22.2367 63.3253C21.6564 62.9328 20.9823 62.7365 20.2143 62.7365C19.4634 62.7365 18.8106 62.9157 18.2559 63.2741C17.7098 63.624 17.2831 64.1189 16.9759 64.7589C16.6773 65.3904 16.5279 66.1328 16.5279 66.9861C16.5279 67.8394 16.6773 68.5861 16.9759 69.2261C17.2831 69.8661 17.7055 70.3653 18.2431 70.7237C18.7893 71.0821 19.4207 71.2698 20.1375 71.2869C20.7434 71.2869 21.3023 71.176 21.8143 70.9541C22.3348 70.7237 22.77 70.3525 23.1199 69.8405C23.4698 69.32 23.6916 68.6245 23.7855 67.7541H23.8879ZM34.8801 62.3525L38.6689 71.4149H37.5809L34.6241 63.5685L34.8801 62.3525ZM32.1281 70.5573C32.0684 70.728 32.0598 70.873 32.1025 70.9925C32.1452 71.112 32.2134 71.2058 32.3073 71.2741C32.4097 71.3338 32.5121 71.3637 32.6145 71.3637H32.7297V71.4917H30.1569V71.3637C30.1569 71.3637 30.1782 71.3637 30.2209 71.3637C30.255 71.3637 30.2721 71.3637 30.2721 71.3637C30.4684 71.3637 30.6689 71.304 30.8737 71.1845C31.087 71.0565 31.262 70.8474 31.3985 70.5573H32.1281ZM34.8801 62.3525L34.9953 63.2485L31.7825 71.4533H31.0145L34.2913 63.6709C34.2913 63.6709 34.3126 63.6197 34.3553 63.5173C34.4065 63.4064 34.462 63.2741 34.5217 63.1205C34.59 62.9669 34.6454 62.8176 34.6881 62.6725C34.7393 62.5274 34.7649 62.4208 34.7649 62.3525H34.8801ZM36.6849 67.9973V68.3813H32.6785V67.9973H36.6849ZM37.2609 70.5573H38.3105C38.4385 70.8474 38.6092 71.0565 38.8225 71.1845C39.0358 71.304 39.2406 71.3637 39.4369 71.3637C39.4369 71.3637 39.4539 71.3637 39.4881 71.3637C39.5222 71.3637 39.5393 71.3637 39.5393 71.3637V71.4917H36.6593V71.3637H36.7745C36.9366 71.3637 37.0817 71.2954 37.2097 71.1589C37.3377 71.0138 37.3548 70.8133 37.2609 70.5573ZM47.5766 62.5317H49.2662C49.8123 62.5317 50.2816 62.6298 50.6742 62.8261C51.0667 63.0224 51.3696 63.3082 51.583 63.6837C51.7963 64.0506 51.903 64.4901 51.903 65.0021C51.903 65.3946 51.8262 65.7488 51.6726 66.0645C51.519 66.3717 51.3142 66.632 51.0582 66.8453C50.8022 67.0586 50.512 67.2208 50.1878 67.3317C49.8635 67.4341 49.5264 67.4725 49.1766 67.4469C48.8352 67.4213 48.5024 67.3232 48.1782 67.1525V67.0245C48.1782 67.0245 48.2507 67.0373 48.3958 67.0629C48.5408 67.08 48.7243 67.0842 48.9462 67.0757C49.1766 67.0586 49.4155 67.0117 49.663 66.9349C49.919 66.8496 50.1536 66.7045 50.367 66.4997C50.5888 66.2949 50.7552 66.009 50.8662 65.6421C50.8918 65.5482 50.9131 65.433 50.9302 65.2965C50.9472 65.1514 50.9515 65.0106 50.943 64.8741C50.9344 64.2853 50.7808 63.8117 50.4822 63.4533C50.1835 63.0949 49.7611 62.9157 49.215 62.9157H47.7046C47.7046 62.9157 47.6918 62.8858 47.6662 62.8261C47.6491 62.7578 47.6278 62.6938 47.6022 62.6341C47.5851 62.5658 47.5766 62.5317 47.5766 62.5317ZM47.743 62.5317V71.4917H46.911V62.5317H47.743ZM46.9494 70.5573V71.4917H45.9254V71.3637C45.9254 71.3637 45.951 71.3637 46.0022 71.3637C46.0619 71.3637 46.0918 71.3637 46.0918 71.3637C46.3136 71.3637 46.5014 71.2869 46.655 71.1333C46.8171 70.9712 46.9024 70.7792 46.911 70.5573H46.9494ZM46.9494 63.4661H46.911C46.911 63.2442 46.8299 63.0565 46.6678 62.9029C46.5056 62.7408 46.3136 62.6597 46.0918 62.6597C46.0918 62.6597 46.0662 62.6597 46.015 62.6597C45.9638 62.6597 45.9382 62.6597 45.9382 62.6597L45.9254 62.5317H46.9494V63.4661ZM47.7046 70.5573H47.743C47.7515 70.7792 47.8326 70.9712 47.9862 71.1333C48.1483 71.2869 48.3403 71.3637 48.5622 71.3637C48.5622 71.3637 48.5878 71.3637 48.639 71.3637C48.6987 71.3637 48.7286 71.3637 48.7286 71.3637V71.4917H47.7046V70.5573ZM72.7674 62.5701V71.4917H71.9354V62.5701H72.7674ZM76.057 62.5189V62.9029H68.6458V62.5189H76.057ZM76.057 62.8645V63.9013L75.929 63.8885V63.6709C75.929 63.4576 75.8522 63.2784 75.6986 63.1333C75.5535 62.9882 75.3786 62.9114 75.1738 62.9029V62.8645H76.057ZM76.057 62.2885V62.6597L74.4954 62.5189C74.6831 62.5189 74.8794 62.5061 75.0842 62.4805C75.2975 62.4549 75.4938 62.425 75.673 62.3909C75.8522 62.3568 75.9802 62.3226 76.057 62.2885ZM71.9738 70.5573V71.4917H70.9498V71.3637C70.9498 71.3637 70.9754 71.3637 71.0266 71.3637C71.0864 71.3637 71.1162 71.3637 71.1162 71.3637C71.3381 71.3637 71.5258 71.2869 71.6794 71.1333C71.8416 70.9712 71.9269 70.7792 71.9354 70.5573H71.9738ZM72.729 70.5573H72.7674C72.776 70.7792 72.857 70.9712 73.0106 71.1333C73.1728 71.2869 73.3648 71.3637 73.5866 71.3637C73.5866 71.3637 73.6122 71.3637 73.6634 71.3637C73.7232 71.3637 73.753 71.3637 73.753 71.3637V71.4917H72.729V70.5573ZM69.529 62.8645V62.9029C69.3157 62.9114 69.1365 62.9882 68.9914 63.1333C68.8464 63.2784 68.7738 63.4576 68.7738 63.6709V63.8885L68.6458 63.9013V62.8645H69.529ZM68.6458 62.2885C68.7312 62.3226 68.8592 62.3568 69.0298 62.3909C69.209 62.425 69.4053 62.4549 69.6186 62.4805C69.832 62.5061 70.0282 62.5189 70.2074 62.5189L68.6458 62.6597V62.2885ZM85.7575 62.3525L89.5463 71.4149H88.4583L85.5015 63.5685L85.7575 62.3525ZM83.0055 70.5573C82.9458 70.728 82.9372 70.873 82.9799 70.9925C83.0226 71.112 83.0908 71.2058 83.1847 71.2741C83.2871 71.3338 83.3895 71.3637 83.4919 71.3637H83.6071V71.4917H81.0343V71.3637C81.0343 71.3637 81.0556 71.3637 81.0983 71.3637C81.1324 71.3637 81.1495 71.3637 81.1495 71.3637C81.3458 71.3637 81.5463 71.304 81.7511 71.1845C81.9644 71.0565 82.1394 70.8474 82.2759 70.5573H83.0055ZM85.7575 62.3525L85.8727 63.2485L82.6599 71.4533H81.8919L85.1687 63.6709C85.1687 63.6709 85.19 63.6197 85.2327 63.5173C85.2839 63.4064 85.3394 63.2741 85.3991 63.1205C85.4674 62.9669 85.5228 62.8176 85.5655 62.6725C85.6167 62.5274 85.6423 62.4208 85.6423 62.3525H85.7575ZM87.5623 67.9973V68.3813H83.5559V67.9973H87.5623ZM88.1383 70.5573H89.1879C89.3159 70.8474 89.4866 71.0565 89.6999 71.1845C89.9132 71.304 90.118 71.3637 90.3143 71.3637C90.3143 71.3637 90.3314 71.3637 90.3655 71.3637C90.3996 71.3637 90.4167 71.3637 90.4167 71.3637V71.4917H87.5367V71.3637H87.6519C87.814 71.3637 87.9591 71.2954 88.0871 71.1589C88.2151 71.0138 88.2322 70.8133 88.1383 70.5573ZM98.6204 62.5317V71.4917H97.7884V62.5317H98.6204ZM102.076 71.0949V71.4917H98.582V71.0949H102.076ZM102.857 69.4181L102.115 71.4917H99.99L100.451 71.0949C100.903 71.0949 101.27 71.0266 101.552 70.8901C101.842 70.745 102.076 70.5445 102.256 70.2885C102.435 70.0325 102.593 69.7424 102.729 69.4181H102.857ZM97.8268 70.5573V71.4917H96.8028V71.3637C96.8028 71.3637 96.8284 71.3637 96.8796 71.3637C96.9393 71.3637 96.9692 71.3637 96.9692 71.3637C97.191 71.3637 97.3788 71.2869 97.5324 71.1333C97.6945 70.9712 97.7798 70.7792 97.7884 70.5573H97.8268ZM97.8268 63.4661H97.7884C97.7798 63.2442 97.6945 63.0565 97.5324 62.9029C97.3788 62.7408 97.191 62.6597 96.9692 62.6597C96.9692 62.6597 96.9393 62.6597 96.8796 62.6597C96.8284 62.6597 96.8028 62.6597 96.8028 62.6597V62.5317H97.8268V63.4661ZM98.582 63.4661V62.5317H99.606V62.6597C99.5974 62.6597 99.5676 62.6597 99.5164 62.6597C99.4652 62.6597 99.4396 62.6597 99.4396 62.6597C99.2177 62.6597 99.0257 62.7408 98.8636 62.9029C98.71 63.0565 98.6289 63.2442 98.6204 63.4661H98.582Z" fill="black"/>
<path d="M60.8904 62.5317V71.4917H60.0584V62.5317H60.8904ZM60.0968 70.5573V71.4917H59.0728V71.3637C59.0728 71.3637 59.0984 71.3637 59.1496 71.3637C59.2094 71.3637 59.2392 71.3637 59.2392 71.3637C59.4611 71.3637 59.6488 71.2869 59.8024 71.1333C59.9646 70.9712 60.0499 70.7792 60.0584 70.5573H60.0968ZM60.0968 63.4661H60.0584C60.0499 63.2442 59.9646 63.0565 59.8024 62.9029C59.6488 62.7408 59.4611 62.6597 59.2392 62.6597C59.2392 62.6597 59.2094 62.6597 59.1496 62.6597C59.0984 62.6597 59.0728 62.6597 59.0728 62.6597V62.5317H60.0968V63.4661ZM60.852 70.5573H60.8904C60.899 70.7792 60.98 70.9712 61.1336 71.1333C61.2958 71.2869 61.4878 71.3637 61.7096 71.3637C61.7096 71.3637 61.7352 71.3637 61.7864 71.3637C61.8376 71.3637 61.8675 71.3637 61.876 71.3637V71.4917H60.852V70.5573ZM60.852 63.4661V62.5317H61.876V62.6597C61.8675 62.6597 61.8376 62.6597 61.7864 62.6597C61.7352 62.6597 61.7096 62.6597 61.7096 62.6597C61.4878 62.6597 61.2958 62.7408 61.1336 62.9029C60.98 63.0565 60.899 63.2442 60.8904 63.4661H60.852Z" fill="#BC1823"/>
<path d="M46.2999 59.6001V57.9392C47.5388 57.9143 48.5304 57.8273 49.2775 57.6806C50.03 57.5364 50.6059 57.2877 51.0053 56.9347C51.4019 56.5841 51.6736 56.0893 51.8203 55.4528C51.9643 54.8113 52.0376 53.9783 52.0376 52.9564V32.5778C52.0376 31.5583 51.9779 30.7353 51.8638 30.1113C51.7551 29.4822 51.5296 28.9849 51.19 28.6194C50.8559 28.2564 50.3696 28.0102 49.7339 27.8834C49.1036 27.7516 48.2777 27.6547 47.2562 27.595V25.9341H50.6499H51.6093H52.5624H54.8499L55.5499 26.7001L56.3499 25.9341H61.5352C65.8385 25.9341 69.1801 26.6353 71.5653 28.0326C73.956 29.4325 75.1514 31.4017 75.1514 33.9403C75.1514 35.8648 74.4885 37.4387 73.1628 38.6645C71.8424 39.8853 69.7533 40.8899 66.8926 41.678V41.8471C67.876 41.9341 68.7345 42.0361 69.468 42.1554C70.1988 42.2748 70.8508 42.414 71.4241 42.5732C71.9946 42.7323 72.5271 42.9287 73.0215 43.1599C73.5214 43.3937 74.0104 43.6547 74.4885 43.9457C77.3193 45.7831 78.7375 48.088 78.7375 50.8579C78.7375 52.4044 78.2647 53.8391 77.3248 55.1643C76.3902 56.4921 75.078 57.5314 73.391 58.2873C72.8476 58.5533 72.288 58.7647 71.7175 58.9238C71.1443 59.0829 70.4732 59.2172 69.7071 59.3216C68.9464 59.4211 68.0608 59.4957 67.0556 59.5404C66.0559 59.5802 64.8714 59.6001 63.5021 59.6001H46.2999ZM63.6434 57.7204C69.4028 57.7204 72.2826 55.4627 72.2826 50.9474C72.2826 47.6529 70.8047 45.348 67.8489 44.0352C67.3327 43.8313 66.8383 43.6547 66.3601 43.508C65.882 43.3638 65.3223 43.2544 64.6866 43.1798C64.0564 43.1077 63.3011 43.058 62.4263 43.0307C61.5488 43.0058 60.473 42.9909 59.1989 42.9909H57.0472V52.7376C57.0472 54.5154 57.5526 55.7909 58.5686 56.5667C59.5901 57.3375 61.2799 57.7204 63.6434 57.7204ZM59.7205 40.8028C60.7121 40.8028 61.5407 40.7904 62.209 40.763C62.8746 40.7307 63.4478 40.6785 63.926 40.6039C64.4041 40.5318 64.8225 40.4299 65.1865 40.2956C65.556 40.1638 65.9309 39.9823 66.3167 39.7486C67.3381 39.1668 68.0608 38.4656 68.49 37.6501C68.9165 36.8345 69.1312 35.7703 69.1312 34.4575C69.1312 32.1576 68.5172 30.5066 67.2947 29.5046C66.0694 28.4976 64.1487 27.9928 61.5352 27.9928H58.1499C57.6066 27.9928 56.2026 29.5825 56.3999 30.1113V32.5778L56.5499 40.8028H59.7205Z" fill="black"/>
<path d="M43.1031 14.4188C42.6648 13.6641 42.2546 13.0453 41.8749 12.5625C41.4929 12.082 41.1062 11.6977 40.7124 11.4094C40.3234 11.1164 39.9109 10.9195 39.4749 10.8188C39.0367 10.7133 38.5117 10.6594 37.8999 10.6594V9H51.6718V10.6594C50.214 10.6594 49.1874 10.7695 48.5874 10.9875C47.9874 11.2078 47.6874 11.5945 47.6874 12.15C47.6874 12.757 48.0249 13.6289 48.6999 14.7656L55.4781 26.3531H55.6468L60.5874 18.0469C61.5249 16.4719 62.1859 15.2344 62.5749 14.3344C62.9687 13.4297 63.1656 12.7008 63.1656 12.15C63.1656 11.5945 62.9523 11.2078 62.5281 10.9875C62.1085 10.7695 61.3749 10.6594 60.3249 10.6594V9H70.3374V10.6594C69.7234 10.6594 69.1773 10.7484 68.6968 10.9219C68.221 11.0977 67.7218 11.4469 67.1968 11.9719C66.6718 12.4969 66.0929 13.2258 65.4624 14.1563C64.8366 15.0891 64.0702 16.3125 63.1656 17.8313L56.4343 29.1938V34.4063C56.4343 35.8313 56.4835 36.975 56.5843 37.8375C56.6898 38.6953 56.9077 39.3563 57.2406 39.825C57.5781 40.2891 58.0585 40.6008 58.6843 40.7625C59.3148 40.9266 60.1562 41.0063 61.2062 41.0063V42.6656H47.0312V41.0063C48.0812 41.0063 48.9179 40.9266 49.5437 40.7625C50.1741 40.6008 50.6546 40.2938 50.9874 39.8438C51.3249 39.3938 51.5499 38.7633 51.6624 37.95C51.7796 37.132 51.8406 36.0516 51.8406 34.7063V29.3719L43.1031 14.4188Z" fill="black"/>
<path d="M3.14322 80.9296C2.94589 80.9296 2.75719 80.9 2.57712 80.8408C2.39706 80.7792 2.25522 80.7002 2.15162 80.604L2.28852 80.3154C2.38719 80.4018 2.51299 80.4733 2.66592 80.53C2.81886 80.5868 2.97796 80.6151 3.14322 80.6151C3.29369 80.6151 3.41579 80.5979 3.50952 80.5633C3.60325 80.5288 3.67232 80.4819 3.71672 80.4227C3.76112 80.3611 3.78332 80.292 3.78332 80.2155C3.78332 80.1267 3.75372 80.0552 3.69452 80.0009C3.63779 79.9467 3.56255 79.9035 3.46882 79.8714C3.37755 79.8369 3.27642 79.8073 3.16542 79.7826C3.05442 79.758 2.94219 79.7296 2.82872 79.6975C2.71772 79.663 2.61536 79.6198 2.52162 79.568C2.43036 79.5162 2.35636 79.4472 2.29962 79.3608C2.24289 79.272 2.21452 79.1586 2.21452 79.0204C2.21452 78.8872 2.24906 78.7651 2.31812 78.6541C2.38966 78.5407 2.49819 78.4506 2.64372 78.384C2.79172 78.315 2.97919 78.2804 3.20612 78.2804C3.35659 78.2804 3.50582 78.3002 3.65382 78.3396C3.80182 78.3791 3.93009 78.4358 4.03862 78.5098L3.91652 78.8058C3.80552 78.7318 3.68835 78.6788 3.56502 78.6467C3.44169 78.6122 3.32205 78.5949 3.20612 78.5949C3.06059 78.5949 2.94096 78.6134 2.84722 78.6504C2.75349 78.6874 2.68442 78.7368 2.64002 78.7984C2.59809 78.8601 2.57712 78.9292 2.57712 79.0056C2.57712 79.0969 2.60549 79.1697 2.66222 79.2239C2.72142 79.2782 2.79666 79.3214 2.88792 79.3534C2.98166 79.3855 3.08402 79.4151 3.19502 79.4422C3.30602 79.4669 3.41702 79.4953 3.52802 79.5273C3.64149 79.5594 3.74385 79.6013 3.83512 79.6531C3.92885 79.7049 4.00409 79.774 4.06082 79.8603C4.11755 79.9467 4.14592 80.0577 4.14592 80.1933C4.14592 80.3241 4.11015 80.4462 4.03862 80.5596C3.96709 80.6706 3.85609 80.7607 3.70562 80.8297C3.55762 80.8963 3.37015 80.9296 3.14322 80.9296ZM7.52066 80.9296C7.32333 80.9296 7.13956 80.8963 6.96936 80.8297C6.80163 80.7631 6.6561 80.6706 6.53276 80.5522C6.40943 80.4314 6.31323 80.2908 6.24416 80.1304C6.1751 79.9701 6.14056 79.795 6.14056 79.605C6.14056 79.4151 6.1751 79.24 6.24416 79.0796C6.31323 78.9193 6.40943 78.7799 6.53276 78.6615C6.6561 78.5407 6.80163 78.4469 6.96936 78.3803C7.1371 78.3137 7.32086 78.2804 7.52066 78.2804C7.71799 78.2804 7.89929 78.3137 8.06456 78.3803C8.23229 78.4445 8.37783 78.537 8.50116 78.6578C8.62696 78.7762 8.72316 78.9156 8.78976 79.0759C8.85883 79.2363 8.89336 79.4126 8.89336 79.605C8.89336 79.7974 8.85883 79.9738 8.78976 80.1341C8.72316 80.2945 8.62696 80.4351 8.50116 80.5559C8.37783 80.6743 8.23229 80.7668 8.06456 80.8334C7.89929 80.8976 7.71799 80.9296 7.52066 80.9296ZM7.52066 80.6003C7.66373 80.6003 7.79569 80.5757 7.91656 80.5263C8.03989 80.477 8.14596 80.4079 8.23476 80.3191C8.32603 80.2279 8.39633 80.1218 8.44566 80.0009C8.49746 79.8801 8.52336 79.7481 8.52336 79.605C8.52336 79.462 8.49746 79.33 8.44566 79.2091C8.39633 79.0883 8.32603 78.9834 8.23476 78.8946C8.14596 78.8034 8.03989 78.7331 7.91656 78.6837C7.79569 78.6344 7.66373 78.6097 7.52066 78.6097C7.37513 78.6097 7.24069 78.6344 7.11736 78.6837C6.9965 78.7331 6.89043 78.8034 6.79916 78.8946C6.7079 78.9834 6.63636 79.0883 6.58456 79.2091C6.53523 79.33 6.51056 79.462 6.51056 79.605C6.51056 79.7481 6.53523 79.8801 6.58456 80.0009C6.63636 80.1218 6.7079 80.2279 6.79916 80.3191C6.89043 80.4079 6.9965 80.477 7.11736 80.5263C7.24069 80.5757 7.37513 80.6003 7.52066 80.6003ZM12.282 80.9296C12.0846 80.9296 11.9021 80.8976 11.7344 80.8334C11.5691 80.7668 11.4248 80.6743 11.3015 80.5559C11.1806 80.4351 11.0856 80.2945 11.0166 80.1341C10.9475 79.9738 10.913 79.7974 10.913 79.605C10.913 79.4126 10.9475 79.2363 11.0166 79.0759C11.0856 78.9156 11.1818 78.7762 11.3052 78.6578C11.4285 78.537 11.5728 78.4445 11.7381 78.3803C11.9058 78.3137 12.0883 78.2804 12.2857 78.2804C12.4855 78.2804 12.6692 78.315 12.837 78.384C13.0072 78.4506 13.1515 78.5505 13.2699 78.6837L13.0294 78.9168C12.9307 78.8132 12.8197 78.7368 12.6964 78.6874C12.573 78.6356 12.4411 78.6097 12.3005 78.6097C12.1549 78.6097 12.0193 78.6344 11.8935 78.6837C11.7701 78.7331 11.6628 78.8021 11.5716 78.8909C11.4803 78.9797 11.4088 79.0858 11.357 79.2091C11.3076 79.33 11.283 79.462 11.283 79.605C11.283 79.7481 11.3076 79.8813 11.357 80.0046C11.4088 80.1255 11.4803 80.2303 11.5716 80.3191C11.6628 80.4079 11.7701 80.477 11.8935 80.5263C12.0193 80.5757 12.1549 80.6003 12.3005 80.6003C12.4411 80.6003 12.573 80.5757 12.6964 80.5263C12.8197 80.4745 12.9307 80.3956 13.0294 80.2895L13.2699 80.5226C13.1515 80.6558 13.0072 80.757 12.837 80.826C12.6692 80.8951 12.4842 80.9296 12.282 80.9296ZM15.4627 80.9V78.31H15.8327V80.9H15.4627ZM18.6098 79.4274H19.9418V79.7419H18.6098V79.4274ZM18.6431 80.5781H20.1527V80.9H18.2731V78.31H20.1009V78.6319H18.6431V80.5781ZM22.4168 80.9V78.31H23.5083C23.7846 78.31 24.0275 78.3643 24.2372 78.4728C24.4493 78.5814 24.6134 78.7331 24.7293 78.9279C24.8477 79.1228 24.9069 79.3485 24.9069 79.605C24.9069 79.8616 24.8477 80.0873 24.7293 80.2821C24.6134 80.477 24.4493 80.6287 24.2372 80.7372C24.0275 80.8458 23.7846 80.9 23.5083 80.9H22.4168ZM22.7868 80.5781H23.4861C23.7007 80.5781 23.8857 80.5374 24.0411 80.456C24.199 80.3746 24.3211 80.2612 24.4074 80.1156C24.4937 79.9676 24.5369 79.7974 24.5369 79.605C24.5369 79.4102 24.4937 79.24 24.4074 79.0944C24.3211 78.9489 24.199 78.8354 24.0411 78.754C23.8857 78.6726 23.7007 78.6319 23.4861 78.6319H22.7868V80.5781ZM26.7103 80.9L27.8832 78.31H28.2495L29.4261 80.9H29.0376L27.9905 78.5172H28.1385L27.0914 80.9H26.7103ZM27.2098 80.2525L27.3097 79.9565H28.7675L28.8748 80.2525H27.2098ZM31.4775 80.9V78.31H32.569C32.8452 78.31 33.0882 78.3643 33.2979 78.4728C33.51 78.5814 33.674 78.7331 33.79 78.9279C33.9084 79.1228 33.9676 79.3485 33.9676 79.605C33.9676 79.8616 33.9084 80.0873 33.79 80.2821C33.674 80.477 33.51 80.6287 33.2979 80.7372C33.0882 80.8458 32.8452 80.9 32.569 80.9H31.4775ZM31.8475 80.5781H32.5468C32.7614 80.5781 32.9464 80.5374 33.1018 80.456C33.2596 80.3746 33.3817 80.2612 33.4681 80.1156C33.5544 79.9676 33.5976 79.7974 33.5976 79.605C33.5976 79.4102 33.5544 79.24 33.4681 79.0944C33.3817 78.9489 33.2596 78.8354 33.1018 78.754C32.9464 78.6726 32.7614 78.6319 32.5468 78.6319H31.8475V80.5781ZM40.0271 80.9296C39.8273 80.9296 39.6436 80.8976 39.4758 80.8334C39.3081 80.7668 39.1626 80.6743 39.0392 80.5559C38.9159 80.4351 38.8197 80.2945 38.7506 80.1341C38.6816 79.9738 38.647 79.7974 38.647 79.605C38.647 79.4126 38.6816 79.2363 38.7506 79.0759C38.8197 78.9156 38.9159 78.7762 39.0392 78.6578C39.165 78.537 39.3118 78.4445 39.4795 78.3803C39.6473 78.3137 39.8323 78.2804 40.0345 78.2804C40.2393 78.2804 40.4267 78.3137 40.5969 78.3803C40.7671 78.4469 40.9114 78.5468 41.0298 78.68L40.8004 78.9094C40.6944 78.8058 40.5784 78.7306 40.4526 78.6837C40.3293 78.6344 40.1949 78.6097 40.0493 78.6097C39.9013 78.6097 39.7632 78.6344 39.6349 78.6837C39.5091 78.7331 39.3994 78.8021 39.3056 78.8909C39.2144 78.9797 39.1428 79.0858 39.091 79.2091C39.0417 79.33 39.017 79.462 39.017 79.605C39.017 79.7456 39.0417 79.8776 39.091 80.0009C39.1428 80.1218 39.2144 80.2279 39.3056 80.3191C39.3994 80.4079 39.5091 80.477 39.6349 80.5263C39.7607 80.5757 39.8976 80.6003 40.0456 80.6003C40.1838 80.6003 40.3157 80.5794 40.4415 80.5374C40.5698 80.493 40.6882 80.4203 40.7967 80.3191L41.0076 80.6003C40.8794 80.7089 40.7289 80.7915 40.5562 80.8482C40.386 80.9025 40.2097 80.9296 40.0271 80.9296ZM40.6524 80.5522V79.5902H41.0076V80.6003L40.6524 80.5522ZM43.7177 79.4274H45.0497V79.7419H43.7177V79.4274ZM43.751 80.5781H45.2606V80.9H43.381V78.31H45.2088V78.6319H43.751V80.5781ZM48.2795 80.9296C48.0822 80.9296 47.8935 80.9 47.7134 80.8408C47.5334 80.7792 47.3915 80.7002 47.2879 80.604L47.4248 80.3154C47.5235 80.4018 47.6493 80.4733 47.8022 80.53C47.9552 80.5868 48.1143 80.6151 48.2795 80.6151C48.43 80.6151 48.5521 80.5979 48.6458 80.5633C48.7396 80.5288 48.8086 80.4819 48.853 80.4227C48.8974 80.3611 48.9196 80.292 48.9196 80.2155C48.9196 80.1267 48.89 80.0552 48.8308 80.0009C48.7741 79.9467 48.6989 79.9035 48.6051 79.8714C48.5139 79.8369 48.4127 79.8073 48.3017 79.7826C48.1907 79.758 48.0785 79.7296 47.965 79.6975C47.854 79.663 47.7517 79.6198 47.6579 79.568C47.5667 79.5162 47.4927 79.4472 47.4359 79.3608C47.3792 79.272 47.3508 79.1586 47.3508 79.0204C47.3508 78.8872 47.3854 78.7651 47.4544 78.6541C47.526 78.5407 47.6345 78.4506 47.78 78.384C47.928 78.315 48.1155 78.2804 48.3424 78.2804C48.4929 78.2804 48.6421 78.3002 48.7901 78.3396C48.9381 78.3791 49.0664 78.4358 49.1749 78.5098L49.0528 78.8058C48.9418 78.7318 48.8247 78.6788 48.7013 78.6467C48.578 78.6122 48.4584 78.5949 48.3424 78.5949C48.1969 78.5949 48.0773 78.6134 47.9835 78.6504C47.8898 78.6874 47.8207 78.7368 47.7763 78.7984C47.7344 78.8601 47.7134 78.9292 47.7134 79.0056C47.7134 79.0969 47.7418 79.1697 47.7985 79.2239C47.8577 79.2782 47.933 79.3214 48.0242 79.3534C48.118 79.3855 48.2203 79.4151 48.3313 79.4422C48.4423 79.4669 48.5533 79.4953 48.6643 79.5273C48.7778 79.5594 48.8802 79.6013 48.9714 79.6531C49.0652 79.7049 49.1404 79.774 49.1971 79.8603C49.2539 79.9467 49.2822 80.0577 49.2822 80.1933C49.2822 80.3241 49.2465 80.4462 49.1749 80.5596C49.1034 80.6706 48.9924 80.7607 48.8419 80.8297C48.6939 80.8963 48.5065 80.9296 48.2795 80.9296ZM51.9659 80.9V78.6319H51.0779V78.31H53.2202V78.6319H52.3322V80.9H51.9659ZM56.4213 80.9296C56.2239 80.9296 56.0402 80.8963 55.87 80.8297C55.7022 80.7631 55.5567 80.6706 55.4334 80.5522C55.31 80.4314 55.2138 80.2908 55.1448 80.1304C55.0757 79.9701 55.0412 79.795 55.0412 79.605C55.0412 79.4151 55.0757 79.24 55.1448 79.0796C55.2138 78.9193 55.31 78.7799 55.4334 78.6615C55.5567 78.5407 55.7022 78.4469 55.87 78.3803C56.0377 78.3137 56.2215 78.2804 56.4213 78.2804C56.6186 78.2804 56.7999 78.3137 56.9652 78.3803C57.1329 78.4445 57.2784 78.537 57.4018 78.6578C57.5276 78.7762 57.6238 78.9156 57.6904 79.0759C57.7594 79.2363 57.794 79.4126 57.794 79.605C57.794 79.7974 57.7594 79.9738 57.6904 80.1341C57.6238 80.2945 57.5276 80.4351 57.4018 80.5559C57.2784 80.6743 57.1329 80.7668 56.9652 80.8334C56.7999 80.8976 56.6186 80.9296 56.4213 80.9296ZM56.4213 80.6003C56.5643 80.6003 56.6963 80.5757 56.8172 80.5263C56.9405 80.477 57.0466 80.4079 57.1354 80.3191C57.2266 80.2279 57.2969 80.1218 57.3463 80.0009C57.3981 79.8801 57.424 79.7481 57.424 79.605C57.424 79.462 57.3981 79.33 57.3463 79.2091C57.2969 79.0883 57.2266 78.9834 57.1354 78.8946C57.0466 78.8034 56.9405 78.7331 56.8172 78.6837C56.6963 78.6344 56.5643 78.6097 56.4213 78.6097C56.2757 78.6097 56.1413 78.6344 56.018 78.6837C55.8971 78.7331 55.791 78.8034 55.6998 78.8946C55.6085 78.9834 55.537 79.0883 55.4852 79.2091C55.4358 79.33 55.4112 79.462 55.4112 79.605C55.4112 79.7481 55.4358 79.8801 55.4852 80.0009C55.537 80.1218 55.6085 80.2279 55.6998 80.3191C55.791 80.4079 55.8971 80.477 56.018 80.5263C56.1413 80.5757 56.2757 80.6003 56.4213 80.6003ZM60.0245 80.9V78.31H61.0346C61.2615 78.31 61.4552 78.3458 61.6155 78.4173C61.7758 78.4889 61.8992 78.5925 61.9855 78.7281C62.0718 78.8638 62.115 79.0254 62.115 79.2128C62.115 79.4003 62.0718 79.5619 61.9855 79.6975C61.8992 79.8307 61.7758 79.9331 61.6155 80.0046C61.4552 80.0762 61.2615 80.1119 61.0346 80.1119H60.228L60.3945 79.9417V80.9H60.0245ZM61.7561 80.9L61.0975 79.9602H61.4934L62.1594 80.9H61.7561ZM60.3945 79.9787L60.228 79.7974H61.0235C61.2603 79.7974 61.4391 79.7469 61.56 79.6457C61.6833 79.5421 61.745 79.3978 61.745 79.2128C61.745 79.0278 61.6833 78.8848 61.56 78.7836C61.4391 78.6825 61.2603 78.6319 61.0235 78.6319H60.228L60.3945 78.4469V79.9787ZM63.9856 80.9L65.1585 78.31H65.5248L66.7014 80.9H66.3129L65.2658 78.5172H65.4138L64.3667 80.9H63.9856ZM64.4851 80.2525L64.585 79.9565H66.0428L66.1501 80.2525H64.4851ZM71.4114 80.9V78.31H72.5029C72.7791 78.31 73.0221 78.3643 73.2318 78.4728C73.4439 78.5814 73.6079 78.7331 73.7239 78.9279C73.8423 79.1228 73.9015 79.3485 73.9015 79.605C73.9015 79.8616 73.8423 80.0873 73.7239 80.2821C73.6079 80.477 73.4439 80.6287 73.2318 80.7372C73.0221 80.8458 72.7791 80.9 72.5029 80.9H71.4114ZM71.7814 80.5781H72.4807C72.6953 80.5781 72.8803 80.5374 73.0357 80.456C73.1935 80.3746 73.3156 80.2612 73.402 80.1156C73.4883 79.9676 73.5315 79.7974 73.5315 79.605C73.5315 79.4102 73.4883 79.24 73.402 79.0944C73.3156 78.9489 73.1935 78.8354 73.0357 78.754C72.8803 78.6726 72.6953 78.6319 72.4807 78.6319H71.7814V80.5781ZM76.4699 79.4274H77.8019V79.7419H76.4699V79.4274ZM76.5032 80.5781H78.0128V80.9H76.1332V78.31H77.961V78.6319H76.5032V80.5781ZM82.9355 80.9V78.31H83.3055V80.9H82.9355ZM85.746 80.9V78.31H86.0494L87.7624 80.4375H87.6033V78.31H87.9733V80.9H87.6699L85.9569 78.7725H86.116V80.9H85.746ZM91.1357 80.9L89.9961 78.31H90.3957L91.4428 80.7002H91.2134L92.2679 78.31H92.6379L91.502 80.9H91.1357ZM94.9699 79.4274H96.3019V79.7419H94.9699V79.4274ZM95.0032 80.5781H96.5128V80.9H94.6332V78.31H96.461V78.6319H95.0032V80.5781ZM98.7769 80.9V78.31H99.787C100.014 78.31 100.208 78.3458 100.368 78.4173C100.528 78.4889 100.652 78.5925 100.738 78.7281C100.824 78.8638 100.867 79.0254 100.867 79.2128C100.867 79.4003 100.824 79.5619 100.738 79.6975C100.652 79.8307 100.528 79.9331 100.368 80.0046C100.208 80.0762 100.014 80.1119 99.787 80.1119H98.9804L99.1469 79.9417V80.9H98.7769ZM100.508 80.9L99.8499 79.9602H100.246L100.912 80.9H100.508ZM99.1469 79.9787L98.9804 79.7974H99.7759C100.013 79.7974 100.191 79.7469 100.312 79.6457C100.436 79.5421 100.497 79.3978 100.497 79.2128C100.497 79.0278 100.436 78.8848 100.312 78.7836C100.191 78.6825 100.013 78.6319 99.7759 78.6319H98.9804L99.1469 78.4469V79.9787ZM103.885 80.9296C103.688 80.9296 103.499 80.9 103.319 80.8408C103.139 80.7792 102.997 80.7002 102.893 80.604L103.03 80.3154C103.129 80.4018 103.255 80.4733 103.408 80.53C103.561 80.5868 103.72 80.6151 103.885 80.6151C104.035 80.6151 104.158 80.5979 104.251 80.5633C104.345 80.5288 104.414 80.4819 104.458 80.4227C104.503 80.3611 104.525 80.292 104.525 80.2155C104.525 80.1267 104.495 80.0552 104.436 80.0009C104.38 79.9467 104.304 79.9035 104.211 79.8714C104.119 79.8369 104.018 79.8073 103.907 79.7826C103.796 79.758 103.684 79.7296 103.57 79.6975C103.459 79.663 103.357 79.6198 103.263 79.568C103.172 79.5162 103.098 79.4472 103.041 79.3608C102.985 79.272 102.956 79.1586 102.956 79.0204C102.956 78.8872 102.991 78.7651 103.06 78.6541C103.131 78.5407 103.24 78.4506 103.385 78.384C103.533 78.315 103.721 78.2804 103.948 78.2804C104.098 78.2804 104.248 78.3002 104.396 78.3396C104.544 78.3791 104.672 78.4358 104.78 78.5098L104.658 78.8058C104.547 78.7318 104.43 78.6788 104.307 78.6467C104.183 78.6122 104.064 78.5949 103.948 78.5949C103.802 78.5949 103.683 78.6134 103.589 78.6504C103.495 78.6874 103.426 78.7368 103.382 78.7984C103.34 78.8601 103.319 78.9292 103.319 79.0056C103.319 79.0969 103.347 79.1697 103.404 79.2239C103.463 79.2782 103.538 79.3214 103.63 79.3534C103.723 79.3855 103.826 79.4151 103.937 79.4422C104.048 79.4669 104.159 79.4953 104.27 79.5273C104.383 79.5594 104.486 79.6013 104.577 79.6531C104.671 79.7049 104.746 79.774 104.803 79.8603C104.859 79.9467 104.888 80.0577 104.888 80.1933C104.888 80.3241 104.852 80.4462 104.78 80.5596C104.709 80.6706 104.598 80.7607 104.447 80.8297C104.299 80.8963 104.112 80.9296 103.885 80.9296ZM107.093 80.9V78.31H107.463V80.9H107.093ZM111.073 80.9296C110.875 80.9296 110.692 80.8963 110.521 80.8297C110.354 80.7631 110.208 80.6706 110.085 80.5522C109.962 80.4314 109.865 80.2908 109.796 80.1304C109.727 79.9701 109.693 79.795 109.693 79.605C109.693 79.4151 109.727 79.24 109.796 79.0796C109.865 78.9193 109.962 78.7799 110.085 78.6615C110.208 78.5407 110.354 78.4469 110.521 78.3803C110.689 78.3137 110.873 78.2804 111.073 78.2804C111.27 78.2804 111.451 78.3137 111.617 78.3803C111.784 78.4445 111.93 78.537 112.053 78.6578C112.179 78.7762 112.275 78.9156 112.342 79.0759C112.411 79.2363 112.445 79.4126 112.445 79.605C112.445 79.7974 112.411 79.9738 112.342 80.1341C112.275 80.2945 112.179 80.4351 112.053 80.5559C111.93 80.6743 111.784 80.7668 111.617 80.8334C111.451 80.8976 111.27 80.9296 111.073 80.9296ZM111.073 80.6003C111.216 80.6003 111.348 80.5757 111.469 80.5263C111.592 80.477 111.698 80.4079 111.787 80.3191C111.878 80.2279 111.948 80.1218 111.998 80.0009C112.05 79.8801 112.075 79.7481 112.075 79.605C112.075 79.462 112.05 79.33 111.998 79.2091C111.948 79.0883 111.878 78.9834 111.787 78.8946C111.698 78.8034 111.592 78.7331 111.469 78.6837C111.348 78.6344 111.216 78.6097 111.073 78.6097C110.927 78.6097 110.793 78.6344 110.669 78.6837C110.549 78.7331 110.443 78.8034 110.351 78.8946C110.26 78.9834 110.188 79.0883 110.137 79.2091C110.087 79.33 110.063 79.462 110.063 79.605C110.063 79.7481 110.087 79.8801 110.137 80.0009C110.188 80.1218 110.26 80.2279 110.351 80.3191C110.443 80.4079 110.549 80.477 110.669 80.5263C110.793 80.5757 110.927 80.6003 111.073 80.6003ZM111.017 78.0991L110.396 77.6181H110.847L111.35 78.0991H111.017ZM114.676 80.9V78.31H114.979L116.692 80.4375H116.533V78.31H116.903V80.9H116.6L114.887 78.7725H115.046V80.9H114.676Z" fill="black"/>
</svg>
