<?xml version="1.0" encoding="iso-8859-1"?>
<!-- Generator: Adobe Illustrator 25.2.1, SVG Export Plug-In . SVG Version: 6.00 Build 0)  -->
<svg version="1.1" id="Capa_1" xmlns="http://www.w3.org/2000/svg" xmlns:xlink="http://www.w3.org/1999/xlink" x="0px" y="0px"
	 viewBox="0 0 600 600" style="enable-background:new 0 0 600 600;" xml:space="preserve">
<style type="text/css">
	.st0{fill:#BDA875;}
</style>
<g>
	<path class="st0" d="M126.2,283.3c0,4.6,3.7,8.3,8.3,8.3h139.8c4.6,0,8.3-3.7,8.3-8.3v-86.6c2.2,0.7,4.5,1.2,6.9,1.2
		c7.2,0,13.9-3.5,17.9-9.5c3.2-4.8,4.4-10.5,3.3-16.2c-1.1-5.7-4.3-10.5-9.1-13.8l-85.1-57.5c-7.3-5-16.8-5-24.1,0l-85.1,57.5
		c-4.8,3.2-8,8.1-9.1,13.8c-1.1,5.7,0.1,11.4,3.3,16.2c3.2,4.8,8.1,8,13.8,9.1c1.4,0.3,2.8,0.4,4.1,0.4c2.3,0,4.6-0.4,6.9-1.2V283.3
		z M230.1,275h-51.4v-51.4h51.4V275z M246.7,275v-59.7c0-4.6-3.7-8.3-8.3-8.3h-68c-4.6,0-8.3,3.7-8.3,8.3V275h-19.3v-88.6l61.6-41.6
		l61.6,41.6V275H246.7z M118.4,181.2c-1.3-0.3-2.4-1-3.2-2.1c-0.7-1.1-1-2.4-0.8-3.7c0.3-1.3,1-2.4,2.1-3.2l85.1-57.5
		c0.8-0.6,1.8-0.9,2.8-0.9c1,0,1.9,0.3,2.8,0.9l85.1,57.5c1.1,0.7,1.8,1.9,2.1,3.2c0.3,1.3,0,2.6-0.8,3.7c-0.9,1.4-2.5,2.2-4.1,2.2
		c-0.7,0-1.7-0.1-2.8-0.9l-7.8-5.2c0,0,0,0-0.1,0l-69.9-47.2c-2.8-1.9-6.5-1.9-9.3,0l-69.9,47.2c0,0,0,0,0,0l-7.8,5.2
		C121,181.1,119.7,181.4,118.4,181.2z"/>
	<path class="st0" d="M541.3,403.6c0-55.5-43.4-101-98-104.6V130.5c0-2.2-0.9-4.3-2.4-5.9l-66.7-66.7c-1.6-1.6-3.7-2.4-5.9-2.4H67
		c-4.6,0-8.3,3.7-8.3,8.3v483.4c0,4.6,3.7,8.3,8.3,8.3h368.1c4.6,0,8.3-3.7,8.3-8.3v-39C498,504.6,541.3,459.1,541.3,403.6z
		 M376.6,83.8l38.4,38.4h-38.4V83.8z M75.3,538.9V72H360v58.5c0,4.6,3.7,8.3,8.3,8.3h58.5v160.5c-53.2,4.9-95.1,49.8-95.1,104.3
		S373.5,503,426.8,508v30.9H75.3z M436.5,491.8c-48.6,0-88.2-39.6-88.2-88.2c0-48.6,39.6-88.2,88.2-88.2c48.7,0,88.2,39.6,88.2,88.2
		C524.7,452.3,485.2,491.8,436.5,491.8z"/>
	<path class="st0" d="M454.3,377.6c0,4.6,3.7,8.3,8.3,8.3s8.3-3.7,8.3-8.3c0-16.1-11.1-29.5-26.1-33.2v-11.1c0-4.6-3.7-8.3-8.3-8.3
		s-8.3,3.7-8.3,8.3v11.1c-14.9,3.8-25.9,17.2-25.9,33.2c0,16,11,29.4,25.9,33.2v34.3c-5.6-3-9.4-8.8-9.4-15.5c0-4.6-3.7-8.3-8.3-8.3
		c-4.6,0-8.3,3.7-8.3,8.3c0,16,11.1,29.5,26,33.2v11.1c0,4.6,3.7,8.3,8.3,8.3s8.3-3.7,8.3-8.3v-11.1c14.9-3.7,26-17.2,26-33.2
		c0-16-11.1-29.5-26-33.2v-34.3C450.4,365.1,454.3,370.9,454.3,377.6z M418.9,377.6c0-6.7,3.8-12.5,9.3-15.5v31
		C422.7,390.1,418.9,384.3,418.9,377.6z M454.2,429.6c0,6.7-3.8,12.5-9.4,15.5v-31C450.4,417.1,454.2,422.9,454.2,429.6z"/>
	<path class="st0" d="M307.9,335.9H134.5c-4.6,0-8.3,3.7-8.3,8.3c0,4.6,3.7,8.3,8.3,8.3h173.4c4.6,0,8.3-3.7,8.3-8.3
		C316.2,339.6,312.5,335.9,307.9,335.9z"/>
	<path class="st0" d="M134.5,402.2h103.9c4.6,0,8.3-3.7,8.3-8.3c0-4.6-3.7-8.3-8.3-8.3H134.5c-4.6,0-8.3,3.7-8.3,8.3
		C126.2,398.5,129.9,402.2,134.5,402.2z"/>
	<path class="st0" d="M307.9,435.3H134.5c-4.6,0-8.3,3.7-8.3,8.3c0,4.6,3.7,8.3,8.3,8.3h173.4c4.6,0,8.3-3.7,8.3-8.3
		C316.2,439.1,312.5,435.3,307.9,435.3z"/>
	<path class="st0" d="M238.4,485.1H134.5c-4.6,0-8.3,3.7-8.3,8.3c0,4.6,3.7,8.3,8.3,8.3h103.9c4.6,0,8.3-3.7,8.3-8.3
		C246.7,488.8,243,485.1,238.4,485.1z"/>
</g>
</svg>
