<?xml version="1.0" encoding="iso-8859-1"?>
<!-- Generator: Adobe Illustrator 25.2.1, SVG Export Plug-In . SVG Version: 6.00 Build 0)  -->
<svg version="1.1" id="Capa_1" xmlns="http://www.w3.org/2000/svg" xmlns:xlink="http://www.w3.org/1999/xlink" x="0px" y="0px"
	 viewBox="0 0 600 600" style="enable-background:new 0 0 600 600;" xml:space="preserve">
<style type="text/css">
	.st0{fill:#BDA875;}
</style>
<g>
	<path class="st0" d="M541.5,497.8h-16.6v-57.1c0-4.6-3.7-8.3-8.3-8.3h-9.5V313.7h9.5c4.6,0,8.3-3.7,8.3-8.3v-27.6h16.6
		c3.7,0,7-2.5,8-6.1c1-3.6-0.5-7.4-3.7-9.3l-143.3-86.8c1.4-6.8,2.1-13.9,2.1-21.2c0-57.8-47-104.8-104.8-104.8S195,96.7,195,154.5
		c0,7.2,0.7,14.3,2.1,21.2L53.8,262.4c-3.2,1.9-4.7,5.7-3.7,9.3c1,3.6,4.3,6.1,8,6.1h16.6v27.6c0,4.6,3.7,8.3,8.3,8.3h9.5v118.7H83
		c-4.6,0-8.3,3.7-8.3,8.3v57.1H58.1c-4.6,0-8.3,3.7-8.3,8.3V542c0,4.6,3.7,8.3,8.3,8.3h483.4c4.6,0,8.3-3.7,8.3-8.3v-35.9
		C549.8,501.5,546.1,497.8,541.5,497.8z M508.3,497.8h-49.8V449h49.8V497.8z M410.4,497.8V313.7h49.4v118.7h-9.5
		c-4.6,0-8.3,3.7-8.3,8.3v57.1H410.4z M236.6,497.8V313.7H363v184.1H236.6z M157.6,497.8v-57.1c0-4.6-3.7-8.3-8.3-8.3h-9.5V313.7
		h49.4v184.1H157.6z M205.8,313.7H220v184.1h-14.2V313.7z M379.5,313.7h14.2v184.1h-14.2V313.7z M490.5,432.5h-14.2V313.7h14.2
		V432.5z M299.8,66.2c48.6,0,88.2,39.6,88.2,88.2c0,48.6-39.6,88.2-88.2,88.2s-88.2-39.6-88.2-88.2
		C211.5,105.8,251.1,66.2,299.8,66.2z M202,192.1c15.2,39.3,53.3,67.2,97.8,67.2c44.5,0,82.7-27.9,97.8-67.2l114.2,69.2h-424
		L202,192.1z M91.2,277.8h417v19.3h-417V277.8z M109,313.7h14.2v118.7H109V313.7z M91.2,449H141v48.8H91.2V449z M533.2,533.7H66.4
		v-19.3h466.8V533.7z"/>
	<path class="st0" d="M282.1,180.4c0-4.6-3.7-8.3-8.3-8.3c-4.6,0-8.3,3.7-8.3,8.3c0,16,11.1,29.5,26,33.2v11.1
		c0,4.6,3.7,8.3,8.3,8.3s8.3-3.7,8.3-8.3v-11.1c14.9-3.7,26-17.2,26-33.2s-11.1-29.5-26-33.2v-34.3c5.6,3,9.5,8.8,9.5,15.6
		c0,4.6,3.7,8.3,8.3,8.3c4.6,0,8.3-3.7,8.3-8.3c0-16.1-11.1-29.5-26.1-33.2V84.2c0-4.6-3.7-8.3-8.3-8.3s-8.3,3.7-8.3,8.3v11.1
		c-14.9,3.7-25.9,17.2-25.9,33.2s11,29.4,25.9,33.2V196C285.9,193,282.1,187.2,282.1,180.4z M317.5,180.4c0,6.7-3.8,12.5-9.4,15.5
		v-31C313.6,167.9,317.5,173.7,317.5,180.4z M282.2,128.5c0-6.7,3.8-12.5,9.3-15.5v31C286,141,282.2,135.2,282.2,128.5z"/>
</g>
</svg>
